{
.appVersion = "1138";
classes = (
{
automatic = 1;

glyphs = (
{
glyphname = A;
layers = (
{
anchors = (
{
name = bottom;
position = "{224, 0}";
},
{
name = ogonek;
position = "{480, 1}";
},
{
name = top;
position = "{220, 710}";
}
);
color = -1;
layerId = "FC508690-ADF2-4DBF-B34D-60B2640A846D";
paths = (
{
closed = 1;
nodes = (
"31 0 LINE SMOOTH",
"40 0 OFFCURVE",
"39 1 OFFCURVE",
"42 9 CURVE",
"44 18 OFFCURVE",
"46 27 OFFCURVE",
"49 35 CURVE SMOOTH",
"53 48 OFFCURVE",
"56 63 OFFCURVE",
"59 67 CURVE SMOOTH",
"63 75 OFFCURVE",
"67 92 OFFCURVE",
"68 100 CURVE",
"71 108 OFFCURVE",
"86 186 OFFCURVE",
"91 202 CURVE",
"95 221 LINE",
"97 231 LINE SMOOTH",
"99 239 OFFCURVE",
"102 242 OFFCURVE",
"106 242 CURVE SMOOTH",
"107 242 OFFCURVE",
"107 242 OFFCURVE",
"108 242 CURVE",
"169 242 LINE SMOOTH",
"201 242 OFFCURVE",
"235 242 OFFCURVE",
"243 243 CURVE SMOOTH",
"250 243 OFFCURVE",
"269 244 OFFCURVE",
"286 245 CURVE SMOOTH",
"296 246 OFFCURVE",
"306 246 OFFCURVE",
"317 246 CURVE SMOOTH",
"324 246 OFFCURVE",
"326 246 OFFCURVE",
"333 230 CURVE",
"342 201 LINE SMOOTH",
"347 185 OFFCURVE",
"354 167 OFFCURVE",
"358 158 CURVE SMOOTH",
"366 142 OFFCURVE",
"376 105 OFFCURVE",
"379 90 CURVE SMOOTH",
"380 83 OFFCURVE",
"384 64 OFFCURVE",
"391 45 CURVE",
"394 34 OFFCURVE",
"397 22 OFFCURVE",
"402 9 CURVE SMOOTH",
"405 1 OFFCURVE",
"408 0 OFFCURVE",
"413 0 CURVE SMOOTH",
"469 0 LINE SMOOTH",
"478 0 OFFCURVE",
"480 1 OFFCURVE",
"480 4 CURVE SMOOTH",
"480 6 OFFCURVE",
"479 9 OFFCURVE",
"477 14 CURVE SMOOTH",
"472 27 OFFCURVE",
"445 91 OFFCURVE",
"437 123 CURVE SMOOTH",
"429 154 OFFCURVE",
"404 227 OFFCURVE",
"396 251 CURVE",
"385 276 OFFCURVE",
"350 374 OFFCURVE",
"342 394 CURVE",
"337 412 OFFCURVE",
"293 529 OFFCURVE",
"290 547 CURVE",
"285 563 OFFCURVE",
"265 644 OFFCURVE",
"254 670 CURVE SMOOTH",
"243 698 OFFCURVE",
"236 720 OFFCURVE",
"227 720 CURVE SMOOTH",
"208 720 OFFCURVE",
"200 700 OFFCURVE",
"192 672 CURVE",
"187 645 OFFCURVE",
"166 589 OFFCURVE",
"161 574 CURVE",
"154 559 OFFCURVE",
"147 533 OFFCURVE",
"138 504 CURVE",
"130 474 OFFCURVE",
"116 425 OFFCURVE",
"111 401 CURVE SMOOTH",
"106 378 OFFCURVE",
"92 337 OFFCURVE",
"85 306 CURVE",
"80 277 OFFCURVE",
"61 219 OFFCURVE",
"53 191 CURVE SMOOTH",
"45 164 OFFCURVE",
"37 134 OFFCURVE",
"34 118 CURVE SMOOTH",
"31 99 OFFCURVE",
"23 80 OFFCURVE",
"20 69 CURVE",
"11 32 LINE",
"8 25 OFFCURVE",
"8 21 OFFCURVE",
"7 18 CURVE SMOOTH",
"6 16 OFFCURVE",
"6 14 OFFCURVE",
"6 13 CURVE SMOOTH",
"3 4 OFFCURVE",
"4 0 OFFCURVE",
"11 0 CURVE SMOOTH"
);
},
{
closed = 1;
nodes = (
"135 308 OFFCURVE",
"116 305 OFFCURVE",
"116 318 CURVE SMOOTH",
"116 320 OFFCURVE",
"117 322 OFFCURVE",
"118 325 CURVE SMOOTH",
"126 346 OFFCURVE",
"146 421 OFFCURVE",
"151 445 CURVE",
"159 469 OFFCURVE",
"184 559 OFFCURVE",
"189 581 CURVE",
"196 604 OFFCURVE",
"201 630 OFFCURVE",
"205 630 CURVE SMOOTH",
"210 630 OFFCURVE",
"220 595 OFFCURVE",
"225 577 CURVE",
"228 560 OFFCURVE",
"250 483 OFFCURVE",
"260 453 CURVE SMOOTH",
"271 423 OFFCURVE",
"288 358 OFFCURVE",
"296 340 CURVE SMOOTH",
"300 330 OFFCURVE",
"303 322 OFFCURVE",
"303 318 CURVE SMOOTH",
"303 313 OFFCURVE",
"300 311 OFFCURVE",
"290 311 CURVE SMOOTH",
"279 311 OFFCURVE",
"256 312 OFFCURVE",
"236 312 CURVE SMOOTH",
"221 312 OFFCURVE",
"208 311 OFFCURVE",
"202 310 CURVE",
"189 310 OFFCURVE",
"154 308 OFFCURVE",
"144 308 CURVE SMOOTH"
);
}
);
width = 475;
}
);
leftKerningGroup = A;
rightKerningGroup = A;
unicode = 0041;
},
{
glyphname = AE;
layers = (
{
anchors = (
{
name = bottom;
position = "{443, 0}";
},
{
name = top;
position = "{523, 710}";
}
);
color = -1;
layerId = "FC508690-ADF2-4DBF-B34D-60B2640A846D";
paths = (
{
closed = 1;
nodes = (
"48 0 LINE SMOOTH",
"57 0 OFFCURVE",
"57 1 OFFCURVE",
"61 9 CURVE SMOOTH",
"73 35 LINE SMOOTH",
"80 48 OFFCURVE",
"85 63 OFFCURVE",
"89 67 CURVE",
"94 75 OFFCURVE",
"101 92 OFFCURVE",
"104 100 CURVE",
"109 108 OFFCURVE",
"140 186 OFFCURVE",
"148 202 CURVE SMOOTH",
"156 221 LINE",
"160 231 LINE SMOOTH",
"164 239 OFFCURVE",
"167 242 OFFCURVE",
"171 242 CURVE SMOOTH",
"172 242 OFFCURVE",
"172 242 OFFCURVE",
"173 242 CURVE",
"280 242 LINE SMOOTH",
"295 242 OFFCURVE",
"304 242 OFFCURVE",
"309 243 CURVE",
"316 243 OFFCURVE",
"335 244 OFFCURVE",
"352 245 CURVE SMOOTH",
"362 246 OFFCURVE",
"372 246 OFFCURVE",
"383 246 CURVE SMOOTH",
"390 246 OFFCURVE",
"392 246 OFFCURVE",
"396 230 CURVE",
"402 165 LINE",
"405 144 OFFCURVE",
"408 124 OFFCURVE",
"409 105 CURVE",
"414 69 OFFCURVE",
"413 64 OFFCURVE",
"416 45 CURVE SMOOTH",
"417 34 OFFCURVE",
"418 22 OFFCURVE",
"420 9 CURVE SMOOTH",
"421 1 OFFCURVE",
"424 0 OFFCURVE",
"429 0 CURVE SMOOTH",
"570 2 LINE",
"587 3 OFFCURVE",
"601 3 OFFCURVE",
"613 3 CURVE SMOOTH",
"660 3 OFFCURVE",
"757 1 OFFCURVE",
"790 1 CURVE SMOOTH",
"822 1 OFFCURVE",
"838 -5 OFFCURVE",
"835 23 CURVE",
"835 107 LINE",
"832 124 OFFCURVE",
"827 135 OFFCURVE",
"799 134 CURVE SMOOTH",
"790 133 OFFCURVE",
"777 133 OFFCURVE",
"762 133 CURVE SMOOTH",
"722 133 OFFCURVE",
"668 135 OFFCURVE",
"635 135 CURVE SMOOTH",
"590 135 OFFCURVE",
"541 134 OFFCURVE",
"518 134 CURVE SMOOTH",
"507 134 OFFCURVE",
"497 133 OFFCURVE",
"490 133 CURVE",
"486 132 OFFCURVE",
"482 132 OFFCURVE",
"479 132 CURVE",
"467 232 LINE",
"468 231 OFFCURVE",
"470 231 OFFCURVE",
"473 231 CURVE",
"475 230 OFFCURVE",
"479 230 OFFCURVE",
"486 230 CURVE SMOOTH",
"497 230 OFFCURVE",
"539 238 OFFCURVE",
"603 238 CURVE SMOOTH",
"666 238 OFFCURVE",
"687 236 OFFCURVE",
"703 236 CURVE SMOOTH",
"717 236 OFFCURVE",
"729 227 OFFCURVE",
"729 243 CURVE SMOOTH",
"729 245 OFFCURVE",
"729 247 OFFCURVE",
"729 249 CURVE SMOOTH",
"729 264 OFFCURVE",
"727 271 OFFCURVE",
"727 281 CURVE SMOOTH",
"727 287 OFFCURVE",
"728 293 OFFCURVE",
"729 302 CURVE",
"729 322 LINE SMOOTH",
"729 343 OFFCURVE",
"722 346 OFFCURVE",
"715 346 CURVE SMOOTH",
"712 346 OFFCURVE",
"708 345 OFFCURVE",
"705 345 CURVE SMOOTH",
"694 345 OFFCURVE",
"680 348 OFFCURVE",
"656 348 CURVE SMOOTH",
"632 348 OFFCURVE",
"587 344 OFFCURVE",
"550 344 CURVE SMOOTH",
"511 344 LINE SMOOTH",
"499 344 OFFCURVE",
"489 344 OFFCURVE",
"480 345 CURVE",
"470 345 OFFCURVE",
"461 345 OFFCURVE",
"453 346 CURVE",
"451 357 OFFCURVE",
"449 367 OFFCURVE",
"448 378 CURVE SMOOTH",
"441 437 LINE",
"438 472 OFFCURVE",
"433 517 OFFCURVE",
"433 533 CURVE",
"432 539 OFFCURVE",
"431 543 OFFCURVE",
"431 546 CURVE SMOOTH",
"431 551 OFFCURVE",
"433 553 OFFCURVE",
"440 553 CURVE SMOOTH",
"516 553 LINE SMOOTH",
"527 553 OFFCURVE",
"537 553 OFFCURVE",
"546 554 CURVE SMOOTH",
"555 555 OFFCURVE",
"564 555 OFFCURVE",
"573 555 CURVE SMOOTH",
"598 555 OFFCURVE",
"624 553 OFFCURVE",
"649 553 CURVE SMOOTH",
"691 553 OFFCURVE",
"721 553 OFFCURVE",
"737 550 CURVE SMOOTH",
"747 548 OFFCURVE",
"774 534 OFFCURVE",
"771 560 CURVE",
"772 573 OFFCURVE",
"772 588 OFFCURVE",
"772 606 CURVE SMOOTH",
"772 629 OFFCURVE",
"770 648 OFFCURVE",
"770 673 CURVE",
"769 691 OFFCURVE",
"765 700 OFFCURVE",
"758 700 CURVE SMOOTH",
"751 701 OFFCURVE",
"742 701 OFFCURVE",
"733 701 CURVE SMOOTH",
"714 701 OFFCURVE",
"662 705 OFFCURVE",
"621 705 CURVE SMOOTH",
"601 705 OFFCURVE",
"575 703 OFFCURVE",
"548 700 CURVE",
"508 697 LINE SMOOTH",
"495 696 OFFCURVE",
"483 696 OFFCURVE",
"472 696 CURVE SMOOTH",
"449 696 OFFCURVE",
"432 696 OFFCURVE",
"421 697 CURVE SMOOTH",
"401 699 LINE",
"400 701 OFFCURVE",
"400 703 OFFCURVE",
"400 705 CURVE SMOOTH",
"398 715 OFFCURVE",
"395 720 OFFCURVE",
"390 720 CURVE SMOOTH",
"371 720 OFFCURVE",
"358 700 OFFCURVE",
"345 672 CURVE SMOOTH",
"333 647 LINE",
"318 618 LINE SMOOTH",
"309 599 OFFCURVE",
"298 582 OFFCURVE",
"294 574 CURVE SMOOTH",
"285 559 OFFCURVE",
"272 533 OFFCURVE",
"257 504 CURVE",
"209 401 LINE SMOOTH",
"198 378 OFFCURVE",
"176 337 OFFCURVE",
"163 306 CURVE SMOOTH",
"152 277 OFFCURVE",
"122 218 OFFCURVE",
"108 191 CURVE SMOOTH",
"95 164 OFFCURVE",
"80 134 OFFCURVE",
"75 118 CURVE SMOOTH",
"68 99 OFFCURVE",
"56 80 OFFCURVE",
"51 69 CURVE SMOOTH",
"46 57 OFFCURVE",
"39 43 OFFCURVE",
"35 32 CURVE",
"28 18 LINE SMOOTH",
"27 16 OFFCURVE",
"26 14 OFFCURVE",
"26 13 CURVE SMOOTH",
"24 9 OFFCURVE",
"22 6 OFFCURVE",
"22 4 CURVE SMOOTH",
"22 1 OFFCURVE",
"24 0 OFFCURVE",
"28 0 CURVE SMOOTH"
);
},
{
closed = 1;
nodes = (
"214 308 OFFCURVE",
"197 305 OFFCURVE",
"197 316 CURVE SMOOTH",
"197 318 OFFCURVE",
"198 321 OFFCURVE",
"200 325 CURVE SMOOTH",
"213 346 OFFCURVE",
"247 421 OFFCURVE",
"258 445 CURVE",
"268 463 OFFCURVE",
"293 518 OFFCURVE",
"310 554 CURVE SMOOTH",
"324 581 LINE SMOOTH",
"335 604 OFFCURVE",
"346 630 OFFCURVE",
"350 630 CURVE SMOOTH",
"354 630 OFFCURVE",
"356 595 OFFCURVE",
"359 577 CURVE",
"359 560 OFFCURVE",
"365 484 OFFCURVE",
"368 453 CURVE SMOOTH",
"369 446 OFFCURVE",
"371 436 OFFCURVE",
"372 425 CURVE SMOOTH",
"376 392 LINE SMOOTH",
"379 371 OFFCURVE",
"380 349 OFFCURVE",
"381 340 CURVE SMOOTH",
"382 331 OFFCURVE",
"384 324 OFFCURVE",
"384 320 CURVE SMOOTH",
"384 314 OFFCURVE",
"381 311 OFFCURVE",
"370 311 CURVE",
"298 311 LINE SMOOTH",
"291 311 OFFCURVE",
"285 311 OFFCURVE",
"281 310 CURVE",
"271 310 OFFCURVE",
"250 308 OFFCURVE",
"234 308 CURVE SMOOTH",
"223 308 LINE SMOOTH"
);
}
);
width = 886;
}
);
leftKerningGroup = A;
rightKerningGroup = E;
unicode = 00C6;
},
{
glyphname = B;
layers = (
{
color = -1;
layerId = "FC508690-ADF2-4DBF-B34D-60B2640A846D";
paths = (
{
closed = 1;
nodes = (
"113 -7 OFFCURVE",
"209 -4 OFFCURVE",
"248 -4 CURVE SMOOTH",
"288 -4 OFFCURVE",
"483 -12 OFFCURVE",
"483 130 CURVE SMOOTH",
"483 285 OFFCURVE",
"324 340 OFFCURVE",
"302 348 CURVE",
"323 355 OFFCURVE",
"342 366 OFFCURVE",
"359 381 CURVE SMOOTH",
"388 408 OFFCURVE",
"417 452 OFFCURVE",
"417 531 CURVE SMOOTH",
"417 685 OFFCURVE",
"319 713 OFFCURVE",
"211 713 CURVE SMOOTH",
"158 713 OFFCURVE",
"89 702 OFFCURVE",
"80 699 CURVE SMOOTH",
"72 697 OFFCURVE",
"69 694 OFFCURVE",
"69 690 CURVE SMOOTH",
"69 689 OFFCURVE",
"69 687 OFFCURVE",
"70 685 CURVE SMOOTH",
"71 680 OFFCURVE",
"73 657 OFFCURVE",
"73 635 CURVE SMOOTH",
"73 625 OFFCURVE",
"73 615 OFFCURVE",
"72 607 CURVE SMOOTH",
"69 579 OFFCURVE",
"69 426 OFFCURVE",
"66 370 CURVE",
"63 339 OFFCURVE",
"63 320 OFFCURVE",
"63 301 CURVE SMOOTH",
"63 286 OFFCURVE",
"63 272 OFFCURVE",
"63 253 CURVE SMOOTH",
"62 31 LINE SMOOTH",
"62 11 OFFCURVE",
"66 -7 OFFCURVE",
"90 -7 CURVE SMOOTH"
);
},
{
closed = 1;
nodes = (
"205 15 OFFCURVE",
"194 11 OFFCURVE",
"194 31 CURVE SMOOTH",
"194 49 OFFCURVE",
"190 112 OFFCURVE",
"190 136 CURVE SMOOTH",
"190 160 OFFCURVE",
"192 163 OFFCURVE",
"192 182 CURVE SMOOTH",
"192 200 OFFCURVE",
"188 278 OFFCURVE",
"188 300 CURVE SMOOTH",
"188 311 OFFCURVE",
"188 318 OFFCURVE",
"189 323 CURVE SMOOTH",
"189 326 OFFCURVE",
"189 328 OFFCURVE",
"190 331 CURVE",
"233 332 OFFCURVE",
"271 326 OFFCURVE",
"305 313 CURVE",
"362 289 OFFCURVE",
"420 240 OFFCURVE",
"420 131 CURVE SMOOTH",
"420 63 OFFCURVE",
"359 15 OFFCURVE",
"224 15 CURVE SMOOTH"
);
},
{
closed = 1;
nodes = (
"191 361 OFFCURVE",
"191 363 OFFCURVE",
"191 370 CURVE SMOOTH",
"191 377 OFFCURVE",
"193 383 OFFCURVE",
"193 399 CURVE",
"193 513 LINE SMOOTH",
"193 541 OFFCURVE",
"194 584 OFFCURVE",
"195 620 CURVE SMOOTH",
"197 684 LINE",
"288 684 OFFCURVE",
"380 677 OFFCURVE",
"380 523 CURVE SMOOTH",
"380 370 OFFCURVE",
"206 361 OFFCURVE",
"198 361 CURVE SMOOTH"
);
}
);
width = 512;
}
);
unicode = 0042;
},
{
glyphname = C;
layers = (
{
anchors = (
{
name = bottom;
position = "{277, 0}";
},
{
name = top;
position = "{284, 727}";
}
);
color = -1;
layerId = "FC508690-ADF2-4DBF-B34D-60B2640A846D";
paths = (
{
closed = 1;
nodes = (
"423 -12 OFFCURVE",
"481 84 OFFCURVE",
"492 103 CURVE SMOOTH",
"494 107 OFFCURVE",
"495 111 OFFCURVE",
"495 114 CURVE SMOOTH",
"495 124 OFFCURVE",
"482 127 OFFCURVE",
"467 134 CURVE",
"382 181 LINE SMOOTH",
"377 184 OFFCURVE",
"373 185 OFFCURVE",
"370 185 CURVE SMOOTH",
"365 185 OFFCURVE",
"362 180 OFFCURVE",
"355 173 CURVE SMOOTH",
"344 162 OFFCURVE",
"313 134 OFFCURVE",
"285 134 CURVE SMOOTH",
"257 134 OFFCURVE",
"167 166 OFFCURVE",
"167 329 CURVE SMOOTH",
"167 493 OFFCURVE",
"231 544 OFFCURVE",
"275 544 CURVE SMOOTH",
"300 544 OFFCURVE",
"316 523 OFFCURVE",
"335 502 CURVE SMOOTH",
"341 495 OFFCURVE",
"346 492 OFFCURVE",
"351 492 CURVE SMOOTH",
"361 492 OFFCURVE",
"371 504 OFFCURVE",
"382 518 CURVE SMOOTH",
"397 538 OFFCURVE",
"429 566 OFFCURVE",
"448 581 CURVE SMOOTH",
"456 588 OFFCURVE",
"459 593 OFFCURVE",
"459 597 CURVE SMOOTH",
"459 604 OFFCURVE",
"454 610 OFFCURVE",
"448 618 CURVE SMOOTH",
"437 634 OFFCURVE",
"382 704 OFFCURVE",
"271 704 CURVE SMOOTH",
"159 704 OFFCURVE",
"37 562 OFFCURVE",
"37 354 CURVE SMOOTH",
"37 146 OFFCURVE",
"162 -12 OFFCURVE",
"293 -12 CURVE SMOOTH"
);
}
);
width = 515;
}
);
leftKerningGroup = O;
unicode = 0043;
},
{
glyphname = Ccedilla;
layers = (
{
color = -1;
layerId = "FC508690-ADF2-4DBF-B34D-60B2640A846D";
paths = (
{
closed = 1;
nodes = (
"296 -158 OFFCURVE",
"303 -153 OFFCURVE",
"314 -148 CURVE SMOOTH",
"319 -145 OFFCURVE",
"324 -142 OFFCURVE",
"329 -137 CURVE SMOOTH",
"340 -128 OFFCURVE",
"359 -115 OFFCURVE",
"360 -83 CURVE",
"360 -28 OFFCURVE",
"331 -13 OFFCURVE",
"298 -13 CURVE SMOOTH",
"267 -13 OFFCURVE",
"263 -15 OFFCURVE",
"250 -22 CURVE",
"254 -8 OFFCURVE",
"261 3 OFFCURVE",
"273 19 CURVE",
"279 18 OFFCURVE",
"286 18 OFFCURVE",
"293 18 CURVE SMOOTH",
"423 18 OFFCURVE",
"481 114 OFFCURVE",
"492 133 CURVE SMOOTH",
"494 137 OFFCURVE",
"495 141 OFFCURVE",
"495 144 CURVE SMOOTH",
"495 154 OFFCURVE",
"482 157 OFFCURVE",
"467 164 CURVE",
"382 211 LINE SMOOTH",
"377 214 OFFCURVE",
"373 215 OFFCURVE",
"370 215 CURVE SMOOTH",
"365 215 OFFCURVE",
"362 210 OFFCURVE",
"355 203 CURVE SMOOTH",
"344 192 OFFCURVE",
"313 164 OFFCURVE",
"285 164 CURVE",
"256 159 OFFCURVE",
"167 207 OFFCURVE",
"167 349 CURVE SMOOTH",
"167 404 OFFCURVE",
"183 465 OFFCURVE",
"204 498 CURVE",
"227 531 OFFCURVE",
"252 544 OFFCURVE",
"275 544 CURVE SMOOTH",
"300 544 OFFCURVE",
"316 523 OFFCURVE",
"335 502 CURVE SMOOTH",
"341 495 OFFCURVE",
"346 492 OFFCURVE",
"351 492 CURVE SMOOTH",
"361 492 OFFCURVE",
"371 504 OFFCURVE",
"382 518 CURVE SMOOTH",
"397 538 OFFCURVE",
"429 566 OFFCURVE",
"448 581 CURVE SMOOTH",
"456 588 OFFCURVE",
"459 593 OFFCURVE",
"459 597 CURVE SMOOTH",
"459 604 OFFCURVE",
"454 610 OFFCURVE",
"448 618 CURVE SMOOTH",
"437 634 OFFCURVE",
"382 704 OFFCURVE",
"271 704 CURVE SMOOTH",
"215 704 OFFCURVE",
"156 668 OFFCURVE",
"112 607 CURVE SMOOTH",
"68 546 OFFCURVE",
"37 451 OFFCURVE",
"37 374 CURVE SMOOTH",
"37 283 OFFCURVE",
"68 188 OFFCURVE",
"116 123 CURVE SMOOTH",
"148 79 OFFCURVE",
"188 46 OFFCURVE",
"231 30 CURVE",
"224 11 OFFCURVE",
"219 -4 OFFCURVE",
"217 -16 CURVE SMOOTH",
"213 -32 OFFCURVE",
"210 -35 OFFCURVE",
"210 -52 CURVE",
"211 -59 OFFCURVE",
"217 -60 OFFCURVE",
"241 -60 CURVE SMOOTH",
"248 -60 OFFCURVE",
"259 -46 OFFCURVE",
"274 -46 CURVE SMOOTH",
"293 -46 OFFCURVE",
"298 -60 OFFCURVE",
"298 -79 CURVE",
"292 -104 OFFCURVE",
"283 -103 OFFCURVE",
"257 -105 CURVE",
"240 -105 OFFCURVE",
"232 -103 OFFCURVE",
"219 -99 CURVE",
"206 -92 OFFCURVE",
"199 -86 OFFCURVE",
"195 -86 CURVE SMOOTH",
"193 -86 OFFCURVE",
"192 -87 OFFCURVE",
"192 -90 CURVE SMOOTH",
"187 -113 OFFCURVE",
"184 -128 OFFCURVE",
"184 -139 CURVE SMOOTH",
"184 -150 OFFCURVE",
"220 -158 OFFCURVE",
"251 -158 CURVE SMOOTH"
);
}
);
width = 509;
}
);
leftKerningGroup = O;
unicode = 00C7;
},
{
glyphname = D;
layers = (
{
anchors = (
{
name = bottom;
position = "{283, 0}";
},
{
name = top;
position = "{274, 710}";
}
);
color = -1;
layerId = "FC508690-ADF2-4DBF-B34D-60B2640A846D";
paths = (
{
closed = 1;
nodes = (
"113 0 OFFCURVE",
"185 2 OFFCURVE",
"224 2 CURVE SMOOTH",
"262 2 OFFCURVE",
"542 14 OFFCURVE",
"542 315 CURVE SMOOTH",
"542 639 OFFCURVE",
"332 700 OFFCURVE",
"239 700 CURVE SMOOTH",
"216 700 OFFCURVE",
"192 699 OFFCURVE",
"171 698 CURVE",
"135 696 LINE",
"111 696 OFFCURVE",
"68 701 OFFCURVE",
"68 681 CURVE SMOOTH",
"68 660 OFFCURVE",
"70 592 OFFCURVE",
"70 511 CURVE SMOOTH",
"70 431 OFFCURVE",
"62 381 OFFCURVE",
"62 303 CURVE SMOOTH",
"62 224 OFFCURVE",
"67 175 OFFCURVE",
"67 155 CURVE SMOOTH",
"67 134 OFFCURVE",
"70 84 OFFCURVE",
"70 60 CURVE SMOOTH",
"70 52 OFFCURVE",
"69 43 OFFCURVE",
"69 34 CURVE SMOOTH",
"69 16 OFFCURVE",
"72 0 OFFCURVE",
"88 0 CURVE SMOOTH"
);
},
{
closed = 1;
nodes = (
"241 231 OFFCURVE",
"241 249 OFFCURVE",
"242 266 CURVE SMOOTH",
"243 295 OFFCURVE",
"244 327 OFFCURVE",
"244 350 CURVE SMOOTH",
"244 382 OFFCURVE",
"248 420 OFFCURVE",
"248 455 CURVE SMOOTH",
"248 467 OFFCURVE",
"247 478 OFFCURVE",
"246 489 CURVE",
"263 484 OFFCURVE",
"279 476 OFFCURVE",
"293 465 CURVE SMOOTH",
"317 446 OFFCURVE",
"341 415 OFFCURVE",
"341 364 CURVE SMOOTH",
"341 312 OFFCURVE",
"316 274 OFFCURVE",
"291 250 CURVE SMOOTH",
"276 235 OFFCURVE",
"260 223 OFFCURVE",
"241 214 CURVE"
);
}
);
width = 577;
}
);
rightKerningGroup = O;
unicode = 0044;
},
{
glyphname = Eth;
layers = (
{
color = -1;
layerId = "FC508690-ADF2-4DBF-B34D-60B2640A846D";
paths = (
{
closed = 1;
nodes = (
"147 0 OFFCURVE",
"219 2 OFFCURVE",
"258 2 CURVE SMOOTH",
"296 2 OFFCURVE",
"576 14 OFFCURVE",
"576 315 CURVE SMOOTH",
"576 639 OFFCURVE",
"366 700 OFFCURVE",
"273 700 CURVE SMOOTH",
"250 700 OFFCURVE",
"226 699 OFFCURVE",
"205 698 CURVE",
"169 696 LINE",
"145 696 OFFCURVE",
"102 701 OFFCURVE",
"102 681 CURVE SMOOTH",
"102 660 OFFCURVE",
"104 592 OFFCURVE",
"104 511 CURVE SMOOTH",
"104 464 OFFCURVE",
"101 428 OFFCURVE",
"99 390 CURVE",
"61 390 LINE",
"56 391 OFFCURVE",
"51 392 OFFCURVE",
"48 392 CURVE SMOOTH",
"41 392 OFFCURVE",
"38 390 OFFCURVE",
"38 386 CURVE",
"35 380 OFFCURVE",
"42 338 OFFCURVE",
"42 328 CURVE SMOOTH",
"42 317 OFFCURVE",
"38 312 OFFCURVE",
"58 312 CURVE SMOOTH",
"65 312 OFFCURVE",
"80 311 OFFCURVE",
"96 310 CURVE",
"96 303 LINE SMOOTH",
"96 224 OFFCURVE",
"101 175 OFFCURVE",
"101 155 CURVE SMOOTH",
"101 134 OFFCURVE",
"104 84 OFFCURVE",
"104 60 CURVE SMOOTH",
"104 52 OFFCURVE",
"103 43 OFFCURVE",
"103 34 CURVE SMOOTH",
"103 16 OFFCURVE",
"106 0 OFFCURVE",
"122 0 CURVE SMOOTH"
);
},
{
closed = 1;
nodes = (
"275 181 OFFCURVE",
"275 249 OFFCURVE",
"276 266 CURVE SMOOTH",
"277 282 OFFCURVE",
"277 299 OFFCURVE",
"277 315 CURVE",
"297 315 LINE SMOOTH",
"321 315 OFFCURVE",
"352 318 OFFCURVE",
"360 318 CURVE SMOOTH",
"365 318 OFFCURVE",
"370 317 OFFCURVE",
"374 317 CURVE SMOOTH",
"379 317 OFFCURVE",
"383 319 OFFCURVE",
"383 325 CURVE",
"383 376 LINE SMOOTH",
"383 379 OFFCURVE",
"384 382 OFFCURVE",
"384 385 CURVE SMOOTH",
"384 389 OFFCURVE",
"382 393 OFFCURVE",
"375 393 CURVE SMOOTH",
"279 393 LINE",
"281 420 LINE SMOOTH",
"282 432 OFFCURVE",
"282 452 OFFCURVE",
"282 480 CURVE SMOOTH",
"282 515 OFFCURVE",
"282 563 OFFCURVE",
"280 623 CURVE",
"321 620 OFFCURVE",
"364 602 OFFCURVE",
"409 567 CURVE",
"485 491 OFFCURVE",
"506 429 OFFCURVE",
"510 364 CURVE",
"510 331 OFFCURVE",
"507 297 OFFCURVE",
"501 264 CURVE SMOOTH",
"495 231 OFFCURVE",
"476 196 OFFCURVE",
"444 157 CURVE",
"395 115 OFFCURVE",
"338 83 OFFCURVE",
"275 62 CURVE"
);
}
);
width = 616;
}
);
rightKerningGroup = O;
unicode = 00D0;
},
{
glyphname = Dcroat;
layers = (
{
color = -1;
layerId = "FC508690-ADF2-4DBF-B34D-60B2640A846D";
paths = (
{
closed = 1;
nodes = (
"113 0 OFFCURVE",
"185 2 OFFCURVE",
"224 2 CURVE SMOOTH",
"262 2 OFFCURVE",
"542 14 OFFCURVE",
"542 315 CURVE SMOOTH",
"542 639 OFFCURVE",
"332 700 OFFCURVE",
"239 700 CURVE SMOOTH",
"216 700 OFFCURVE",
"192 699 OFFCURVE",
"171 698 CURVE",
"135 696 LINE",
"111 696 OFFCURVE",
"68 701 OFFCURVE",
"68 681 CURVE SMOOTH",
"68 660 OFFCURVE",
"70 592 OFFCURVE",
"70 511 CURVE SMOOTH",
"70 462 OFFCURVE",
"67 424 OFFCURVE",
"65 384 CURVE",
"13 384 LINE SMOOTH",
"4 384 OFFCURVE",
"2 378 OFFCURVE",
"2 365 CURVE SMOOTH",
"2 338 LINE SMOOTH",
"2 331 OFFCURVE",
"2 325 OFFCURVE",
"10 325 CURVE",
"15 328 OFFCURVE",
"53 328 OFFCURVE",
"61 328 CURVE",
"62 328 LINE",
"62 303 LINE SMOOTH",
"62 224 OFFCURVE",
"67 175 OFFCURVE",
"67 155 CURVE SMOOTH",
"67 134 OFFCURVE",
"70 84 OFFCURVE",
"70 60 CURVE SMOOTH",
"70 52 OFFCURVE",
"69 43 OFFCURVE",
"69 34 CURVE SMOOTH",
"69 16 OFFCURVE",
"72 0 OFFCURVE",
"88 0 CURVE SMOOTH"
);
},
{
closed = 1;
nodes = (
"201 231 OFFCURVE",
"202 249 OFFCURVE",
"203 266 CURVE SMOOTH",
"206 328 LINE",
"230 327 OFFCURVE",
"262 325 OFFCURVE",
"277 325 CURVE SMOOTH",
"296 325 OFFCURVE",
"299 329 OFFCURVE",
"299 338 CURVE",
"299 368 LINE SMOOTH",
"299 377 OFFCURVE",
"299 385 OFFCURVE",
"288 385 CURVE SMOOTH",
"286 385 OFFCURVE",
"284 384 OFFCURVE",
"281 384 CURVE SMOOTH",
"208 384 LINE",
"210 406 OFFCURVE",
"212 430 OFFCURVE",
"212 452 CURVE SMOOTH",
"212 465 OFFCURVE",
"211 477 OFFCURVE",
"209 488 CURVE",
"240 487 OFFCURVE",
"268 482 OFFCURVE",
"293 474 CURVE",
"346 454 OFFCURVE",
"366 414 OFFCURVE",
"366 363 CURVE SMOOTH",
"365 292 OFFCURVE",
"343 253 OFFCURVE",
"292 234 CURVE SMOOTH",
"268 225 OFFCURVE",
"238 219 OFFCURVE",
"201 214 CURVE"
);
}
);
width = 577;
}
);
rightKerningGroup = O;
unicode = 0110;
},
{
glyphname = E;
layers = (
{
anchors = (
{
name = bottom;
position = "{270, 0}";
},
{
name = ogonek;
position = "{442, 1}";
},
{
name = top;
position = "{277, 710}";
}
);
color = -1;
layerId = "FC508690-ADF2-4DBF-B34D-60B2640A846D";
paths = (
{
closed = 1;
nodes = (
"76 -2 OFFCURVE",
"78 -1 OFFCURVE",
"80 -1 CURVE SMOOTH",
"93 -1 OFFCURVE",
"190 3 OFFCURVE",
"238 3 CURVE SMOOTH",
"285 3 OFFCURVE",
"381 1 OFFCURVE",
"414 1 CURVE SMOOTH",
"446 1 OFFCURVE",
"462 -5 OFFCURVE",
"462 23 CURVE SMOOTH",
"462 52 OFFCURVE",
"463 73 OFFCURVE",
"463 93 CURVE SMOOTH",
"463 99 OFFCURVE",
"464 107 OFFCURVE",
"464 113 CURVE SMOOTH",
"464 125 OFFCURVE",
"461 134 OFFCURVE",
"444 134 CURVE SMOOTH",
"435 134 OFFCURVE",
"420 133 OFFCURVE",
"402 133 CURVE SMOOTH",
"362 133 OFFCURVE",
"309 135 OFFCURVE",
"276 135 CURVE SMOOTH",
"231 135 OFFCURVE",
"181 134 OFFCURVE",
"158 134 CURVE SMOOTH",
"147 134 OFFCURVE",
"137 133 OFFCURVE",
"130 133 CURVE",
"126 132 OFFCURVE",
"122 132 OFFCURVE",
"119 132 CURVE",
"119 232 LINE",
"120 231 OFFCURVE",
"122 231 OFFCURVE",
"125 231 CURVE",
"127 230 OFFCURVE",
"131 230 OFFCURVE",
"138 230 CURVE SMOOTH",
"149 230 OFFCURVE",
"192 238 OFFCURVE",
"256 238 CURVE SMOOTH",
"319 238 OFFCURVE",
"340 236 OFFCURVE",
"356 236 CURVE SMOOTH",
"363 236 OFFCURVE",
"370 233 OFFCURVE",
"374 233 CURVE SMOOTH",
"380 233 OFFCURVE",
"383 236 OFFCURVE",
"383 249 CURVE SMOOTH",
"383 274 OFFCURVE",
"382 283 OFFCURVE",
"382 302 CURVE SMOOTH",
"382 321 OFFCURVE",
"384 326 OFFCURVE",
"384 333 CURVE SMOOTH",
"384 340 OFFCURVE",
"382 345 OFFCURVE",
"371 345 CURVE SMOOTH",
"360 345 OFFCURVE",
"346 348 OFFCURVE",
"322 348 CURVE SMOOTH",
"298 348 OFFCURVE",
"253 344 OFFCURVE",
"216 344 CURVE SMOOTH",
"188 344 OFFCURVE",
"163 344 OFFCURVE",
"146 345 CURVE SMOOTH",
"136 345 OFFCURVE",
"127 345 OFFCURVE",
"119 346 CURVE",
"118 357 OFFCURVE",
"118 367 OFFCURVE",
"118 378 CURVE SMOOTH",
"118 437 LINE SMOOTH",
"118 472 OFFCURVE",
"121 517 OFFCURVE",
"121 533 CURVE SMOOTH",
"121 548 OFFCURVE",
"120 553 OFFCURVE",
"131 553 CURVE SMOOTH",
"137 553 OFFCURVE",
"160 552 OFFCURVE",
"184 552 CURVE SMOOTH",
"203 552 OFFCURVE",
"222 553 OFFCURVE",
"237 554 CURVE SMOOTH",
"246 555 OFFCURVE",
"255 555 OFFCURVE",
"264 555 CURVE SMOOTH",
"289 555 OFFCURVE",
"315 553 OFFCURVE",
"340 553 CURVE SMOOTH",
"382 553 OFFCURVE",
"412 553 OFFCURVE",
"427 550 CURVE SMOOTH",
"433 549 OFFCURVE",
"442 545 OFFCURVE",
"449 545 CURVE SMOOTH",
"456 545 OFFCURVE",
"462 548 OFFCURVE",
"463 560 CURVE",
"466 577 OFFCURVE",
"466 588 OFFCURVE",
"466 597 CURVE SMOOTH",
"466 628 OFFCURVE",
"462 652 OFFCURVE",
"462 673 CURVE SMOOTH",
"462 692 OFFCURVE",
"460 701 OFFCURVE",
"441 701 CURVE SMOOTH",
"422 701 OFFCURVE",
"371 705 OFFCURVE",
"330 705 CURVE SMOOTH",
"291 705 OFFCURVE",
"223 696 OFFCURVE",
"180 696 CURVE SMOOTH",
"135 696 OFFCURVE",
"117 699 OFFCURVE",
"102 699 CURVE SMOOTH",
"97 699 OFFCURVE",
"92 700 OFFCURVE",
"87 700 CURVE SMOOTH",
"76 700 OFFCURVE",
"68 697 OFFCURVE",
"68 678 CURVE SMOOTH",
"67 650 OFFCURVE",
"65 591 OFFCURVE",
"65 531 CURVE SMOOTH",
"65 471 OFFCURVE",
"70 464 OFFCURVE",
"70 387 CURVE SMOOTH",
"70 310 OFFCURVE",
"63 292 OFFCURVE",
"63 232 CURVE",
"63 95 LINE SMOOTH",
"63 74 OFFCURVE",
"65 64 OFFCURVE",
"65 52 CURVE SMOOTH",
"65 40 OFFCURVE",
"65 26 OFFCURVE",
"66 15 CURVE SMOOTH",
"66 6 OFFCURVE",
"65 -2 OFFCURVE",
"74 -2 CURVE SMOOTH"
);
}
);
width = 514;
}
);
unicode = 0045;
},
{
glyphname = F;
layers = (
{
color = -1;
layerId = "FC508690-ADF2-4DBF-B34D-60B2640A846D";
paths = (
{
closed = 1;
nodes = (
"229 2 OFFCURVE",
"237 7 OFFCURVE",
"237 25 CURVE SMOOTH",
"236 143 LINE SMOOTH",
"236 178 OFFCURVE",
"239 206 OFFCURVE",
"239 241 CURVE SMOOTH",
"239 258 OFFCURVE",
"238 283 OFFCURVE",
"238 304 CURVE",
"237 316 OFFCURVE",
"237 329 OFFCURVE",
"237 342 CURVE",
"330 342 LINE SMOOTH",
"353 342 OFFCURVE",
"383 340 OFFCURVE",
"400 340 CURVE SMOOTH",
"419 340 OFFCURVE",
"423 343 OFFCURVE",
"423 354 CURVE SMOOTH",
"423 365 OFFCURVE",
"424 376 OFFCURVE",
"424 387 CURVE SMOOTH",
"424 398 OFFCURVE",
"420 404 OFFCURVE",
"397 404 CURVE SMOOTH",
"374 404 OFFCURVE",
"341 402 OFFCURVE",
"318 402 CURVE SMOOTH",
"306 402 OFFCURVE",
"287 401 OFFCURVE",
"270 401 CURVE",
"260 400 OFFCURVE",
"250 400 OFFCURVE",
"239 400 CURVE",
"239 424 LINE SMOOTH",
"239 439 OFFCURVE",
"240 456 OFFCURVE",
"240 475 CURVE SMOOTH",
"240 511 OFFCURVE",
"241 541 OFFCURVE",
"241 564 CURVE SMOOTH",
"241 575 OFFCURVE",
"242 588 OFFCURVE",
"243 599 CURVE SMOOTH",
"246 617 LINE",
"295 620 LINE",
"322 623 OFFCURVE",
"352 624 OFFCURVE",
"369 624 CURVE SMOOTH",
"404 624 OFFCURVE",
"444 622 OFFCURVE",
"456 622 CURVE SMOOTH",
"468 622 OFFCURVE",
"474 621 OFFCURVE",
"474 634 CURVE SMOOTH",
"474 684 LINE SMOOTH",
"474 694 OFFCURVE",
"466 699 OFFCURVE",
"451 699 CURVE SMOOTH",
"367 700 LINE SMOOTH",
"346 700 OFFCURVE",
"275 694 OFFCURVE",
"254 694 CURVE SMOOTH",
"234 694 OFFCURVE",
"138 690 OFFCURVE",
"114 690 CURVE SMOOTH",
"103 690 OFFCURVE",
"94 692 OFFCURVE",
"86 692 CURVE SMOOTH",
"75 692 OFFCURVE",
"68 687 OFFCURVE",
"68 662 CURVE SMOOTH",
"69 621 OFFCURVE",
"70 571 OFFCURVE",
"70 524 CURVE SMOOTH",
"70 477 OFFCURVE",
"67 432 OFFCURVE",
"67 388 CURVE SMOOTH",
"67 344 OFFCURVE",
"68 317 OFFCURVE",
"68 274 CURVE SMOOTH",
"68 231 OFFCURVE",
"62 212 OFFCURVE",
"62 169 CURVE SMOOTH",
"62 126 OFFCURVE",
"64 92 OFFCURVE",
"64 77 CURVE SMOOTH",
"65 24 LINE SMOOTH",
"65 12 OFFCURVE",
"62 5 OFFCURVE",
"81 4 CURVE SMOOTH",
"92 4 OFFCURVE",
"125 5 OFFCURVE",
"154 5 CURVE SMOOTH",
"168 5 OFFCURVE",
"182 5 OFFCURVE",
"191 4 CURVE SMOOTH",
"200 3 OFFCURVE",
"208 2 OFFCURVE",
"214 2 CURVE SMOOTH"
);
}
);
width = 476;
}
);
rightKerningGroup = F;
unicode = 0046;
},
{
glyphname = G;
layers = (
{
anchors = (
{
name = bottom;
position = "{317, 0}";
},
{
name = top;
position = "{324, 710}";
}
);
color = -1;
layerId = "FC508690-ADF2-4DBF-B34D-60B2640A846D";
paths = (
{
closed = 1;
nodes = (
"401 -14 OFFCURVE",
"541 42 OFFCURVE",
"557 311 CURVE",
"558 317 OFFCURVE",
"557 323 OFFCURVE",
"556 328 CURVE SMOOTH",
"553 337 OFFCURVE",
"548 345 OFFCURVE",
"533 346 CURVE SMOOTH",
"502 347 OFFCURVE",
"446 358 OFFCURVE",
"403 363 CURVE SMOOTH",
"363 367 OFFCURVE",
"330 372 OFFCURVE",
"321 373 CURVE SMOOTH",
"310 374 OFFCURVE",
"303 376 OFFCURVE",
"296 352 CURVE SMOOTH",
"291 332 OFFCURVE",
"288 322 OFFCURVE",
"288 313 CURVE SMOOTH",
"288 307 OFFCURVE",
"290 301 OFFCURVE",
"307 299 CURVE SMOOTH",
"318 298 OFFCURVE",
"330 296 OFFCURVE",
"342 294 CURVE",
"362 290 LINE",
"362 271 OFFCURVE",
"360 255 OFFCURVE",
"355 240 CURVE SMOOTH",
"347 215 OFFCURVE",
"331 190 OFFCURVE",
"299 190 CURVE SMOOTH",
"232 190 OFFCURVE",
"236 286 OFFCURVE",
"236 342 CURVE SMOOTH",
"236 400 OFFCURVE",
"256 486 OFFCURVE",
"300 486 CURVE SMOOTH",
"325 486 OFFCURVE",
"335 461 OFFCURVE",
"342 452 CURVE SMOOTH",
"348 445 OFFCURVE",
"349 434 OFFCURVE",
"357 434 CURVE SMOOTH",
"360 434 OFFCURVE",
"362 435 OFFCURVE",
"365 436 CURVE SMOOTH",
"368 436 OFFCURVE",
"370 437 OFFCURVE",
"373 439 CURVE SMOOTH",
"378 442 OFFCURVE",
"384 445 OFFCURVE",
"392 452 CURVE",
"409 463 OFFCURVE",
"428 477 OFFCURVE",
"447 488 CURVE",
"467 497 OFFCURVE",
"503 517 OFFCURVE",
"519 525 CURVE SMOOTH",
"532 532 OFFCURVE",
"537 532 OFFCURVE",
"537 538 CURVE SMOOTH",
"537 539 OFFCURVE",
"537 541 OFFCURVE",
"536 543 CURVE SMOOTH",
"532 552 OFFCURVE",
"526 572 OFFCURVE",
"521 583 CURVE SMOOTH",
"516 593 OFFCURVE",
"460 719 OFFCURVE",
"311 719 CURVE SMOOTH",
"239 719 OFFCURVE",
"41 685 OFFCURVE",
"41 338 CURVE SMOOTH",
"41 37 OFFCURVE",
"253 -14 OFFCURVE",
"316 -14 CURVE SMOOTH"
);
}
);
width = 592;
}
);
leftKerningGroup = O;
unicode = 0047;
},
{
glyphname = H;
layers = (
{
anchors = (
{
name = bottom;
position = "{377, 0}";
},
{
name = top;
position = "{387, 710}";
}
);
color = -1;
layerId = "FC508690-ADF2-4DBF-B34D-60B2640A846D";
paths = (
{
closed = 1;
nodes = (
"117 5 OFFCURVE",
"150 6 OFFCURVE",
"169 5 CURVE SMOOTH",
"184 5 OFFCURVE",
"204 1 OFFCURVE",
"204 25 CURVE SMOOTH",
"204 29 OFFCURVE",
"203 34 OFFCURVE",
"202 40 CURVE SMOOTH",
"198 60 OFFCURVE",
"197 102 OFFCURVE",
"197 144 CURVE SMOOTH",
"197 186 OFFCURVE",
"198 229 OFFCURVE",
"198 252 CURVE SMOOTH",
"198 275 OFFCURVE",
"199 297 OFFCURVE",
"200 313 CURVE SMOOTH",
"201 322 OFFCURVE",
"201 331 OFFCURVE",
"201 339 CURVE",
"222 338 OFFCURVE",
"241 338 OFFCURVE",
"260 338 CURVE SMOOTH",
"354 338 LINE SMOOTH",
"377 338 OFFCURVE",
"427 338 OFFCURVE",
"470 339 CURVE SMOOTH",
"551 341 LINE",
"551 267 LINE SMOOTH",
"551 227 OFFCURVE",
"550 181 OFFCURVE",
"551 160 CURVE",
"551 106 OFFCURVE",
"550 -13 OFFCURVE",
"550 14 CURVE SMOOTH",
"550 9 OFFCURVE",
"551 4 OFFCURVE",
"558 4 CURVE SMOOTH",
"569 4 OFFCURVE",
"589 5 OFFCURVE",
"594 6 CURVE SMOOTH",
"598 7 OFFCURVE",
"604 5 OFFCURVE",
"604 13 CURVE SMOOTH",
"604 14 OFFCURVE",
"604 16 OFFCURVE",
"603 19 CURVE SMOOTH",
"602 26 OFFCURVE",
"601 36 OFFCURVE",
"601 48 CURVE SMOOTH",
"601 62 OFFCURVE",
"602 78 OFFCURVE",
"602 88 CURVE SMOOTH",
"602 106 OFFCURVE",
"608 255 OFFCURVE",
"608 300 CURVE SMOOTH",
"608 344 OFFCURVE",
"611 558 OFFCURVE",
"615 603 CURVE SMOOTH",
"619 648 OFFCURVE",
"623 678 OFFCURVE",
"624 689 CURVE",
"625 692 OFFCURVE",
"626 695 OFFCURVE",
"626 697 CURVE SMOOTH",
"626 702 OFFCURVE",
"623 705 OFFCURVE",
"616 707 CURVE SMOOTH",
"611 709 OFFCURVE",
"604 709 OFFCURVE",
"599 709 CURVE SMOOTH",
"593 709 OFFCURVE",
"588 709 OFFCURVE",
"584 710 CURVE SMOOTH",
"581 710 OFFCURVE",
"577 711 OFFCURVE",
"573 711 CURVE SMOOTH",
"568 711 OFFCURVE",
"563 710 OFFCURVE",
"562 702 CURVE",
"562 689 OFFCURVE",
"556 510 OFFCURVE",
"556 476 CURVE SMOOTH",
"556 459 OFFCURVE",
"557 438 OFFCURVE",
"557 421 CURVE SMOOTH",
"557 391 LINE",
"531 390 OFFCURVE",
"506 390 OFFCURVE",
"482 390 CURVE SMOOTH",
"441 389 OFFCURVE",
"392 389 OFFCURVE",
"363 389 CURVE SMOOTH",
"334 389 OFFCURVE",
"294 391 OFFCURVE",
"259 392 CURVE",
"199 394 LINE",
"202 453 LINE",
"206 552 LINE SMOOTH",
"209 607 OFFCURVE",
"210 659 OFFCURVE",
"210 671 CURVE SMOOTH",
"210 683 OFFCURVE",
"214 701 OFFCURVE",
"195 701 CURVE SMOOTH",
"181 701 OFFCURVE",
"164 703 OFFCURVE",
"147 703 CURVE SMOOTH",
"141 703 OFFCURVE",
"135 703 OFFCURVE",
"130 702 CURVE SMOOTH",
"121 701 OFFCURVE",
"114 700 OFFCURVE",
"107 700 CURVE SMOOTH",
"99 700 OFFCURVE",
"92 701 OFFCURVE",
"85 701 CURVE SMOOTH",
"75 701 OFFCURVE",
"66 700 OFFCURVE",
"66 670 CURVE SMOOTH",
"66 645 OFFCURVE",
"64 475 OFFCURVE",
"64 411 CURVE SMOOTH",
"64 350 OFFCURVE",
"66 106 OFFCURVE",
"66 65 CURVE SMOOTH",
"66 22 OFFCURVE",
"61 -1 OFFCURVE",
"89 2 CURVE SMOOTH"
);
}
);
width = 682;
}
);
unicode = 0048;
},
{
glyphname = I;
layers = (
{
anchors = (
{
name = bottom;
position = "{75, 0}";
},
{
name = ogonek;
position = "{100, -3}";
},
{
name = top;
position = "{98, 710}";
},
{
name = topleft;
position = "{20, 710}";
}
);
color = -1;
layerId = "FC508690-ADF2-4DBF-B34D-60B2640A846D";
paths = (
{
closed = 1;
nodes = (
"81 -7 OFFCURVE",
"94 -7 OFFCURVE",
"100 -3 CURVE SMOOTH",
"106 0 OFFCURVE",
"110 2 OFFCURVE",
"110 13 CURVE SMOOTH",
"110 17 OFFCURVE",
"110 21 OFFCURVE",
"109 27 CURVE SMOOTH",
"106 52 OFFCURVE",
"103 227 OFFCURVE",
"103 279 CURVE SMOOTH",
"103 330 OFFCURVE",
"111 501 OFFCURVE",
"111 555 CURVE SMOOTH",
"112 610 OFFCURVE",
"113 648 OFFCURVE",
"116 668 CURVE",
"116 676 OFFCURVE",
"118 685 OFFCURVE",
"118 692 CURVE SMOOTH",
"118 700 OFFCURVE",
"116 706 OFFCURVE",
"108 706 CURVE SMOOTH",
"93 706 OFFCURVE",
"78 707 OFFCURVE",
"71 707 CURVE SMOOTH",
"58 707 OFFCURVE",
"55 695 OFFCURVE",
"55 681 CURVE SMOOTH",
"55 674 OFFCURVE",
"56 667 OFFCURVE",
"56 660 CURVE",
"59 636 OFFCURVE",
"49 442 OFFCURVE",
"49 376 CURVE SMOOTH",
"49 310 OFFCURVE",
"45 73 OFFCURVE",
"45 35 CURVE SMOOTH",
"45 -11 OFFCURVE",
"36 -7 OFFCURVE",
"69 -7 CURVE SMOOTH"
);
}
);
width = 153;
}
);
unicode = 0049;
},
{
glyphname = IJ;
layers = (
{
color = -1;
layerId = "FC508690-ADF2-4DBF-B34D-60B2640A846D";
paths = (
{
closed = 1;
nodes = (
"643 -7 OFFCURVE",
"605 331 OFFCURVE",
"609 374 CURVE",
"611 680 LINE",
"612 707 OFFCURVE",
"610 712 OFFCURVE",
"587 713 CURVE",
"582 714 OFFCURVE",
"576 714 OFFCURVE",
"571 714 CURVE SMOOTH",
"554 714 OFFCURVE",
"540 711 OFFCURVE",
"528 710 CURVE",
"515 710 OFFCURVE",
"500 709 OFFCURVE",
"503 672 CURVE",
"503 649 OFFCURVE",
"502 611 OFFCURVE",
"502 575 CURVE SMOOTH",
"502 549 OFFCURVE",
"503 524 OFFCURVE",
"504 509 CURVE",
"504 474 OFFCURVE",
"501 278 OFFCURVE",
"501 233 CURVE SMOOTH",
"501 188 OFFCURVE",
"475 103 OFFCURVE",
"388 103 CURVE SMOOTH",
"324 103 OFFCURVE",
"274 142 OFFCURVE",
"274 345 CURVE SMOOTH",
"274 366 OFFCURVE",
"289 403 OFFCURVE",
"260 400 CURVE SMOOTH",
"231 396 OFFCURVE",
"210 393 OFFCURVE",
"198 393 CURVE",
"187 394 OFFCURVE",
"183 395 OFFCURVE",
"183 376 CURVE SMOOTH",
"183 357 OFFCURVE",
"181 287 OFFCURVE",
"181 247 CURVE SMOOTH",
"181 205 OFFCURVE",
"199 -7 OFFCURVE",
"420 -7 CURVE SMOOTH"
);
},
{
closed = 1;
nodes = (
"81 -7 OFFCURVE",
"94 -7 OFFCURVE",
"100 -3 CURVE SMOOTH",
"106 0 OFFCURVE",
"110 2 OFFCURVE",
"110 13 CURVE SMOOTH",
"110 17 OFFCURVE",
"110 21 OFFCURVE",
"109 27 CURVE SMOOTH",
"106 52 OFFCURVE",
"103 227 OFFCURVE",
"103 279 CURVE SMOOTH",
"103 330 OFFCURVE",
"111 501 OFFCURVE",
"111 555 CURVE SMOOTH",
"112 610 OFFCURVE",
"113 648 OFFCURVE",
"116 668 CURVE",
"116 676 OFFCURVE",
"118 685 OFFCURVE",
"118 692 CURVE SMOOTH",
"118 700 OFFCURVE",
"116 706 OFFCURVE",
"108 706 CURVE SMOOTH",
"93 706 OFFCURVE",
"78 707 OFFCURVE",
"71 707 CURVE SMOOTH",
"58 707 OFFCURVE",
"55 695 OFFCURVE",
"55 681 CURVE SMOOTH",
"55 674 OFFCURVE",
"56 667 OFFCURVE",
"56 660 CURVE",
"59 636 OFFCURVE",
"49 442 OFFCURVE",
"49 376 CURVE SMOOTH",
"49 310 OFFCURVE",
"45 73 OFFCURVE",
"45 35 CURVE SMOOTH",
"45 -11 OFFCURVE",
"36 -7 OFFCURVE",
"69 -7 CURVE SMOOTH"
);
}
);
width = 682;
}
);
unicode = 0132;
},
{
glyphname = Idotbelow;
layers = (
{
color = -1;
components = (
{
name = dotbelow;
transform = "{1, 0, 0, 1, -19, 0}";
}
);
layerId = "FC508690-ADF2-4DBF-B34D-60B2640A846D";
paths = (
{
closed = 1;
nodes = (
"81 13 OFFCURVE",
"94 13 OFFCURVE",
"100 17 CURVE SMOOTH",
"106 21 OFFCURVE",
"110 22 OFFCURVE",
"110 33 CURVE SMOOTH",
"110 37 OFFCURVE",
"110 41 OFFCURVE",
"109 47 CURVE SMOOTH",
"105 72 OFFCURVE",
"103 227 OFFCURVE",
"103 279 CURVE SMOOTH",
"103 330 OFFCURVE",
"111 501 OFFCURVE",
"111 555 CURVE SMOOTH",
"112 610 OFFCURVE",
"113 648 OFFCURVE",
"116 668 CURVE",
"116 676 OFFCURVE",
"118 685 OFFCURVE",
"118 692 CURVE SMOOTH",
"118 700 OFFCURVE",
"116 706 OFFCURVE",
"108 706 CURVE SMOOTH",
"93 706 OFFCURVE",
"78 707 OFFCURVE",
"71 707 CURVE SMOOTH",
"58 707 OFFCURVE",
"55 695 OFFCURVE",
"55 681 CURVE SMOOTH",
"55 674 OFFCURVE",
"56 667 OFFCURVE",
"56 660 CURVE",
"59 636 OFFCURVE",
"49 442 OFFCURVE",
"49 376 CURVE SMOOTH",
"49 310 OFFCURVE",
"45 93 OFFCURVE",
"45 55 CURVE SMOOTH",
"45 9 OFFCURVE",
"36 13 OFFCURVE",
"69 13 CURVE SMOOTH"
);
}
);
width = 153;
}
);
unicode = 1ECA;
},
{
glyphname = J;
layers = (
{
anchors = (
{
name = bottom;
position = "{375, 0}";
},
{
name = top;
position = "{391, 710}";
}
);
color = -1;
layerId = "FC508690-ADF2-4DBF-B34D-60B2640A846D";
paths = (
{
closed = 1;
nodes = (
"467 -7 OFFCURVE",
"429 331 OFFCURVE",
"433 374 CURVE",
"435 680 LINE",
"436 707 OFFCURVE",
"434 712 OFFCURVE",
"411 713 CURVE",
"406 714 OFFCURVE",
"400 714 OFFCURVE",
"395 714 CURVE SMOOTH",
"378 714 OFFCURVE",
"364 711 OFFCURVE",
"352 710 CURVE",
"339 710 OFFCURVE",
"324 709 OFFCURVE",
"327 672 CURVE",
"327 649 OFFCURVE",
"326 611 OFFCURVE",
"326 575 CURVE SMOOTH",
"326 549 OFFCURVE",
"327 524 OFFCURVE",
"328 509 CURVE",
"328 474 OFFCURVE",
"325 278 OFFCURVE",
"325 233 CURVE SMOOTH",
"325 188 OFFCURVE",
"299 103 OFFCURVE",
"212 103 CURVE SMOOTH",
"148 103 OFFCURVE",
"98 142 OFFCURVE",
"98 345 CURVE SMOOTH",
"98 366 OFFCURVE",
"113 403 OFFCURVE",
"84 400 CURVE SMOOTH",
"55 396 OFFCURVE",
"34 393 OFFCURVE",
"22 393 CURVE",
"11 394 OFFCURVE",
"7 395 OFFCURVE",
"7 376 CURVE SMOOTH",
"7 357 OFFCURVE",
"5 287 OFFCURVE",
"5 247 CURVE SMOOTH",
"5 205 OFFCURVE",
"23 -7 OFFCURVE",
"244 -7 CURVE SMOOTH"
);
}
);
width = 491;
}
);
leftKerningGroup = J;
unicode = 004A;
},
{
glyphname = K;
layers = (
{
anchors = (
{
name = bottom;
position = "{307, 0}";
},
{
name = top;
position = "{326, 710}";
}
);
color = -1;
layerId = "FC508690-ADF2-4DBF-B34D-60B2640A846D";
paths = (
{
closed = 1;
nodes = (
"446 -4 OFFCURVE",
"544 -1 OFFCURVE",
"557 -1 CURVE SMOOTH",
"567 -1 OFFCURVE",
"574 2 OFFCURVE",
"574 7 CURVE SMOOTH",
"574 10 OFFCURVE",
"573 12 OFFCURVE",
"571 15 CURVE SMOOTH",
"562 24 OFFCURVE",
"516 85 OFFCURVE",
"497 101 CURVE SMOOTH",
"478 117 OFFCURVE",
"390 228 OFFCURVE",
"366 252 CURVE SMOOTH",
"354 264 OFFCURVE",
"332 288 OFFCURVE",
"313 311 CURVE SMOOTH",
"302 324 OFFCURVE",
"290 337 OFFCURVE",
"278 352 CURVE",
"332 408 LINE SMOOTH",
"360 437 OFFCURVE",
"388 468 OFFCURVE",
"395 476 CURVE",
"405 491 OFFCURVE",
"496 603 OFFCURVE",
"511 616 CURVE SMOOTH",
"527 629 OFFCURVE",
"569 673 OFFCURVE",
"574 678 CURVE SMOOTH",
"576 680 OFFCURVE",
"579 684 OFFCURVE",
"579 687 CURVE SMOOTH",
"579 690 OFFCURVE",
"577 693 OFFCURVE",
"572 694 CURVE SMOOTH",
"563 695 OFFCURVE",
"551 694 OFFCURVE",
"544 694 CURVE SMOOTH",
"537 693 OFFCURVE",
"531 689 OFFCURVE",
"523 677 CURVE SMOOTH",
"516 665 OFFCURVE",
"456 602 OFFCURVE",
"429 572 CURVE",
"401 544 OFFCURVE",
"347 486 OFFCURVE",
"336 470 CURVE",
"322 454 OFFCURVE",
"260 386 OFFCURVE",
"242 370 CURVE SMOOTH",
"233 361 OFFCURVE",
"222 351 OFFCURVE",
"213 340 CURVE SMOOTH",
"197 323 LINE",
"195 357 LINE SMOOTH",
"195 367 OFFCURVE",
"194 378 OFFCURVE",
"194 390 CURVE SMOOTH",
"194 402 OFFCURVE",
"195 414 OFFCURVE",
"196 425 CURVE SMOOTH",
"200 457 OFFCURVE",
"200 527 OFFCURVE",
"200 574 CURVE SMOOTH",
"200 593 OFFCURVE",
"200 608 OFFCURVE",
"200 615 CURVE SMOOTH",
"199 643 OFFCURVE",
"200 662 OFFCURVE",
"200 674 CURVE SMOOTH",
"200 684 OFFCURVE",
"203 694 OFFCURVE",
"187 694 CURVE SMOOTH",
"186 694 OFFCURVE",
"183 694 OFFCURVE",
"181 694 CURVE SMOOTH",
"158 693 OFFCURVE",
"130 695 OFFCURVE",
"107 695 CURVE SMOOTH",
"101 695 OFFCURVE",
"93 698 OFFCURVE",
"87 698 CURVE SMOOTH",
"82 698 OFFCURVE",
"77 696 OFFCURVE",
"76 688 CURVE",
"73 676 OFFCURVE",
"71 628 OFFCURVE",
"71 590 CURVE SMOOTH",
"71 572 OFFCURVE",
"71 556 OFFCURVE",
"72 548 CURVE SMOOTH",
"73 539 OFFCURVE",
"73 521 OFFCURVE",
"73 501 CURVE SMOOTH",
"73 464 OFFCURVE",
"72 419 OFFCURVE",
"70 401 CURVE SMOOTH",
"66 374 OFFCURVE",
"61 111 OFFCURVE",
"61 88 CURVE SMOOTH",
"61 65 OFFCURVE",
"69 34 OFFCURVE",
"66 22 CURVE SMOOTH",
"64 16 OFFCURVE",
"62 10 OFFCURVE",
"62 7 CURVE SMOOTH",
"62 3 OFFCURVE",
"64 1 OFFCURVE",
"69 1 CURVE",
"71 0 OFFCURVE",
"76 0 OFFCURVE",
"81 0 CURVE SMOOTH",
"100 0 OFFCURVE",
"131 3 OFFCURVE",
"143 3 CURVE",
"183 3 LINE SMOOTH",
"190 3 OFFCURVE",
"197 3 OFFCURVE",
"197 13 CURVE SMOOTH",
"197 15 OFFCURVE",
"197 17 OFFCURVE",
"196 20 CURVE SMOOTH",
"194 27 OFFCURVE",
"193 47 OFFCURVE",
"193 68 CURVE SMOOTH",
"193 94 OFFCURVE",
"194 123 OFFCURVE",
"194 137 CURVE SMOOTH",
"194 150 OFFCURVE",
"195 178 OFFCURVE",
"196 201 CURVE SMOOTH",
"197 214 OFFCURVE",
"197 229 OFFCURVE",
"197 244 CURVE",
"233 203 LINE SMOOTH",
"252 180 OFFCURVE",
"274 155 OFFCURVE",
"286 144 CURVE",
"307 121 OFFCURVE",
"376 25 OFFCURVE",
"389 14 CURVE",
"402 1 OFFCURVE",
"411 -4 OFFCURVE",
"428 -4 CURVE SMOOTH"
);
}
);
width = 601;
}
);
unicode = 004B;
},
{
glyphname = L;
layers = (
{
anchors = (
{
name = bottom;
position = "{290, 0}";
},
{
name = top;
position = "{161, 710}";
}
);
color = -1;
layerId = "FC508690-ADF2-4DBF-B34D-60B2640A846D";
paths = (
{
closed = 1;
nodes = (
"107 -8 OFFCURVE",
"309 1 OFFCURVE",
"343 1 CURVE SMOOTH",
"378 1 OFFCURVE",
"478 -8 OFFCURVE",
"495 -8 CURVE SMOOTH",
"511 -8 OFFCURVE",
"524 -11 OFFCURVE",
"524 2 CURVE SMOOTH",
"524 14 OFFCURVE",
"521 30 OFFCURVE",
"522 37 CURVE SMOOTH",
"522 44 OFFCURVE",
"526 50 OFFCURVE",
"515 50 CURVE SMOOTH",
"515 50 OFFCURVE",
"514 50 OFFCURVE",
"513 50 CURVE",
"394 51 LINE",
"251 56 LINE",
"249 91 LINE SMOOTH",
"249 101 OFFCURVE",
"248 110 OFFCURVE",
"248 119 CURVE SMOOTH",
"248 127 OFFCURVE",
"249 135 OFFCURVE",
"249 139 CURVE SMOOTH",
"249 156 OFFCURVE",
"251 230 OFFCURVE",
"251 248 CURVE SMOOTH",
"251 267 OFFCURVE",
"248 429 OFFCURVE",
"248 473 CURVE SMOOTH",
"248 517 OFFCURVE",
"254 633 OFFCURVE",
"254 650 CURVE SMOOTH",
"254 674 OFFCURVE",
"270 701 OFFCURVE",
"230 696 CURVE SMOOTH",
"214 694 OFFCURVE",
"197 693 OFFCURVE",
"179 693 CURVE SMOOTH",
"152 693 OFFCURVE",
"126 695 OFFCURVE",
"112 697 CURVE",
"99 697 OFFCURVE",
"86 703 OFFCURVE",
"76 703 CURVE SMOOTH",
"68 703 OFFCURVE",
"63 699 OFFCURVE",
"63 686 CURVE SMOOTH",
"63 658 OFFCURVE",
"72 457 OFFCURVE",
"72 425 CURVE SMOOTH",
"72 393 OFFCURVE",
"68 126 OFFCURVE",
"68 90 CURVE SMOOTH",
"68 49 OFFCURVE",
"68 20 OFFCURVE",
"68 12 CURVE SMOOTH",
"68 2 OFFCURVE",
"73 -8 OFFCURVE",
"90 -8 CURVE SMOOTH"
);
}
);
width = 524;
}
);
rightKerningGroup = L;
unicode = 004C;
},
{
glyphname = LJ;
layers = (
{
color = -1;
layerId = "FC508690-ADF2-4DBF-B34D-60B2640A846D";
paths = (
{
closed = 1;
nodes = (
"107 -8 OFFCURVE",
"309 1 OFFCURVE",
"343 1 CURVE SMOOTH",
"378 1 OFFCURVE",
"478 -8 OFFCURVE",
"495 -8 CURVE SMOOTH",
"511 -8 OFFCURVE",
"524 -11 OFFCURVE",
"524 2 CURVE SMOOTH",
"524 14 OFFCURVE",
"521 30 OFFCURVE",
"522 37 CURVE SMOOTH",
"522 44 OFFCURVE",
"526 50 OFFCURVE",
"515 50 CURVE SMOOTH",
"515 50 OFFCURVE",
"514 50 OFFCURVE",
"513 50 CURVE",
"394 51 LINE",
"251 56 LINE",
"249 91 LINE SMOOTH",
"249 101 OFFCURVE",
"248 110 OFFCURVE",
"248 119 CURVE SMOOTH",
"248 127 OFFCURVE",
"249 135 OFFCURVE",
"249 139 CURVE SMOOTH",
"249 156 OFFCURVE",
"251 230 OFFCURVE",
"251 248 CURVE SMOOTH",
"251 267 OFFCURVE",
"248 429 OFFCURVE",
"248 473 CURVE SMOOTH",
"248 517 OFFCURVE",
"254 633 OFFCURVE",
"254 650 CURVE SMOOTH",
"254 674 OFFCURVE",
"270 701 OFFCURVE",
"230 696 CURVE SMOOTH",
"214 694 OFFCURVE",
"197 693 OFFCURVE",
"179 693 CURVE SMOOTH",
"152 693 OFFCURVE",
"126 695 OFFCURVE",
"112 697 CURVE",
"99 697 OFFCURVE",
"86 703 OFFCURVE",
"76 703 CURVE SMOOTH",
"68 703 OFFCURVE",
"63 699 OFFCURVE",
"63 686 CURVE SMOOTH",
"63 658 OFFCURVE",
"72 457 OFFCURVE",
"72 425 CURVE SMOOTH",
"72 393 OFFCURVE",
"68 126 OFFCURVE",
"68 90 CURVE SMOOTH",
"68 49 OFFCURVE",
"68 20 OFFCURVE",
"68 12 CURVE SMOOTH",
"68 2 OFFCURVE",
"73 -8 OFFCURVE",
"90 -8 CURVE SMOOTH"
);
},
{
closed = 1;
nodes = (
"991 -7 OFFCURVE",
"953 331 OFFCURVE",
"957 374 CURVE",
"959 680 LINE",
"960 707 OFFCURVE",
"958 712 OFFCURVE",
"935 713 CURVE",
"930 714 OFFCURVE",
"924 714 OFFCURVE",
"919 714 CURVE SMOOTH",
"902 714 OFFCURVE",
"888 711 OFFCURVE",
"876 710 CURVE",
"863 710 OFFCURVE",
"848 709 OFFCURVE",
"851 672 CURVE",
"851 649 OFFCURVE",
"850 611 OFFCURVE",
"850 575 CURVE SMOOTH",
"850 549 OFFCURVE",
"851 524 OFFCURVE",
"852 509 CURVE",
"852 474 OFFCURVE",
"849 278 OFFCURVE",
"849 233 CURVE SMOOTH",
"849 188 OFFCURVE",
"823 103 OFFCURVE",
"736 103 CURVE SMOOTH",
"672 103 OFFCURVE",
"622 142 OFFCURVE",
"622 345 CURVE SMOOTH",
"622 366 OFFCURVE",
"637 403 OFFCURVE",
"608 400 CURVE SMOOTH",
"579 396 OFFCURVE",
"558 393 OFFCURVE",
"546 393 CURVE",
"535 394 OFFCURVE",
"531 395 OFFCURVE",
"531 376 CURVE SMOOTH",
"531 357 OFFCURVE",
"529 287 OFFCURVE",
"529 247 CURVE SMOOTH",
"529 205 OFFCURVE",
"547 -7 OFFCURVE",
"768 -7 CURVE SMOOTH"
);
}
);
width = 1015;
}
);
unicode = 01C7;
},
{
glyphname = Ldot;
layers = (
{
color = -1;
components = (
{
name = L;
}
);
layerId = "FC508690-ADF2-4DBF-B34D-60B2640A846D";
paths = (
{
closed = 1;
nodes = (
"422 306 OFFCURVE",
"461 332 OFFCURVE",
"461 365 CURVE SMOOTH",
"461 397 OFFCURVE",
"455 454 OFFCURVE",
"385 454 CURVE SMOOTH",
"352 454 OFFCURVE",
"313 445 OFFCURVE",
"313 386 CURVE SMOOTH",
"313 331 OFFCURVE",
"349 306 OFFCURVE",
"385 306 CURVE SMOOTH"
);
}
);
width = 524;
}
);
unicode = 013F;
},
{
glyphname = Lslash;
layers = (
{
color = -1;
layerId = "FC508690-ADF2-4DBF-B34D-60B2640A846D";
paths = (
{
closed = 1;
nodes = (
"119 -8 OFFCURVE",
"321 1 OFFCURVE",
"355 1 CURVE SMOOTH",
"390 1 OFFCURVE",
"490 -8 OFFCURVE",
"507 -8 CURVE SMOOTH",
"523 -8 OFFCURVE",
"536 -11 OFFCURVE",
"536 2 CURVE SMOOTH",
"536 14 OFFCURVE",
"533 30 OFFCURVE",
"534 37 CURVE SMOOTH",
"534 44 OFFCURVE",
"537 50 OFFCURVE",
"527 50 CURVE SMOOTH",
"527 50 OFFCURVE",
"526 50 OFFCURVE",
"525 50 CURVE",
"406 51 LINE",
"263 56 LINE",
"261 91 LINE SMOOTH",
"261 101 OFFCURVE",
"260 110 OFFCURVE",
"260 119 CURVE SMOOTH",
"260 127 OFFCURVE",
"261 135 OFFCURVE",
"261 139 CURVE SMOOTH",
"261 156 OFFCURVE",
"263 230 OFFCURVE",
"263 248 CURVE SMOOTH",
"261 362 LINE",
"291 375 LINE",
"346 399 LINE SMOOTH",
"358 405 OFFCURVE",
"362 411 OFFCURVE",
"362 419 CURVE SMOOTH",
"362 423 OFFCURVE",
"361 427 OFFCURVE",
"360 432 CURVE SMOOTH",
"346 483 LINE",
"342 491 OFFCURVE",
"337 494 OFFCURVE",
"331 494 CURVE SMOOTH",
"330 494 OFFCURVE",
"329 494 OFFCURVE",
"328 494 CURVE SMOOTH",
"319 493 OFFCURVE",
"304 478 OFFCURVE",
"285 470 CURVE SMOOTH",
"277 466 OFFCURVE",
"268 463 OFFCURVE",
"260 459 CURVE",
"260 473 LINE SMOOTH",
"260 517 OFFCURVE",
"266 633 OFFCURVE",
"266 650 CURVE SMOOTH",
"266 674 OFFCURVE",
"282 701 OFFCURVE",
"242 696 CURVE SMOOTH",
"226 694 OFFCURVE",
"209 693 OFFCURVE",
"191 693 CURVE SMOOTH",
"164 693 OFFCURVE",
"138 695 OFFCURVE",
"124 697 CURVE",
"111 697 OFFCURVE",
"98 703 OFFCURVE",
"88 703 CURVE SMOOTH",
"80 703 OFFCURVE",
"75 699 OFFCURVE",
"75 686 CURVE SMOOTH",
"75 658 OFFCURVE",
"84 457 OFFCURVE",
"84 425 CURVE SMOOTH",
"84 382 LINE",
"56 372 LINE SMOOTH",
"43 367 OFFCURVE",
"33 362 OFFCURVE",
"25 358 CURVE SMOOTH",
"-8 345 OFFCURVE",
"-14 334 OFFCURVE",
"-11 325 CURVE",
"17 273 LINE",
"23 264 OFFCURVE",
"29 261 OFFCURVE",
"35 261 CURVE SMOOTH",
"41 261 OFFCURVE",
"47 263 OFFCURVE",
"55 267 CURVE SMOOTH",
"82 280 LINE",
"80 90 LINE SMOOTH",
"80 49 OFFCURVE",
"80 20 OFFCURVE",
"80 12 CURVE SMOOTH",
"80 2 OFFCURVE",
"85 -8 OFFCURVE",
"102 -8 CURVE SMOOTH"
);
}
);
width = 536;
}
);
rightKerningGroup = L;
unicode = 0141;
},
{
glyphname = M;
layers = (
{
color = -1;
layerId = "FC508690-ADF2-4DBF-B34D-60B2640A846D";
paths = (
{
closed = 1;
nodes = (
"98 0 OFFCURVE",
"120 3 OFFCURVE",
"132 3 CURVE SMOOTH",
"147 3 OFFCURVE",
"160 -1 OFFCURVE",
"160 15 CURVE SMOOTH",
"161 171 LINE SMOOTH",
"161 206 OFFCURVE",
"163 337 OFFCURVE",
"163 368 CURVE SMOOTH",
"163 383 OFFCURVE",
"164 412 OFFCURVE",
"165 436 CURVE",
"167 480 LINE",
"172 465 OFFCURVE",
"178 450 OFFCURVE",
"184 436 CURVE SMOOTH",
"193 412 OFFCURVE",
"204 384 OFFCURVE",
"211 369 CURVE SMOOTH",
"224 339 OFFCURVE",
"290 225 OFFCURVE",
"300 196 CURVE SMOOTH",
"310 167 OFFCURVE",
"335 103 OFFCURVE",
"346 87 CURVE SMOOTH",
"355 72 OFFCURVE",
"359 64 OFFCURVE",
"363 64 CURVE SMOOTH",
"367 64 OFFCURVE",
"385 106 OFFCURVE",
"393 125 CURVE SMOOTH",
"401 144 OFFCURVE",
"468 283 OFFCURVE",
"481 307 CURVE SMOOTH",
"494 331 OFFCURVE",
"557 458 OFFCURVE",
"568 480 CURVE SMOOTH",
"573 491 OFFCURVE",
"580 505 OFFCURVE",
"587 517 CURVE SMOOTH",
"590 524 OFFCURVE",
"594 531 OFFCURVE",
"599 538 CURVE",
"597 466 LINE SMOOTH",
"596 427 OFFCURVE",
"594 389 OFFCURVE",
"595 374 CURVE",
"595 345 OFFCURVE",
"591 234 OFFCURVE",
"588 204 CURVE SMOOTH",
"584 167 OFFCURVE",
"586 -19 OFFCURVE",
"586 25 CURVE SMOOTH",
"586 13 OFFCURVE",
"587 7 OFFCURVE",
"593 6 CURVE",
"601 6 OFFCURVE",
"612 8 OFFCURVE",
"618 8 CURVE SMOOTH",
"619 8 OFFCURVE",
"619 8 OFFCURVE",
"620 8 CURVE SMOOTH",
"623 7 OFFCURVE",
"626 8 OFFCURVE",
"626 18 CURVE SMOOTH",
"626 19 OFFCURVE",
"626 21 OFFCURVE",
"626 23 CURVE SMOOTH",
"626 31 OFFCURVE",
"625 77 OFFCURVE",
"625 120 CURVE SMOOTH",
"625 152 OFFCURVE",
"626 184 OFFCURVE",
"627 197 CURVE SMOOTH",
"630 228 OFFCURVE",
"634 354 OFFCURVE",
"634 400 CURVE SMOOTH",
"634 443 OFFCURVE",
"634 613 OFFCURVE",
"638 640 CURVE SMOOTH",
"640 658 OFFCURVE",
"647 682 OFFCURVE",
"647 697 CURVE SMOOTH",
"647 705 OFFCURVE",
"645 710 OFFCURVE",
"639 710 CURVE SMOOTH",
"625 710 OFFCURVE",
"588 642 OFFCURVE",
"569 604 CURVE",
"548 566 OFFCURVE",
"509 483 OFFCURVE",
"477 421 CURVE SMOOTH",
"412 291 LINE SMOOTH",
"399 264 OFFCURVE",
"385 237 OFFCURVE",
"370 208 CURVE",
"349 255 LINE SMOOTH",
"338 282 OFFCURVE",
"324 312 OFFCURVE",
"317 331 CURVE SMOOTH",
"304 371 OFFCURVE",
"265 461 OFFCURVE",
"246 493 CURVE",
"230 528 OFFCURVE",
"195 611 OFFCURVE",
"187 652 CURVE",
"181 677 OFFCURVE",
"179 709 OFFCURVE",
"162 715 CURVE",
"153 717 OFFCURVE",
"144 717 OFFCURVE",
"134 717 CURVE SMOOTH",
"126 717 OFFCURVE",
"118 717 OFFCURVE",
"109 716 CURVE SMOOTH",
"95 714 OFFCURVE",
"90 719 OFFCURVE",
"85 719 CURVE SMOOTH",
"83 719 OFFCURVE",
"81 719 OFFCURVE",
"78 716 CURVE SMOOTH",
"74 712 OFFCURVE",
"73 695 OFFCURVE",
"73 676 CURVE SMOOTH",
"73 657 OFFCURVE",
"74 636 OFFCURVE",
"74 622 CURVE SMOOTH",
"74 593 OFFCURVE",
"72 470 OFFCURVE",
"72 434 CURVE SMOOTH",
"72 398 OFFCURVE",
"62 261 OFFCURVE",
"62 220 CURVE SMOOTH",
"62 179 OFFCURVE",
"65 53 OFFCURVE",
"65 34 CURVE SMOOTH",
"64 9 OFFCURVE",
"63 0 OFFCURVE",
"84 0 CURVE SMOOTH"
);
}
);
width = 704;
}
);
unicode = 004D;
},
{
glyphname = N;
layers = (
{
anchors = (
{
name = bottom;
position = "{389, 0}";
},
{
name = top;
position = "{392, 710}";
}
);
color = -1;
layerId = "FC508690-ADF2-4DBF-B34D-60B2640A846D";
paths = (
{
closed = 1;
nodes = (
"118 -12 OFFCURVE",
"164 -10 OFFCURVE",
"188 -10 CURVE SMOOTH",
"212 -10 OFFCURVE",
"244 -6 OFFCURVE",
"255 -6 CURVE SMOOTH",
"265 -6 OFFCURVE",
"274 -4 OFFCURVE",
"274 10 CURVE SMOOTH",
"274 10 OFFCURVE",
"274 11 OFFCURVE",
"274 12 CURVE SMOOTH",
"274 28 OFFCURVE",
"270 79 OFFCURVE",
"270 108 CURVE SMOOTH",
"270 138 OFFCURVE",
"266 282 OFFCURVE",
"266 351 CURVE SMOOTH",
"266 386 OFFCURVE",
"264 445 OFFCURVE",
"263 497 CURVE",
"260 592 LINE",
"289 540 LINE SMOOTH",
"305 511 OFFCURVE",
"323 476 OFFCURVE",
"334 453 CURVE SMOOTH",
"355 406 OFFCURVE",
"424 252 OFFCURVE",
"445 212 CURVE",
"464 172 OFFCURVE",
"519 34 OFFCURVE",
"527 16 CURVE",
"538 -3 OFFCURVE",
"539 -3 OFFCURVE",
"550 -4 CURVE SMOOTH",
"558 -5 OFFCURVE",
"572 -3 OFFCURVE",
"584 -3 CURVE SMOOTH",
"589 -3 OFFCURVE",
"593 -3 OFFCURVE",
"596 -4 CURVE SMOOTH",
"605 -5 OFFCURVE",
"615 -4 OFFCURVE",
"615 14 CURVE SMOOTH",
"615 14 OFFCURVE",
"615 15 OFFCURVE",
"615 16 CURVE SMOOTH",
"615 35 OFFCURVE",
"610 147 OFFCURVE",
"610 191 CURVE SMOOTH",
"610 229 OFFCURVE",
"604 313 OFFCURVE",
"604 371 CURVE SMOOTH",
"604 382 OFFCURVE",
"605 391 OFFCURVE",
"605 400 CURVE SMOOTH",
"605 452 OFFCURVE",
"608 669 OFFCURVE",
"608 688 CURVE SMOOTH",
"608 696 OFFCURVE",
"610 703 OFFCURVE",
"610 708 CURVE SMOOTH",
"610 714 OFFCURVE",
"608 717 OFFCURVE",
"597 717 CURVE SMOOTH",
"578 717 OFFCURVE",
"574 716 OFFCURVE",
"562 719 CURVE SMOOTH",
"557 720 OFFCURVE",
"549 722 OFFCURVE",
"542 722 CURVE SMOOTH",
"534 722 OFFCURVE",
"527 719 OFFCURVE",
"527 707 CURVE SMOOTH",
"523 611 LINE",
"523 574 OFFCURVE",
"525 500 OFFCURVE",
"525 467 CURVE",
"524 439 OFFCURVE",
"523 399 OFFCURVE",
"523 356 CURVE SMOOTH",
"523 346 OFFCURVE",
"523 336 OFFCURVE",
"523 326 CURVE SMOOTH",
"527 228 LINE",
"529 170 LINE",
"498 231 LINE SMOOTH",
"481 266 OFFCURVE",
"460 304 OFFCURVE",
"448 329 CURVE SMOOTH",
"424 377 OFFCURVE",
"361 520 OFFCURVE",
"337 570 CURVE SMOOTH",
"313 621 OFFCURVE",
"283 688 OFFCURVE",
"275 704 CURVE SMOOTH",
"267 719 OFFCURVE",
"255 724 OFFCURVE",
"226 724 CURVE SMOOTH",
"198 724 OFFCURVE",
"157 723 OFFCURVE",
"141 723 CURVE SMOOTH",
"135 723 OFFCURVE",
"125 725 OFFCURVE",
"115 725 CURVE SMOOTH",
"102 725 OFFCURVE",
"89 721 OFFCURVE",
"87 698 CURVE SMOOTH",
"84 659 OFFCURVE",
"84 620 OFFCURVE",
"84 580 CURVE SMOOTH",
"84 540 OFFCURVE",
"70 370 OFFCURVE",
"67 322 CURVE",
"62 277 OFFCURVE",
"60 158 OFFCURVE",
"60 101 CURVE",
"59 84 OFFCURVE",
"59 71 OFFCURVE",
"59 60 CURVE SMOOTH",
"59 35 OFFCURVE",
"61 25 OFFCURVE",
"63 16 CURVE SMOOTH",
"66 3 OFFCURVE",
"64 -12 OFFCURVE",
"91 -12 CURVE SMOOTH"
);
}
);
width = 676;
}
);
unicode = 004E;
},
{
glyphname = NJ;
layers = (
{
color = -1;
layerId = "FC508690-ADF2-4DBF-B34D-60B2640A846D";
paths = (
{
closed = 1;
nodes = (
"118 -12 OFFCURVE",
"164 -10 OFFCURVE",
"188 -10 CURVE SMOOTH",
"212 -10 OFFCURVE",
"244 -6 OFFCURVE",
"255 -6 CURVE SMOOTH",
"265 -6 OFFCURVE",
"274 -4 OFFCURVE",
"274 10 CURVE SMOOTH",
"274 10 OFFCURVE",
"274 11 OFFCURVE",
"274 12 CURVE SMOOTH",
"274 28 OFFCURVE",
"270 79 OFFCURVE",
"270 108 CURVE SMOOTH",
"270 138 OFFCURVE",
"266 282 OFFCURVE",
"266 351 CURVE SMOOTH",
"266 386 OFFCURVE",
"264 445 OFFCURVE",
"263 497 CURVE SMOOTH",
"260 592 LINE",
"289 540 LINE SMOOTH",
"305 511 OFFCURVE",
"323 476 OFFCURVE",
"334 453 CURVE SMOOTH",
"355 406 OFFCURVE",
"424 252 OFFCURVE",
"445 212 CURVE",
"464 172 OFFCURVE",
"519 34 OFFCURVE",
"527 16 CURVE",
"538 -3 OFFCURVE",
"539 -3 OFFCURVE",
"550 -4 CURVE SMOOTH",
"558 -5 OFFCURVE",
"572 -3 OFFCURVE",
"584 -3 CURVE SMOOTH",
"589 -3 OFFCURVE",
"593 -3 OFFCURVE",
"596 -4 CURVE SMOOTH",
"605 -5 OFFCURVE",
"615 -4 OFFCURVE",
"615 14 CURVE SMOOTH",
"615 14 OFFCURVE",
"615 15 OFFCURVE",
"615 16 CURVE SMOOTH",
"615 35 OFFCURVE",
"610 147 OFFCURVE",
"610 191 CURVE SMOOTH",
"610 229 OFFCURVE",
"604 313 OFFCURVE",
"604 371 CURVE SMOOTH",
"604 382 OFFCURVE",
"605 391 OFFCURVE",
"605 400 CURVE SMOOTH",
"605 452 OFFCURVE",
"608 669 OFFCURVE",
"608 688 CURVE SMOOTH",
"608 696 OFFCURVE",
"610 703 OFFCURVE",
"610 708 CURVE SMOOTH",
"610 714 OFFCURVE",
"608 717 OFFCURVE",
"597 717 CURVE SMOOTH",
"578 717 OFFCURVE",
"574 716 OFFCURVE",
"562 719 CURVE SMOOTH",
"557 720 OFFCURVE",
"549 722 OFFCURVE",
"542 722 CURVE SMOOTH",
"534 722 OFFCURVE",
"527 719 OFFCURVE",
"527 707 CURVE SMOOTH",
"523 611 LINE",
"523 574 OFFCURVE",
"525 500 OFFCURVE",
"525 467 CURVE",
"524 439 OFFCURVE",
"523 399 OFFCURVE",
"523 356 CURVE SMOOTH",
"523 346 OFFCURVE",
"523 336 OFFCURVE",
"523 326 CURVE SMOOTH",
"527 228 LINE",
"529 170 LINE",
"498 231 LINE SMOOTH",
"481 266 OFFCURVE",
"460 304 OFFCURVE",
"448 329 CURVE SMOOTH",
"424 377 OFFCURVE",
"361 520 OFFCURVE",
"337 570 CURVE SMOOTH",
"313 621 OFFCURVE",
"283 688 OFFCURVE",
"275 704 CURVE SMOOTH",
"267 719 OFFCURVE",
"255 724 OFFCURVE",
"226 724 CURVE SMOOTH",
"198 724 OFFCURVE",
"157 723 OFFCURVE",
"141 723 CURVE SMOOTH",
"135 723 OFFCURVE",
"125 725 OFFCURVE",
"115 725 CURVE SMOOTH",
"102 725 OFFCURVE",
"89 721 OFFCURVE",
"87 698 CURVE SMOOTH",
"84 659 OFFCURVE",
"84 620 OFFCURVE",
"84 580 CURVE SMOOTH",
"84 540 OFFCURVE",
"70 370 OFFCURVE",
"67 322 CURVE",
"62 277 OFFCURVE",
"60 158 OFFCURVE",
"60 101 CURVE",
"59 84 OFFCURVE",
"59 71 OFFCURVE",
"59 60 CURVE SMOOTH",
"59 35 OFFCURVE",
"61 25 OFFCURVE",
"63 16 CURVE SMOOTH",
"66 3 OFFCURVE",
"64 -12 OFFCURVE",
"91 -12 CURVE SMOOTH"
);
},
{
closed = 1;
nodes = (
"1143 -7 OFFCURVE",
"1105 331 OFFCURVE",
"1109 374 CURVE",
"1111 680 LINE",
"1112 707 OFFCURVE",
"1110 712 OFFCURVE",
"1087 713 CURVE",
"1082 714 OFFCURVE",
"1076 714 OFFCURVE",
"1071 714 CURVE SMOOTH",
"1054 714 OFFCURVE",
"1040 711 OFFCURVE",
"1028 710 CURVE",
"1015 710 OFFCURVE",
"1000 709 OFFCURVE",
"1003 672 CURVE",
"1003 649 OFFCURVE",
"1002 611 OFFCURVE",
"1002 575 CURVE SMOOTH",
"1002 549 OFFCURVE",
"1003 524 OFFCURVE",
"1004 509 CURVE",
"1004 474 OFFCURVE",
"1001 278 OFFCURVE",
"1001 233 CURVE SMOOTH",
"1001 188 OFFCURVE",
"975 103 OFFCURVE",
"888 103 CURVE SMOOTH",
"824 103 OFFCURVE",
"774 142 OFFCURVE",
"774 345 CURVE SMOOTH",
"774 366 OFFCURVE",
"789 403 OFFCURVE",
"760 400 CURVE SMOOTH",
"731 396 OFFCURVE",
"710 393 OFFCURVE",
"698 393 CURVE",
"687 394 OFFCURVE",
"683 395 OFFCURVE",
"683 376 CURVE SMOOTH",
"683 357 OFFCURVE",
"681 287 OFFCURVE",
"681 247 CURVE SMOOTH",
"681 205 OFFCURVE",
"699 -7 OFFCURVE",
"920 -7 CURVE SMOOTH"
);
}
);
width = 1167;
}
);
unicode = 01CA;
},
{
glyphname = Eng;
layers = (
{
color = -1;
layerId = "FC508690-ADF2-4DBF-B34D-60B2640A846D";
paths = (
{
closed = 1;
nodes = (
"481 -223 OFFCURVE",
"540 -194 OFFCURVE",
"571 -155 CURVE",
"603 -118 OFFCURVE",
"614 -73 OFFCURVE",
"614 -41 CURVE SMOOTH",
"613 31 OFFCURVE",
"613 76 OFFCURVE",
"612 94 CURVE",
"612 130 OFFCURVE",
"610 168 OFFCURVE",
"610 191 CURVE SMOOTH",
"610 229 OFFCURVE",
"604 313 OFFCURVE",
"604 371 CURVE SMOOTH",
"604 382 OFFCURVE",
"605 391 OFFCURVE",
"605 400 CURVE SMOOTH",
"605 452 OFFCURVE",
"608 669 OFFCURVE",
"608 688 CURVE SMOOTH",
"608 696 OFFCURVE",
"610 703 OFFCURVE",
"610 708 CURVE SMOOTH",
"610 714 OFFCURVE",
"608 717 OFFCURVE",
"597 717 CURVE SMOOTH",
"578 717 OFFCURVE",
"574 716 OFFCURVE",
"562 719 CURVE SMOOTH",
"557 720 OFFCURVE",
"549 722 OFFCURVE",
"542 722 CURVE SMOOTH",
"534 722 OFFCURVE",
"527 719 OFFCURVE",
"527 707 CURVE",
"523 611 LINE",
"523 574 OFFCURVE",
"525 500 OFFCURVE",
"525 467 CURVE",
"524 439 OFFCURVE",
"523 399 OFFCURVE",
"523 356 CURVE SMOOTH",
"523 346 OFFCURVE",
"523 336 OFFCURVE",
"523 326 CURVE SMOOTH",
"527 228 LINE",
"529 170 LINE",
"498 231 LINE SMOOTH",
"481 266 OFFCURVE",
"460 304 OFFCURVE",
"448 329 CURVE SMOOTH",
"424 377 OFFCURVE",
"361 520 OFFCURVE",
"337 570 CURVE SMOOTH",
"313 621 OFFCURVE",
"283 688 OFFCURVE",
"275 704 CURVE SMOOTH",
"267 719 OFFCURVE",
"255 724 OFFCURVE",
"226 724 CURVE SMOOTH",
"198 724 OFFCURVE",
"157 723 OFFCURVE",
"141 723 CURVE SMOOTH",
"135 723 OFFCURVE",
"125 725 OFFCURVE",
"115 725 CURVE SMOOTH",
"102 725 OFFCURVE",
"89 721 OFFCURVE",
"87 698 CURVE SMOOTH",
"84 659 OFFCURVE",
"84 620 OFFCURVE",
"84 580 CURVE SMOOTH",
"84 540 OFFCURVE",
"70 370 OFFCURVE",
"67 322 CURVE",
"64 299 OFFCURVE",
"63 256 OFFCURVE",
"62 225 CURVE SMOOTH",
"62 210 OFFCURVE",
"62 199 OFFCURVE",
"61 192 CURVE SMOOTH",
"60 185 OFFCURVE",
"60 175 OFFCURVE",
"60 160 CURVE SMOOTH",
"59 143 OFFCURVE",
"59 130 OFFCURVE",
"59 119 CURVE SMOOTH",
"59 94 OFFCURVE",
"61 84 OFFCURVE",
"63 75 CURVE SMOOTH",
"66 62 OFFCURVE",
"64 47 OFFCURVE",
"91 47 CURVE SMOOTH",
"118 47 OFFCURVE",
"164 49 OFFCURVE",
"188 49 CURVE SMOOTH",
"212 49 OFFCURVE",
"244 53 OFFCURVE",
"255 53 CURVE SMOOTH",
"265 53 OFFCURVE",
"274 55 OFFCURVE",
"274 69 CURVE SMOOTH",
"274 69 OFFCURVE",
"274 70 OFFCURVE",
"274 71 CURVE SMOOTH",
"274 87 OFFCURVE",
"270 138 OFFCURVE",
"270 167 CURVE SMOOTH",
"270 182 OFFCURVE",
"269 188 OFFCURVE",
"268 224 CURVE SMOOTH",
"267 260 OFFCURVE",
"266 316 OFFCURVE",
"266 351 CURVE SMOOTH",
"266 386 OFFCURVE",
"264 445 OFFCURVE",
"263 497 CURVE SMOOTH",
"260 592 LINE",
"289 540 LINE SMOOTH",
"305 511 OFFCURVE",
"323 476 OFFCURVE",
"334 453 CURVE SMOOTH",
"355 406 OFFCURVE",
"424 252 OFFCURVE",
"445 212 CURVE",
"489 108 LINE SMOOTH",
"496 91 OFFCURVE",
"499 65 OFFCURVE",
"499 29 CURVE SMOOTH",
"499 -68 OFFCURVE",
"485 -128 OFFCURVE",
"426 -136 CURVE",
"383 -133 OFFCURVE",
"364 -103 OFFCURVE",
"357 -48 CURVE SMOOTH",
"355 -37 OFFCURVE",
"345 -29 OFFCURVE",
"326 -24 CURVE SMOOTH",
"307 -20 OFFCURVE",
"287 -19 OFFCURVE",
"266 -20 CURVE SMOOTH",
"245 -22 OFFCURVE",
"234 -34 OFFCURVE",
"231 -55 CURVE",
"242 -100 OFFCURVE",
"256 -133 OFFCURVE",
"271 -153 CURVE SMOOTH",
"286 -173 OFFCURVE",
"310 -190 OFFCURVE",
"342 -203 CURVE SMOOTH",
"374 -216 OFFCURVE",
"403 -223 OFFCURVE",
"428 -223 CURVE SMOOTH"
);
}
);
width = 676;
}
);
unicode = 014A;
},
{
glyphname = Nhookleft;
layers = (
{
color = -1;
layerId = "FC508690-ADF2-4DBF-B34D-60B2640A846D";
paths = (
{
closed = 1;
nodes = (
"115 -223 OFFCURVE",
"172 -143 OFFCURVE",
"172 -41 CURVE SMOOTH",
"172 -10 OFFCURVE",
"169 98 OFFCURVE",
"169 108 CURVE SMOOTH",
"169 138 OFFCURVE",
"165 282 OFFCURVE",
"165 351 CURVE SMOOTH",
"165 386 OFFCURVE",
"163 445 OFFCURVE",
"162 497 CURVE",
"159 592 LINE",
"188 540 LINE SMOOTH",
"204 511 OFFCURVE",
"222 476 OFFCURVE",
"233 453 CURVE SMOOTH",
"254 406 OFFCURVE",
"323 252 OFFCURVE",
"344 212 CURVE",
"363 172 OFFCURVE",
"418 34 OFFCURVE",
"426 16 CURVE",
"437 -3 OFFCURVE",
"438 -3 OFFCURVE",
"449 -4 CURVE SMOOTH",
"457 -5 OFFCURVE",
"568 -3 OFFCURVE",
"580 -3 CURVE SMOOTH",
"585 -3 OFFCURVE",
"589 -3 OFFCURVE",
"592 -4 CURVE SMOOTH",
"601 -7 OFFCURVE",
"611 -4 OFFCURVE",
"611 14 CURVE SMOOTH",
"611 14 OFFCURVE",
"611 15 OFFCURVE",
"611 16 CURVE SMOOTH",
"611 35 OFFCURVE",
"606 147 OFFCURVE",
"606 191 CURVE SMOOTH",
"606 229 OFFCURVE",
"600 313 OFFCURVE",
"600 371 CURVE SMOOTH",
"600 382 OFFCURVE",
"601 391 OFFCURVE",
"601 400 CURVE SMOOTH",
"601 452 OFFCURVE",
"604 669 OFFCURVE",
"604 688 CURVE SMOOTH",
"604 696 OFFCURVE",
"606 703 OFFCURVE",
"606 708 CURVE SMOOTH",
"606 714 OFFCURVE",
"604 717 OFFCURVE",
"593 717 CURVE SMOOTH",
"574 717 OFFCURVE",
"473 716 OFFCURVE",
"461 719 CURVE SMOOTH",
"456 720 OFFCURVE",
"448 722 OFFCURVE",
"441 722 CURVE SMOOTH",
"433 722 OFFCURVE",
"426 719 OFFCURVE",
"426 707 CURVE SMOOTH",
"422 611 LINE",
"422 574 OFFCURVE",
"424 500 OFFCURVE",
"424 467 CURVE",
"423 439 OFFCURVE",
"422 399 OFFCURVE",
"422 356 CURVE SMOOTH",
"422 346 OFFCURVE",
"422 336 OFFCURVE",
"422 326 CURVE SMOOTH",
"426 228 LINE",
"428 170 LINE",
"397 231 LINE SMOOTH",
"380 266 OFFCURVE",
"359 304 OFFCURVE",
"347 329 CURVE SMOOTH",
"323 377 OFFCURVE",
"260 520 OFFCURVE",
"236 570 CURVE SMOOTH",
"212 621 OFFCURVE",
"182 688 OFFCURVE",
"174 704 CURVE SMOOTH",
"166 719 OFFCURVE",
"154 724 OFFCURVE",
"125 724 CURVE SMOOTH",
"94 724 OFFCURVE",
"136 723 OFFCURVE",
"120 723 CURVE SMOOTH",
"114 723 OFFCURVE",
"101 725 OFFCURVE",
"91 725 CURVE SMOOTH",
"78 725 OFFCURVE",
"65 721 OFFCURVE",
"63 698 CURVE SMOOTH",
"60 659 OFFCURVE",
"58 620 OFFCURVE",
"58 580 CURVE SMOOTH",
"58 540 OFFCURVE",
"65 370 OFFCURVE",
"62 322 CURVE",
"59 277 OFFCURVE",
"63 158 OFFCURVE",
"63 101 CURVE",
"62 84 OFFCURVE",
"62 71 OFFCURVE",
"62 60 CURVE SMOOTH",
"62 35 OFFCURVE",
"63 15 OFFCURVE",
"63 6 CURVE SMOOTH",
"63 -13 OFFCURVE",
"59 -130 OFFCURVE",
"32 -130 CURVE SMOOTH",
"7 -130 OFFCURVE",
"12 -100 OFFCURVE",
"-15 -100 CURVE SMOOTH",
"-35 -100 OFFCURVE",
"-56 -132 OFFCURVE",
"-65 -145 CURVE SMOOTH",
"-84 -173 OFFCURVE",
"-77 -181 OFFCURVE",
"-59 -194 CURVE SMOOTH",
"-36 -211 OFFCURVE",
"4 -223 OFFCURVE",
"36 -223 CURVE SMOOTH"
);
}
);
width = 672;
}
);
unicode = 019D;
},
{
glyphname = O;
layers = (
{
anchors = (
{
name = bottom;
position = "{277, 0}";
},
{
name = center;
position = "{272, 355}";
},
{
name = ogonek;
position = "{341, 0}";
},
{
name = top;
position = "{290, 710}";
},
{
name = topleft;
position = "{20, 710}";
},
{
name = topright;
position = "{373, 691}";
}
);
color = -1;
layerId = "FC508690-ADF2-4DBF-B34D-60B2640A846D";
paths = (
{
closed = 1;
nodes = (
"437 -22 OFFCURVE",
"501 198 OFFCURVE",
"501 343 CURVE SMOOTH",
"501 489 OFFCURVE",
"490 714 OFFCURVE",
"273 714 CURVE SMOOTH",
"185 714 OFFCURVE",
"43 645 OFFCURVE",
"43 357 CURVE SMOOTH",
"43 249 OFFCURVE",
"60 -22 OFFCURVE",
"280 -22 CURVE SMOOTH"
);
},
{
closed = 1;
nodes = (
"232 232 OFFCURVE",
"229 285 OFFCURVE",
"229 325 CURVE SMOOTH",
"229 368 OFFCURVE",
"242 434 OFFCURVE",
"279 434 CURVE SMOOTH",
"308 434 OFFCURVE",
"325 385 OFFCURVE",
"325 334 CURVE SMOOTH",
"325 284 OFFCURVE",
"311 232 OFFCURVE",
"272 232 CURVE SMOOTH"
);
}
);
width = 544;
}
);
leftKerningGroup = O;
rightKerningGroup = O;
unicode = 004F;
},
{
glyphname = Odotbelow;
layers = (
{
color = -1;
components = (
{
name = dotbelow;
transform = "{1, 0, 0, 1, 177, 0}";
}
);
layerId = "FC508690-ADF2-4DBF-B34D-60B2640A846D";
paths = (
{
closed = 1;
nodes = (
"360 18 OFFCURVE",
"413 80 OFFCURVE",
"449 135 CURVE",
"484 183 OFFCURVE",
"502 266 OFFCURVE",
"501 343 CURVE",
"501 489 OFFCURVE",
"490 714 OFFCURVE",
"273 714 CURVE SMOOTH",
"185 714 OFFCURVE",
"43 645 OFFCURVE",
"43 357 CURVE SMOOTH",
"43 321 OFFCURVE",
"46 263 OFFCURVE",
"55 222 CURVE SMOOTH",
"60 202 OFFCURVE",
"68 181 OFFCURVE",
"78 158 CURVE",
"111 90 OFFCURVE",
"170 18 OFFCURVE",
"280 18 CURVE SMOOTH"
);
},
{
closed = 1;
nodes = (
"232 232 OFFCURVE",
"229 285 OFFCURVE",
"229 325 CURVE SMOOTH",
"229 368 OFFCURVE",
"242 434 OFFCURVE",
"279 434 CURVE SMOOTH",
"308 434 OFFCURVE",
"325 385 OFFCURVE",
"325 334 CURVE SMOOTH",
"325 284 OFFCURVE",
"311 232 OFFCURVE",
"272 232 CURVE SMOOTH"
);
}
);
width = 544;
}
);
leftKerningGroup = O;
rightKerningGroup = O;
unicode = 1ECC;
},
{
glyphname = Oslash;
layers = (
{
anchors = (
{
name = bottom;
position = "{288, 0}";
},
{
name = top;
position = "{288, 710}";
}
);
color = -1;
layerId = "FC508690-ADF2-4DBF-B34D-60B2640A846D";
paths = (
{
closed = 1;
nodes = (
"94 -39 OFFCURVE",
"103 -37 OFFCURVE",
"110 -31 CURVE",
"122 -24 OFFCURVE",
"130 -22 OFFCURVE",
"139 1 CURVE SMOOTH",
"141 6 OFFCURVE",
"147 17 OFFCURVE",
"155 33 CURVE",
"189 -1 OFFCURVE",
"235 -22 OFFCURVE",
"297 -22 CURVE SMOOTH",
"454 -22 OFFCURVE",
"518 198 OFFCURVE",
"518 343 CURVE SMOOTH",
"518 420 OFFCURVE",
"515 520 OFFCURVE",
"480 597 CURVE",
"509 645 LINE",
"526 670 OFFCURVE",
"540 706 OFFCURVE",
"530 709 CURVE SMOOTH",
"522 712 OFFCURVE",
"494 713 OFFCURVE",
"485 713 CURVE",
"473 709 OFFCURVE",
"453 685 OFFCURVE",
"440 660 CURVE SMOOTH",
"439 658 LINE",
"405 692 OFFCURVE",
"358 714 OFFCURVE",
"290 714 CURVE SMOOTH",
"202 714 OFFCURVE",
"60 645 OFFCURVE",
"60 357 CURVE SMOOTH",
"60 294 OFFCURVE",
"66 176 OFFCURVE",
"114 89 CURVE",
"70 15 LINE",
"48 -15 OFFCURVE",
"60 -3 OFFCURVE",
"49 -14 CURVE",
"47 -19 OFFCURVE",
"45 -23 OFFCURVE",
"45 -26 CURVE SMOOTH",
"45 -30 OFFCURVE",
"48 -33 OFFCURVE",
"59 -35 CURVE SMOOTH",
"65 -37 OFFCURVE",
"75 -39 OFFCURVE",
"84 -39 CURVE SMOOTH"
);
},
{
closed = 1;
nodes = (
"250 96 OFFCURVE",
"228 111 OFFCURVE",
"213 134 CURVE",
"267 226 LINE",
"288 257 OFFCURVE",
"358 385 OFFCURVE",
"393 449 CURVE",
"402 414 OFFCURVE",
"406 375 OFFCURVE",
"406 335 CURVE SMOOTH",
"406 219 OFFCURVE",
"374 96 OFFCURVE",
"282 96 CURVE SMOOTH"
);
},
{
closed = 1;
nodes = (
"182 249 OFFCURVE",
"181 283 OFFCURVE",
"181 314 CURVE SMOOTH",
"181 414 OFFCURVE",
"211 570 OFFCURVE",
"299 570 CURVE SMOOTH",
"326 570 OFFCURVE",
"348 552 OFFCURVE",
"365 523 CURVE",
"363 520 LINE SMOOTH",
"339 483 OFFCURVE",
"238 309 OFFCURVE",
"200 244 CURVE",
"186 217 LINE"
);
}
);
width = 575;
}
);
leftKerningGroup = O;
rightKerningGroup = O;
unicode = 00D8;
},
{
glyphname = OE;
layers = (
{
color = -1;
layerId = "FC508690-ADF2-4DBF-B34D-60B2640A846D";
paths = (
{
closed = 1;
nodes = (
"327 -22 OFFCURVE",
"384 -4 OFFCURVE",
"431 48 CURVE SMOOTH",
"440 58 OFFCURVE",
"449 70 OFFCURVE",
"457 84 CURVE",
"458 70 OFFCURVE",
"459 62 OFFCURVE",
"459 52 CURVE SMOOTH",
"459 40 OFFCURVE",
"459 26 OFFCURVE",
"460 15 CURVE SMOOTH",
"460 6 OFFCURVE",
"459 -2 OFFCURVE",
"468 -2 CURVE SMOOTH",
"470 -2 OFFCURVE",
"472 -1 OFFCURVE",
"474 -1 CURVE SMOOTH",
"487 -1 OFFCURVE",
"584 3 OFFCURVE",
"632 3 CURVE SMOOTH",
"685 3 OFFCURVE",
"760 1 OFFCURVE",
"798 1 CURVE SMOOTH",
"830 1 OFFCURVE",
"846 -5 OFFCURVE",
"846 23 CURVE SMOOTH",
"846 52 OFFCURVE",
"847 73 OFFCURVE",
"847 93 CURVE SMOOTH",
"847 99 OFFCURVE",
"848 107 OFFCURVE",
"848 113 CURVE SMOOTH",
"848 125 OFFCURVE",
"845 134 OFFCURVE",
"828 134 CURVE SMOOTH",
"812 134 OFFCURVE",
"780 133 OFFCURVE",
"745 133 CURVE",
"714 134 OFFCURVE",
"693 135 OFFCURVE",
"670 135 CURVE SMOOTH",
"625 135 OFFCURVE",
"575 134 OFFCURVE",
"552 134 CURVE SMOOTH",
"541 134 OFFCURVE",
"531 133 OFFCURVE",
"524 133 CURVE",
"520 132 OFFCURVE",
"516 132 OFFCURVE",
"513 132 CURVE",
"513 232 LINE",
"514 231 OFFCURVE",
"516 231 OFFCURVE",
"519 231 CURVE",
"521 230 OFFCURVE",
"525 230 OFFCURVE",
"532 230 CURVE SMOOTH",
"543 230 OFFCURVE",
"586 238 OFFCURVE",
"650 238 CURVE SMOOTH",
"681 238 OFFCURVE",
"702 238 OFFCURVE",
"712 237 CURVE SMOOTH",
"723 236 OFFCURVE",
"732 236 OFFCURVE",
"740 236 CURVE SMOOTH",
"747 236 OFFCURVE",
"754 233 OFFCURVE",
"758 233 CURVE SMOOTH",
"764 233 OFFCURVE",
"767 236 OFFCURVE",
"767 249 CURVE SMOOTH",
"767 274 OFFCURVE",
"766 280 OFFCURVE",
"766 312 CURVE SMOOTH",
"766 331 OFFCURVE",
"768 336 OFFCURVE",
"768 343 CURVE SMOOTH",
"768 350 OFFCURVE",
"766 355 OFFCURVE",
"755 355 CURVE SMOOTH",
"744 355 OFFCURVE",
"730 358 OFFCURVE",
"706 358 CURVE",
"668 356 LINE SMOOTH",
"648 355 OFFCURVE",
"629 354 OFFCURVE",
"610 354 CURVE SMOOTH",
"582 354 OFFCURVE",
"557 354 OFFCURVE",
"540 355 CURVE SMOOTH",
"530 355 OFFCURVE",
"521 355 OFFCURVE",
"513 356 CURVE",
"513 362 OFFCURVE",
"512 368 OFFCURVE",
"512 375 CURVE SMOOTH",
"512 378 LINE",
"512 437 LINE SMOOTH",
"512 478 OFFCURVE",
"515 509 OFFCURVE",
"515 549 CURVE SMOOTH",
"515 559 OFFCURVE",
"516 563 OFFCURVE",
"525 563 CURVE SMOOTH",
"531 563 OFFCURVE",
"554 562 OFFCURVE",
"578 562 CURVE SMOOTH",
"597 562 OFFCURVE",
"616 563 OFFCURVE",
"631 564 CURVE SMOOTH",
"640 565 OFFCURVE",
"648 565 OFFCURVE",
"656 565 CURVE SMOOTH",
"679 565 OFFCURVE",
"700 563 OFFCURVE",
"724 563 CURVE SMOOTH",
"766 563 OFFCURVE",
"796 563 OFFCURVE",
"811 560 CURVE SMOOTH",
"817 559 OFFCURVE",
"826 555 OFFCURVE",
"833 555 CURVE SMOOTH",
"840 555 OFFCURVE",
"846 558 OFFCURVE",
"847 570 CURVE",
"850 587 OFFCURVE",
"850 594 OFFCURVE",
"850 599 CURVE SMOOTH",
"850 602 OFFCURVE",
"850 604 OFFCURVE",
"850 606 CURVE SMOOTH",
"850 633 OFFCURVE",
"846 654 OFFCURVE",
"846 673 CURVE SMOOTH",
"846 692 OFFCURVE",
"844 701 OFFCURVE",
"825 701 CURVE SMOOTH",
"806 701 OFFCURVE",
"755 705 OFFCURVE",
"714 705 CURVE SMOOTH",
"695 705 OFFCURVE",
"613 696 OFFCURVE",
"574 696 CURVE SMOOTH",
"529 696 OFFCURVE",
"511 699 OFFCURVE",
"496 699 CURVE SMOOTH",
"491 699 OFFCURVE",
"486 700 OFFCURVE",
"481 700 CURVE SMOOTH",
"470 700 OFFCURVE",
"462 697 OFFCURVE",
"462 678 CURVE SMOOTH",
"460 604 LINE",
"426 667 OFFCURVE",
"366 714 OFFCURVE",
"276 714 CURVE SMOOTH",
"119 714 OFFCURVE",
"55 494 OFFCURVE",
"55 349 CURVE SMOOTH",
"55 203 OFFCURVE",
"66 -22 OFFCURVE",
"283 -22 CURVE SMOOTH"
);
},
{
closed = 1;
nodes = (
"251 232 OFFCURVE",
"235 300 OFFCURVE",
"235 349 CURVE SMOOTH",
"235 390 OFFCURVE",
"239 447 OFFCURVE",
"289 447 CURVE SMOOTH",
"336 447 OFFCURVE",
"354 392 OFFCURVE",
"354 338 CURVE SMOOTH",
"354 285 OFFCURVE",
"333 232 OFFCURVE",
"297 232 CURVE SMOOTH"
);
}
);
width = 901;
}
);
leftKerningGroup = O;
rightKerningGroup = E;
unicode = 0152;
},
{
glyphname = P;
layers = (
{
color = -1;
layerId = "FC508690-ADF2-4DBF-B34D-60B2640A846D";
paths = (
{
closed = 1;
nodes = (
"105 5 OFFCURVE",
"134 7 OFFCURVE",
"152 7 CURVE SMOOTH",
"160 7 OFFCURVE",
"166 7 OFFCURVE",
"169 6 CURVE SMOOTH",
"182 0 OFFCURVE",
"207 12 OFFCURVE",
"202 33 CURVE SMOOTH",
"199 44 OFFCURVE",
"199 110 OFFCURVE",
"199 174 CURVE SMOOTH",
"199 211 OFFCURVE",
"200 253 OFFCURVE",
"201 299 CURVE",
"222 300 OFFCURVE",
"242 302 OFFCURVE",
"261 304 CURVE SMOOTH",
"293 307 OFFCURVE",
"331 310 OFFCURVE",
"352 310 CURVE SMOOTH",
"395 310 OFFCURVE",
"515 340 OFFCURVE",
"515 489 CURVE SMOOTH",
"515 638 OFFCURVE",
"437 696 OFFCURVE",
"355 701 CURVE SMOOTH",
"323 703 OFFCURVE",
"287 704 OFFCURVE",
"254 704 CURVE SMOOTH",
"201 704 OFFCURVE",
"155 702 OFFCURVE",
"144 702 CURVE SMOOTH",
"119 702 OFFCURVE",
"90 703 OFFCURVE",
"81 704 CURVE SMOOTH",
"74 705 OFFCURVE",
"69 699 OFFCURVE",
"69 678 CURVE SMOOTH",
"69 671 OFFCURVE",
"70 663 OFFCURVE",
"71 652 CURVE SMOOTH",
"72 645 OFFCURVE",
"72 630 OFFCURVE",
"72 609 CURVE SMOOTH",
"72 492 OFFCURVE",
"64 196 OFFCURVE",
"64 160 CURVE SMOOTH",
"64 118 OFFCURVE",
"62 55 OFFCURVE",
"62 36 CURVE SMOOTH",
"62 17 OFFCURVE",
"64 0 OFFCURVE",
"88 3 CURVE SMOOTH"
);
},
{
closed = 1;
nodes = (
"305 382 OFFCURVE",
"277 382 OFFCURVE",
"250 385 CURVE",
"203 388 LINE",
"201 427 LINE SMOOTH",
"200 450 OFFCURVE",
"200 479 OFFCURVE",
"203 506 CURVE SMOOTH",
"206 533 OFFCURVE",
"207 562 OFFCURVE",
"208 586 CURVE SMOOTH",
"209 600 OFFCURVE",
"209 614 OFFCURVE",
"209 628 CURVE",
"225 629 OFFCURVE",
"266 628 OFFCURVE",
"327 616 CURVE SMOOTH",
"388 604 OFFCURVE",
"425 568 OFFCURVE",
"425 483 CURVE SMOOTH",
"425 397 OFFCURVE",
"359 382 OFFCURVE",
"324 382 CURVE SMOOTH"
);
}
);
width = 520;
}
);
rightKerningGroup = P;
unicode = 0050;
},
{
glyphname = Thorn;
layers = (
{
background = {
paths = (
{
closed = 1;
nodes = (
"355 561 CURVE SMOOTH",
"323 563 OFFCURVE",
"287 564 OFFCURVE",
"254 564 CURVE SMOOTH",
"201 564 OFFCURVE",
"155 562 OFFCURVE",
"144 562 CURVE SMOOTH",
"119 562 OFFCURVE",
"90 563 OFFCURVE",
"81 564 CURVE SMOOTH",
"74 565 OFFCURVE",
"69 559 OFFCURVE",
"69 538 CURVE SMOOTH",
"69 531 OFFCURVE",
"69 523 OFFCURVE",
"71 512 CURVE SMOOTH",
"72 505 OFFCURVE",
"72 490 OFFCURVE",
"72 469 CURVE SMOOTH",
"72 352 OFFCURVE",
"64 56 OFFCURVE",
"64 20 CURVE SMOOTH",
"64 -22 OFFCURVE",
"62 -85 OFFCURVE",
"62 -104 CURVE SMOOTH",
"62 -123 OFFCURVE",
"64 -140 OFFCURVE",
"88 -137 CURVE SMOOTH",
"105 -135 OFFCURVE",
"134 -133 OFFCURVE",
"152 -133 CURVE SMOOTH",
"160 -133 OFFCURVE",
"166 -133 OFFCURVE",
"169 -134 CURVE SMOOTH",
"183 -139 OFFCURVE",
"208 -128 OFFCURVE",
"202 -107 CURVE SMOOTH",
"199 -96 OFFCURVE",
"199 -30 OFFCURVE",
"199 34 CURVE SMOOTH",
"199 71 OFFCURVE",
"200 113 OFFCURVE",
"201 159 CURVE",
"222 160 OFFCURVE",
"242 162 OFFCURVE",
"261 164 CURVE SMOOTH",
"293 167 OFFCURVE",
"331 170 OFFCURVE",
"352 170 CURVE SMOOTH",
"395 170 OFFCURVE",
"515 200 OFFCURVE",
"515 349 CURVE SMOOTH",
"515 498 OFFCURVE",
"437 556 OFFCURVE"
);
},
{
closed = 1;
nodes = (
"250 245 CURVE",
"203 248 LINE",
"201 287 LINE SMOOTH",
"200 310 OFFCURVE",
"200 339 OFFCURVE",
"203 366 CURVE SMOOTH",
"206 393 OFFCURVE",
"206 422 OFFCURVE",
"208 446 CURVE SMOOTH",
"209 460 OFFCURVE",
"209 474 OFFCURVE",
"209 488 CURVE",
"225 489 OFFCURVE",
"266 488 OFFCURVE",
"327 476 CURVE SMOOTH",
"388 464 OFFCURVE",
"425 428 OFFCURVE",
"425 343 CURVE SMOOTH",
"425 257 OFFCURVE",
"359 242 OFFCURVE",
"324 242 CURVE SMOOTH",
"305 242 OFFCURVE",
"277 242 OFFCURVE"
);
}
);
};
color = -1;
layerId = "FC508690-ADF2-4DBF-B34D-60B2640A846D";
paths = (
{
closed = 1;
nodes = (
"89 2 OFFCURVE",
"120 4 OFFCURVE",
"146 4 CURVE",
"192 4 LINE",
"197 5 OFFCURVE",
"199 12 OFFCURVE",
"199 27 CURVE SMOOTH",
"199 33 OFFCURVE",
"199 40 OFFCURVE",
"198 49 CURVE",
"198 67 OFFCURVE",
"197 85 OFFCURVE",
"197 104 CURVE SMOOTH",
"197 122 OFFCURVE",
"198 141 OFFCURVE",
"198 159 CURVE",
"205 159 OFFCURVE",
"229 159 OFFCURVE",
"260 159 CURVE SMOOTH",
"290 159 OFFCURVE",
"327 159 OFFCURVE",
"357 161 CURVE SMOOTH",
"439 166 OFFCURVE",
"517 224 OFFCURVE",
"517 373 CURVE SMOOTH",
"517 522 OFFCURVE",
"397 552 OFFCURVE",
"354 552 CURVE SMOOTH",
"333 552 OFFCURVE",
"295 555 OFFCURVE",
"263 558 CURVE SMOOTH",
"244 560 OFFCURVE",
"224 562 OFFCURVE",
"203 563 CURVE",
"201 595 OFFCURVE",
"201 618 OFFCURVE",
"201 634 CURVE SMOOTH",
"201 658 OFFCURVE",
"202 667 OFFCURVE",
"204 673 CURVE SMOOTH",
"209 694 OFFCURVE",
"184 706 OFFCURVE",
"171 700 CURVE SMOOTH",
"168 699 OFFCURVE",
"162 699 OFFCURVE",
"154 699 CURVE SMOOTH",
"136 699 OFFCURVE",
"107 701 OFFCURVE",
"90 703 CURVE SMOOTH",
"66 706 OFFCURVE",
"64 689 OFFCURVE",
"64 670 CURVE SMOOTH",
"64 651 OFFCURVE",
"66 588 OFFCURVE",
"66 546 CURVE SMOOTH",
"66 510 OFFCURVE",
"74 214 OFFCURVE",
"74 97 CURVE SMOOTH",
"74 76 OFFCURVE",
"74 61 OFFCURVE",
"73 54 CURVE SMOOTH",
"72 43 OFFCURVE",
"71 34 OFFCURVE",
"71 27 CURVE SMOOTH",
"71 8 OFFCURVE",
"75 2 OFFCURVE",
"82 2 CURVE SMOOTH"
);
},
{
closed = 1;
nodes = (
"211 248 OFFCURVE",
"211 262 OFFCURVE",
"210 276 CURVE SMOOTH",
"209 300 OFFCURVE",
"208 329 OFFCURVE",
"205 356 CURVE SMOOTH",
"202 383 OFFCURVE",
"202 412 OFFCURVE",
"203 435 CURVE",
"205 474 LINE",
"252 477 LINE",
"279 480 OFFCURVE",
"307 480 OFFCURVE",
"326 480 CURVE SMOOTH",
"361 480 OFFCURVE",
"427 465 OFFCURVE",
"427 379 CURVE SMOOTH",
"427 294 OFFCURVE",
"390 258 OFFCURVE",
"329 246 CURVE SMOOTH",
"268 234 OFFCURVE",
"227 233 OFFCURVE",
"211 234 CURVE"
);
}
);
width = 519;
}
);
unicode = 00DE;
},
{
glyphname = Q;
layers = (
{
color = -1;
layerId = "FC508690-ADF2-4DBF-B34D-60B2640A846D";
paths = (
{
closed = 1;
nodes = (
"411 -1 OFFCURVE",
"460 21 OFFCURVE",
"496 56 CURVE",
"506 43 OFFCURVE",
"513 34 OFFCURVE",
"516 28 CURVE SMOOTH",
"529 7 OFFCURVE",
"537 1 OFFCURVE",
"560 1 CURVE SMOOTH",
"583 1 OFFCURVE",
"612 3 OFFCURVE",
"621 2 CURVE SMOOTH",
"625 2 OFFCURVE",
"629 3 OFFCURVE",
"629 7 CURVE SMOOTH",
"629 11 OFFCURVE",
"625 17 OFFCURVE",
"615 26 CURVE SMOOTH",
"604 35 OFFCURVE",
"572 72 OFFCURVE",
"540 111 CURVE",
"599 207 OFFCURVE",
"608 344 OFFCURVE",
"608 406 CURVE SMOOTH",
"608 510 OFFCURVE",
"557 710 OFFCURVE",
"323 710 CURVE SMOOTH",
"206 710 OFFCURVE",
"42 643 OFFCURVE",
"42 326 CURVE",
"47 265 OFFCURVE",
"60 210 OFFCURVE",
"83 162 CURVE SMOOTH",
"122 80 OFFCURVE",
"198 -1 OFFCURVE",
"347 -1 CURVE SMOOTH"
);
},
{
closed = 1;
nodes = (
"186 53 OFFCURVE",
"89 150 OFFCURVE",
"89 363 CURVE SMOOTH",
"89 576 OFFCURVE",
"262 654 OFFCURVE",
"322 654 CURVE SMOOTH",
"522 654 OFFCURVE",
"554 477 OFFCURVE",
"554 356 CURVE SMOOTH",
"554 295 OFFCURVE",
"537 219 OFFCURVE",
"501 158 CURVE",
"485 177 OFFCURVE",
"473 191 OFFCURVE",
"470 198 CURVE SMOOTH",
"460 216 OFFCURVE",
"460 239 OFFCURVE",
"431 236 CURVE SMOOTH",
"402 233 OFFCURVE",
"382 231 OFFCURVE",
"375 231 CURVE SMOOTH",
"368 231 OFFCURVE",
"371 224 OFFCURVE",
"386 204 CURVE",
"460 105 LINE",
"428 73 OFFCURVE",
"388 53 OFFCURVE",
"337 53 CURVE SMOOTH"
);
}
);
width = 669;
}
);
leftKerningGroup = O;
unicode = 0051;
},
{
glyphname = R;
layers = (
{
anchors = (
{
name = bottom;
position = "{293, 0}";
},
{
name = top;
position = "{254, 710}";
}
);
color = -1;
layerId = "FC508690-ADF2-4DBF-B34D-60B2640A846D";
paths = (
{
closed = 1;
nodes = (
"116 -16 OFFCURVE",
"195 -5 OFFCURVE",
"219 -8 CURVE SMOOTH",
"238 -11 OFFCURVE",
"248 -7 OFFCURVE",
"248 9 CURVE SMOOTH",
"248 12 OFFCURVE",
"248 15 OFFCURVE",
"247 19 CURVE SMOOTH",
"244 30 OFFCURVE",
"240 101 OFFCURVE",
"237 167 CURVE",
"234 206 OFFCURVE",
"232 249 OFFCURVE",
"229 296 CURVE",
"280 197 LINE SMOOTH",
"307 143 OFFCURVE",
"336 86 OFFCURVE",
"349 62 CURVE SMOOTH",
"373 15 OFFCURVE",
"375 -10 OFFCURVE",
"392 -10 CURVE SMOOTH",
"409 -10 OFFCURVE",
"489 -7 OFFCURVE",
"505 -7 CURVE SMOOTH",
"515 -7 OFFCURVE",
"524 -8 OFFCURVE",
"524 -1 CURVE SMOOTH",
"524 4 OFFCURVE",
"520 12 OFFCURVE",
"510 28 CURVE SMOOTH",
"496 48 OFFCURVE",
"457 118 OFFCURVE",
"420 184 CURVE",
"350 311 LINE",
"367 326 OFFCURVE",
"383 344 OFFCURVE",
"396 363 CURVE SMOOTH",
"419 396 OFFCURVE",
"443 443 OFFCURVE",
"443 503 CURVE SMOOTH",
"443 619 OFFCURVE",
"374 710 OFFCURVE",
"218 710 CURVE SMOOTH",
"159 710 OFFCURVE",
"97 700 OFFCURVE",
"86 700 CURVE SMOOTH",
"76 700 OFFCURVE",
"64 704 OFFCURVE",
"64 669 CURVE SMOOTH",
"64 663 OFFCURVE",
"64 655 OFFCURVE",
"65 647 CURVE SMOOTH",
"67 616 OFFCURVE",
"69 537 OFFCURVE",
"69 464 CURVE SMOOTH",
"69 401 OFFCURVE",
"68 343 OFFCURVE",
"64 323 CURVE SMOOTH",
"62 313 OFFCURVE",
"61 293 OFFCURVE",
"61 268 CURVE SMOOTH",
"61 187 OFFCURVE",
"69 52 OFFCURVE",
"69 29 CURVE SMOOTH",
"69 20 OFFCURVE",
"68 12 OFFCURVE",
"68 6 CURVE SMOOTH",
"68 -8 OFFCURVE",
"71 -16 OFFCURVE",
"90 -16 CURVE SMOOTH"
);
},
{
closed = 1;
nodes = (
"223 432 OFFCURVE",
"222 434 OFFCURVE",
"222 437 CURVE SMOOTH",
"222 440 OFFCURVE",
"223 443 OFFCURVE",
"223 446 CURVE SMOOTH",
"223 457 OFFCURVE",
"224 468 OFFCURVE",
"227 481 CURVE",
"230 506 OFFCURVE",
"224 534 OFFCURVE",
"227 537 CURVE SMOOTH",
"232 542 OFFCURVE",
"239 545 OFFCURVE",
"246 545 CURVE SMOOTH",
"262 545 OFFCURVE",
"278 530 OFFCURVE",
"278 488 CURVE SMOOTH",
"278 457 OFFCURVE",
"265 442 OFFCURVE",
"250 435 CURVE SMOOTH",
"242 431 OFFCURVE",
"233 429 OFFCURVE",
"223 429 CURVE"
);
}
);
width = 527;
}
);
unicode = 0052;
},
{
glyphname = S;
layers = (
{
anchors = (
{
name = bottom;
position = "{301, 0}";
},
{
name = top;
position = "{303, 710}";
}
);
color = -1;
layerId = "FC508690-ADF2-4DBF-B34D-60B2640A846D";
paths = (
{
closed = 1;
nodes = (
"428 -21 OFFCURVE",
"536 39 OFFCURVE",
"536 171 CURVE SMOOTH",
"536 370 OFFCURVE",
"388 418 OFFCURVE",
"341 439 CURVE",
"295 458 OFFCURVE",
"224 486 OFFCURVE",
"224 552 CURVE SMOOTH",
"224 619 OFFCURVE",
"262 621 OFFCURVE",
"288 621 CURVE SMOOTH",
"361 621 OFFCURVE",
"453 518 OFFCURVE",
"463 518 CURVE SMOOTH",
"474 518 OFFCURVE",
"474 524 OFFCURVE",
"483 535 CURVE SMOOTH",
"494 547 OFFCURVE",
"511 576 OFFCURVE",
"518 585 CURVE",
"521 591 OFFCURVE",
"524 595 OFFCURVE",
"524 599 CURVE SMOOTH",
"524 602 OFFCURVE",
"523 605 OFFCURVE",
"520 608 CURVE SMOOTH",
"512 616 OFFCURVE",
"419 717 OFFCURVE",
"268 717 CURVE SMOOTH",
"195 717 OFFCURVE",
"49 636 OFFCURVE",
"49 507 CURVE SMOOTH",
"49 378 OFFCURVE",
"186 332 OFFCURVE",
"231 300 CURVE SMOOTH",
"276 268 OFFCURVE",
"340 215 OFFCURVE",
"340 153 CURVE SMOOTH",
"340 92 OFFCURVE",
"282 84 OFFCURVE",
"246 84 CURVE SMOOTH",
"168 84 OFFCURVE",
"123 132 OFFCURVE",
"112 143 CURVE SMOOTH",
"104 151 OFFCURVE",
"98 162 OFFCURVE",
"91 162 CURVE SMOOTH",
"88 162 OFFCURVE",
"86 161 OFFCURVE",
"83 158 CURVE SMOOTH",
"72 147 OFFCURVE",
"53 126 OFFCURVE",
"45 115 CURVE SMOOTH",
"40 109 OFFCURVE",
"37 106 OFFCURVE",
"37 102 CURVE SMOOTH",
"37 99 OFFCURVE",
"38 96 OFFCURVE",
"41 92 CURVE SMOOTH",
"50 83 OFFCURVE",
"102 -21 OFFCURVE",
"265 -21 CURVE SMOOTH"
);
}
);
width = 576;
}
);
unicode = 0053;
},
{
glyphname = Scedilla;
layers = (
{
color = -1;
layerId = "FC508690-ADF2-4DBF-B34D-60B2640A846D";
paths = (
{
closed = 1;
nodes = (
"335 -160 OFFCURVE",
"342 -155 OFFCURVE",
"353 -150 CURVE SMOOTH",
"358 -147 OFFCURVE",
"363 -144 OFFCURVE",
"368 -139 CURVE SMOOTH",
"379 -130 OFFCURVE",
"398 -117 OFFCURVE",
"399 -85 CURVE",
"399 -30 OFFCURVE",
"370 -15 OFFCURVE",
"337 -15 CURVE SMOOTH",
"306 -15 OFFCURVE",
"302 -17 OFFCURVE",
"289 -24 CURVE",
"293 -10 OFFCURVE",
"300 1 OFFCURVE",
"313 19 CURVE",
"450 29 OFFCURVE",
"538 86 OFFCURVE",
"538 199 CURVE SMOOTH",
"538 387 OFFCURVE",
"390 434 OFFCURVE",
"342 453 CURVE SMOOTH",
"297 472 OFFCURVE",
"225 499 OFFCURVE",
"225 560 CURVE SMOOTH",
"225 624 OFFCURVE",
"263 626 OFFCURVE",
"289 626 CURVE SMOOTH",
"361 626 OFFCURVE",
"455 528 OFFCURVE",
"465 528 CURVE SMOOTH",
"476 528 OFFCURVE",
"476 535 OFFCURVE",
"485 544 CURVE SMOOTH",
"496 556 OFFCURVE",
"513 583 OFFCURVE",
"520 592 CURVE SMOOTH",
"523 597 OFFCURVE",
"526 601 OFFCURVE",
"526 606 CURVE SMOOTH",
"526 608 OFFCURVE",
"525 611 OFFCURVE",
"522 614 CURVE",
"512 620 OFFCURVE",
"422 717 OFFCURVE",
"269 717 CURVE SMOOTH",
"196 717 OFFCURVE",
"49 639 OFFCURVE",
"49 518 CURVE SMOOTH",
"49 394 OFFCURVE",
"186 353 OFFCURVE",
"232 321 CURVE",
"277 292 OFFCURVE",
"341 241 OFFCURVE",
"341 182 CURVE SMOOTH",
"341 124 OFFCURVE",
"283 117 OFFCURVE",
"247 117 CURVE SMOOTH",
"169 117 OFFCURVE",
"123 162 OFFCURVE",
"112 173 CURVE",
"103 180 OFFCURVE",
"97 190 OFFCURVE",
"90 190 CURVE SMOOTH",
"88 190 OFFCURVE",
"85 189 OFFCURVE",
"83 187 CURVE SMOOTH",
"72 176 OFFCURVE",
"53 157 OFFCURVE",
"45 146 CURVE SMOOTH",
"40 140 OFFCURVE",
"37 138 OFFCURVE",
"37 134 CURVE SMOOTH",
"37 131 OFFCURVE",
"38 128 OFFCURVE",
"41 124 CURVE SMOOTH",
"50 115 OFFCURVE",
"102 17 OFFCURVE",
"266 17 CURVE",
"261 3 OFFCURVE",
"258 -8 OFFCURVE",
"256 -18 CURVE SMOOTH",
"252 -34 OFFCURVE",
"249 -37 OFFCURVE",
"249 -54 CURVE",
"250 -61 OFFCURVE",
"256 -62 OFFCURVE",
"280 -62 CURVE SMOOTH",
"287 -62 OFFCURVE",
"298 -48 OFFCURVE",
"313 -48 CURVE SMOOTH",
"332 -48 OFFCURVE",
"337 -62 OFFCURVE",
"337 -81 CURVE",
"331 -106 OFFCURVE",
"322 -105 OFFCURVE",
"296 -107 CURVE",
"279 -107 OFFCURVE",
"271 -105 OFFCURVE",
"258 -101 CURVE",
"245 -94 OFFCURVE",
"238 -88 OFFCURVE",
"234 -88 CURVE SMOOTH",
"232 -88 OFFCURVE",
"231 -89 OFFCURVE",
"231 -92 CURVE SMOOTH",
"226 -115 OFFCURVE",
"223 -130 OFFCURVE",
"223 -141 CURVE SMOOTH",
"223 -152 OFFCURVE",
"259 -160 OFFCURVE",
"290 -160 CURVE SMOOTH"
);
}
);
width = 576;
}
);
leftKerningGroup = S;
rightKerningGroup = S;
unicode = 015E;
},
{
glyphname = Germandbls;
layers = (
{
color = -1;
layerId = "FC508690-ADF2-4DBF-B34D-60B2640A846D";
paths = (
{
closed = 1;
nodes = (
"461 -9 OFFCURVE",
"569 13 OFFCURVE",
"569 167 CURVE SMOOTH",
"569 218 OFFCURVE",
"559 239 OFFCURVE",
"539 267 CURVE SMOOTH",
"530 281 OFFCURVE",
"518 293 OFFCURVE",
"505 303 CURVE SMOOTH",
"480 324 OFFCURVE",
"450 359 OFFCURVE",
"413 391 CURVE SMOOTH",
"395 406 OFFCURVE",
"379 420 OFFCURVE",
"366 433 CURVE",
"398 478 OFFCURVE",
"417 507 OFFCURVE",
"454 543 CURVE SMOOTH",
"473 561 OFFCURVE",
"487 581 OFFCURVE",
"494 603 CURVE",
"459 664 OFFCURVE",
"431 695 OFFCURVE",
"387 706 CURVE SMOOTH",
"343 717 OFFCURVE",
"294 720 OFFCURVE",
"253 720 CURVE SMOOTH",
"231 720 OFFCURVE",
"200 714 OFFCURVE",
"159 702 CURVE",
"96 675 OFFCURVE",
"70 636 OFFCURVE",
"69 608 CURVE SMOOTH",
"69 601 OFFCURVE",
"68 595 OFFCURVE",
"68 589 CURVE SMOOTH",
"68 583 OFFCURVE",
"69 578 OFFCURVE",
"69 573 CURVE SMOOTH",
"70 564 OFFCURVE",
"70 547 OFFCURVE",
"70 524 CURVE SMOOTH",
"70 477 OFFCURVE",
"67 432 OFFCURVE",
"67 388 CURVE SMOOTH",
"67 344 OFFCURVE",
"68 317 OFFCURVE",
"68 274 CURVE SMOOTH",
"68 231 OFFCURVE",
"62 212 OFFCURVE",
"62 169 CURVE SMOOTH",
"62 126 OFFCURVE",
"64 92 OFFCURVE",
"64 77 CURVE SMOOTH",
"65 24 LINE SMOOTH",
"65 12 OFFCURVE",
"62 5 OFFCURVE",
"81 4 CURVE SMOOTH",
"99 3 OFFCURVE",
"125 5 OFFCURVE",
"141 4 CURVE SMOOTH",
"150 3 OFFCURVE",
"158 2 OFFCURVE",
"164 2 CURVE SMOOTH",
"179 2 OFFCURVE",
"187 7 OFFCURVE",
"187 25 CURVE SMOOTH",
"186 143 LINE SMOOTH",
"186 178 OFFCURVE",
"189 206 OFFCURVE",
"189 241 CURVE SMOOTH",
"189 258 OFFCURVE",
"188 283 OFFCURVE",
"188 304 CURVE",
"187 316 OFFCURVE",
"187 329 OFFCURVE",
"187 342 CURVE",
"189 424 LINE SMOOTH",
"189 439 OFFCURVE",
"190 456 OFFCURVE",
"190 475 CURVE SMOOTH",
"190 543 LINE",
"191 570 OFFCURVE",
"198 592 OFFCURVE",
"212 609 CURVE SMOOTH",
"227 627 OFFCURVE",
"250 636 OFFCURVE",
"282 636 CURVE SMOOTH",
"338 636 OFFCURVE",
"364 623 OFFCURVE",
"387 589 CURVE",
"364 562 OFFCURVE",
"349 543 OFFCURVE",
"342 532 CURVE SMOOTH",
"317 495 LINE SMOOTH",
"308 481 OFFCURVE",
"298 466 OFFCURVE",
"289 450 CURVE",
"289 415 OFFCURVE",
"292 390 OFFCURVE",
"298 377 CURVE SMOOTH",
"304 364 OFFCURVE",
"312 350 OFFCURVE",
"321 335 CURVE SMOOTH",
"340 306 OFFCURVE",
"365 284 OFFCURVE",
"390 264 CURVE SMOOTH",
"442 225 OFFCURVE",
"495 196 OFFCURVE",
"495 146 CURVE SMOOTH",
"495 95 OFFCURVE",
"477 84 OFFCURVE",
"454 71 CURVE SMOOTH",
"431 58 OFFCURVE",
"406 56 OFFCURVE",
"395 56 CURVE SMOOTH",
"369 56 OFFCURVE",
"329 83 OFFCURVE",
"320 97 CURVE",
"309 110 OFFCURVE",
"310 111 OFFCURVE",
"307 111 CURVE SMOOTH",
"306 111 OFFCURVE",
"306 111 OFFCURVE",
"305 111 CURVE SMOOTH",
"302 111 OFFCURVE",
"300 106 OFFCURVE",
"297 99 CURVE SMOOTH",
"294 94 OFFCURVE",
"289 72 OFFCURVE",
"289 69 CURVE",
"286 64 OFFCURVE",
"287 58 OFFCURVE",
"292 53 CURVE",
"294 46 OFFCURVE",
"346 -9 OFFCURVE",
"401 -9 CURVE SMOOTH"
);
}
);
width = 593;
}
);
unicode = 1E9E;
},
{
glyphname = Schwa;
layers = (
{
color = -1;
layerId = "FC508690-ADF2-4DBF-B34D-60B2640A846D";
paths = (
{
closed = 1;
nodes = (
"338 -32 OFFCURVE",
"377 0 OFFCURVE",
"410 45 CURVE SMOOTH",
"427 68 OFFCURVE",
"442 93 OFFCURVE",
"453 120 CURVE SMOOTH",
"464 148 OFFCURVE",
"473 180 OFFCURVE",
"480 216 CURVE SMOOTH",
"487 252 OFFCURVE",
"491 282 OFFCURVE",
"494 305 CURVE SMOOTH",
"497 328 OFFCURVE",
"498 347 OFFCURVE",
"498 360 CURVE SMOOTH",
"498 399 OFFCURVE",
"496 419 OFFCURVE",
"491 460 CURVE SMOOTH",
"486 503 OFFCURVE",
"476 546 OFFCURVE",
"460 581 CURVE",
"443 605 OFFCURVE",
"423 637 OFFCURVE",
"392 666 CURVE SMOOTH",
"363 695 OFFCURVE",
"298 717 OFFCURVE",
"245 717 CURVE SMOOTH",
"157 717 OFFCURVE",
"77 697 OFFCURVE",
"46 669 CURVE SMOOTH",
"39 663 OFFCURVE",
"35 654 OFFCURVE",
"35 642 CURVE SMOOTH",
"35 631 OFFCURVE",
"39 617 OFFCURVE",
"46 600 CURVE SMOOTH",
"61 567 OFFCURVE",
"74 555 OFFCURVE",
"85 564 CURVE SMOOTH",
"96 573 OFFCURVE",
"113 581 OFFCURVE",
"137 587 CURVE SMOOTH",
"161 594 OFFCURVE",
"191 597 OFFCURVE",
"228 597 CURVE SMOOTH",
"266 597 OFFCURVE",
"294 590 OFFCURVE",
"311 576 CURVE SMOOTH",
"328 563 OFFCURVE",
"343 549 OFFCURVE",
"354 536 CURVE SMOOTH",
"377 511 OFFCURVE",
"387 483 OFFCURVE",
"390 443 CURVE",
"393 424 OFFCURVE",
"394 401 OFFCURVE",
"393 374 CURVE",
"367 376 OFFCURVE",
"326 378 OFFCURVE",
"267 378 CURVE SMOOTH",
"255 378 OFFCURVE",
"241 378 OFFCURVE",
"227 378 CURVE SMOOTH",
"102 379 OFFCURVE",
"39 371 OFFCURVE",
"40 354 CURVE",
"40 230 OFFCURVE",
"49 142 OFFCURVE",
"66 90 CURVE SMOOTH",
"83 39 OFFCURVE",
"109 6 OFFCURVE",
"143 -9 CURVE SMOOTH",
"177 -24 OFFCURVE",
"213 -32 OFFCURVE",
"251 -32 CURVE SMOOTH"
);
},
{
closed = 1;
nodes = (
"222 64 OFFCURVE",
"197 72 OFFCURVE",
"173 100 CURVE SMOOTH",
"162 114 OFFCURVE",
"153 138 OFFCURVE",
"147 172 CURVE SMOOTH",
"141 206 OFFCURVE",
"138 236 OFFCURVE",
"138 261 CURVE",
"187 265 OFFCURVE",
"237 267 OFFCURVE",
"290 267 CURVE SMOOTH",
"323 267 OFFCURVE",
"357 267 OFFCURVE",
"392 265 CURVE",
"392 257 OFFCURVE",
"393 247 OFFCURVE",
"393 235 CURVE SMOOTH",
"393 214 OFFCURVE",
"390 186 OFFCURVE",
"375 150 CURVE",
"350 95 OFFCURVE",
"340 69 OFFCURVE",
"243 64 CURVE"
);
}
);
width = 541;
}
);
unicode = 018F;
},
{
glyphname = T;
layers = (
{
anchors = (
{
name = bottom;
position = "{259, 0}";
},
{
name = top;
position = "{261, 710}";
}
);
color = -1;
layerId = "FC508690-ADF2-4DBF-B34D-60B2640A846D";
paths = (
{
closed = 1;
nodes = (
"291 0 LINE SMOOTH",
"301 0 OFFCURVE",
"306 -2 OFFCURVE",
"306 13 CURVE SMOOTH",
"306 15 OFFCURVE",
"306 16 OFFCURVE",
"306 18 CURVE SMOOTH",
"306 33 OFFCURVE",
"303 198 OFFCURVE",
"303 309 CURVE SMOOTH",
"303 346 OFFCURVE",
"303 377 OFFCURVE",
"304 394 CURVE",
"306 497 LINE",
"482 497 LINE SMOOTH",
"505 497 OFFCURVE",
"517 506 OFFCURVE",
"517 524 CURVE",
"516 540 OFFCURVE",
"514 571 OFFCURVE",
"514 600 CURVE SMOOTH",
"514 642 OFFCURVE",
"516 666 OFFCURVE",
"517 676 CURVE SMOOTH",
"518 684 OFFCURVE",
"513 702 OFFCURVE",
"477 701 CURVE",
"468 700 OFFCURVE",
"455 700 OFFCURVE",
"438 700 CURVE SMOOTH",
"382 700 OFFCURVE",
"293 703 OFFCURVE",
"265 703 CURVE SMOOTH",
"228 703 OFFCURVE",
"164 700 OFFCURVE",
"136 700 CURVE",
"37 700 LINE SMOOTH",
"29 700 OFFCURVE",
"19 701 OFFCURVE",
"19 685 CURVE SMOOTH",
"19 683 OFFCURVE",
"19 680 OFFCURVE",
"19 678 CURVE SMOOTH",
"20 673 OFFCURVE",
"20 663 OFFCURVE",
"20 649 CURVE SMOOTH",
"20 604 OFFCURVE",
"17 526 OFFCURVE",
"17 517 CURVE",
"14 506 OFFCURVE",
"18 494 OFFCURVE",
"37 494 CURVE SMOOTH",
"50 494 OFFCURVE",
"145 497 OFFCURVE",
"214 497 CURVE",
"214 470 OFFCURVE",
"217 407 OFFCURVE",
"217 366 CURVE SMOOTH",
"217 314 OFFCURVE",
"207 62 OFFCURVE",
"207 34 CURVE SMOOTH",
"207 6 OFFCURVE",
"204 0 OFFCURVE",
"223 0 CURVE SMOOTH"
);
}
);
width = 529;
}
);
leftKerningGroup = T;
rightKerningGroup = T;
unicode = 0054;
},
{
glyphname = Tcedilla;
layers = (
{
color = -1;
layerId = "FC508690-ADF2-4DBF-B34D-60B2640A846D";
paths = (
{
closed = 1;
nodes = (
"291 -160 OFFCURVE",
"298 -155 OFFCURVE",
"309 -150 CURVE SMOOTH",
"314 -147 OFFCURVE",
"319 -144 OFFCURVE",
"324 -139 CURVE SMOOTH",
"335 -130 OFFCURVE",
"354 -117 OFFCURVE",
"355 -85 CURVE",
"355 -30 OFFCURVE",
"326 -15 OFFCURVE",
"293 -15 CURVE SMOOTH",
"262 -15 OFFCURVE",
"258 -17 OFFCURVE",
"245 -24 CURVE",
"250 -8 OFFCURVE",
"258 4 OFFCURVE",
"274 26 CURVE",
"297 26 LINE SMOOTH",
"307 26 OFFCURVE",
"312 24 OFFCURVE",
"312 39 CURVE SMOOTH",
"312 41 OFFCURVE",
"312 42 OFFCURVE",
"312 44 CURVE SMOOTH",
"312 49 OFFCURVE",
"310 142 OFFCURVE",
"310 200 CURVE SMOOTH",
"310 239 OFFCURVE",
"309 299 OFFCURVE",
"309 343 CURVE SMOOTH",
"309 366 OFFCURVE",
"309 384 OFFCURVE",
"310 394 CURVE",
"312 497 LINE",
"488 497 LINE SMOOTH",
"511 497 OFFCURVE",
"523 506 OFFCURVE",
"523 524 CURVE",
"522 540 OFFCURVE",
"520 571 OFFCURVE",
"520 600 CURVE SMOOTH",
"520 642 OFFCURVE",
"522 666 OFFCURVE",
"523 676 CURVE SMOOTH",
"524 684 OFFCURVE",
"519 702 OFFCURVE",
"483 701 CURVE",
"474 700 OFFCURVE",
"461 700 OFFCURVE",
"444 700 CURVE SMOOTH",
"388 700 OFFCURVE",
"299 703 OFFCURVE",
"271 703 CURVE SMOOTH",
"234 703 OFFCURVE",
"170 700 OFFCURVE",
"142 700 CURVE",
"43 700 LINE SMOOTH",
"35 700 OFFCURVE",
"25 701 OFFCURVE",
"25 685 CURVE SMOOTH",
"25 683 OFFCURVE",
"25 680 OFFCURVE",
"25 678 CURVE SMOOTH",
"26 673 OFFCURVE",
"26 663 OFFCURVE",
"26 649 CURVE SMOOTH",
"26 604 OFFCURVE",
"23 526 OFFCURVE",
"23 517 CURVE",
"20 506 OFFCURVE",
"24 494 OFFCURVE",
"43 494 CURVE SMOOTH",
"56 494 OFFCURVE",
"151 497 OFFCURVE",
"220 497 CURVE",
"220 470 OFFCURVE",
"223 407 OFFCURVE",
"223 366 CURVE SMOOTH",
"223 345 OFFCURVE",
"220 253 OFFCURVE",
"218 204 CURVE SMOOTH",
"216 155 OFFCURVE",
"213 69 OFFCURVE",
"213 60 CURVE SMOOTH",
"213 34 OFFCURVE",
"210 27 OFFCURVE",
"225 26 CURVE",
"218 8 OFFCURVE",
"214 -6 OFFCURVE",
"212 -18 CURVE SMOOTH",
"208 -34 OFFCURVE",
"205 -37 OFFCURVE",
"205 -54 CURVE",
"206 -61 OFFCURVE",
"212 -62 OFFCURVE",
"236 -62 CURVE SMOOTH",
"243 -62 OFFCURVE",
"254 -48 OFFCURVE",
"269 -48 CURVE SMOOTH",
"288 -48 OFFCURVE",
"293 -62 OFFCURVE",
"293 -81 CURVE",
"287 -106 OFFCURVE",
"278 -105 OFFCURVE",
"252 -107 CURVE",
"235 -107 OFFCURVE",
"227 -105 OFFCURVE",
"214 -101 CURVE",
"201 -94 OFFCURVE",
"194 -88 OFFCURVE",
"190 -88 CURVE SMOOTH",
"188 -88 OFFCURVE",
"187 -89 OFFCURVE",
"187 -92 CURVE SMOOTH",
"182 -115 OFFCURVE",
"179 -130 OFFCURVE",
"179 -141 CURVE SMOOTH",
"179 -152 OFFCURVE",
"215 -160 OFFCURVE",
"246 -160 CURVE SMOOTH"
);
}
);
width = 542;
}
);
leftKerningGroup = T;
rightKerningGroup = T;
unicode = 0162;
},
{
glyphname = U;
layers = (
{
anchors = (
{
name = bottom;
position = "{246, 0}";
},
{
name = ogonek;
position = "{284, 10}";
},
{
name = top;
position = "{216, 710}";
},
{
name = topright;
position = "{384, 703}";
}
);
color = -1;
layerId = "FC508690-ADF2-4DBF-B34D-60B2640A846D";
paths = (
{
closed = 1;
nodes = (
"325 3 OFFCURVE",
"430 60 OFFCURVE",
"433 247 CURVE SMOOTH",
"436 436 OFFCURVE",
"424 558 OFFCURVE",
"427 593 CURVE SMOOTH",
"428 603 OFFCURVE",
"428 614 OFFCURVE",
"428 625 CURVE SMOOTH",
"428 647 OFFCURVE",
"427 668 OFFCURVE",
"426 679 CURVE SMOOTH",
"425 695 OFFCURVE",
"427 703 OFFCURVE",
"404 703 CURVE SMOOTH",
"381 703 OFFCURVE",
"344 702 OFFCURVE",
"333 703 CURVE SMOOTH",
"324 703 OFFCURVE",
"305 708 OFFCURVE",
"305 683 CURVE SMOOTH",
"305 678 OFFCURVE",
"306 672 OFFCURVE",
"308 664 CURVE SMOOTH",
"311 649 OFFCURVE",
"312 625 OFFCURVE",
"312 595 CURVE SMOOTH",
"312 531 OFFCURVE",
"307 444 OFFCURVE",
"307 392 CURVE SMOOTH",
"307 317 OFFCURVE",
"302 190 OFFCURVE",
"302 165 CURVE SMOOTH",
"302 138 OFFCURVE",
"286 86 OFFCURVE",
"219 86 CURVE SMOOTH",
"154 86 OFFCURVE",
"106 171 OFFCURVE",
"106 288 CURVE SMOOTH",
"106 435 OFFCURVE",
"109 763 OFFCURVE",
"109 691 CURVE SMOOTH",
"109 698 OFFCURVE",
"108 702 OFFCURVE",
"104 702 CURVE SMOOTH",
"97 702 OFFCURVE",
"92 700 OFFCURVE",
"86 700 CURVE SMOOTH",
"82 700 OFFCURVE",
"79 701 OFFCURVE",
"75 701 CURVE",
"68 704 OFFCURVE",
"56 706 OFFCURVE",
"56 678 CURVE SMOOTH",
"56 673 OFFCURVE",
"56 668 OFFCURVE",
"57 662 CURVE SMOOTH",
"59 634 OFFCURVE",
"61 549 OFFCURVE",
"61 480 CURVE SMOOTH",
"61 437 OFFCURVE",
"61 401 OFFCURVE",
"59 387 CURVE SMOOTH",
"57 374 OFFCURVE",
"56 345 OFFCURVE",
"56 311 CURVE SMOOTH",
"56 250 OFFCURVE",
"60 173 OFFCURVE",
"70 140 CURVE SMOOTH",
"86 88 OFFCURVE",
"132 3 OFFCURVE",
"228 3 CURVE SMOOTH"
);
}
);
width = 488;
}
);
unicode = 0055;
},
{
glyphname = V;
layers = (
{
color = -1;
layerId = "FC508690-ADF2-4DBF-B34D-60B2640A846D";
paths = (
{
closed = 1;
nodes = (
"234 1 OFFCURVE",
"346 9 OFFCURVE",
"363 9 CURVE SMOOTH",
"370 9 OFFCURVE",
"375 8 OFFCURVE",
"379 8 CURVE SMOOTH",
"386 8 OFFCURVE",
"390 11 OFFCURVE",
"394 25 CURVE SMOOTH",
"402 49 OFFCURVE",
"428 238 OFFCURVE",
"448 317 CURVE",
"470 395 OFFCURVE",
"498 540 OFFCURVE",
"506 581 CURVE",
"515 621 OFFCURVE",
"523 660 OFFCURVE",
"530 679 CURVE SMOOTH",
"532 686 OFFCURVE",
"533 691 OFFCURVE",
"533 695 CURVE SMOOTH",
"533 702 OFFCURVE",
"529 705 OFFCURVE",
"514 707 CURVE SMOOTH",
"490 710 OFFCURVE",
"411 710 OFFCURVE",
"395 710 CURVE SMOOTH",
"377 710 OFFCURVE",
"358 717 OFFCURVE",
"361 673 CURVE SMOOTH",
"364 633 OFFCURVE",
"314 475 OFFCURVE",
"311 432 CURVE",
"308 411 OFFCURVE",
"302 373 OFFCURVE",
"295 341 CURVE",
"282 282 LINE",
"260 381 LINE SMOOTH",
"249 434 OFFCURVE",
"237 493 OFFCURVE",
"233 521 CURVE SMOOTH",
"221 605 OFFCURVE",
"214 659 OFFCURVE",
"209 678 CURVE",
"205 698 OFFCURVE",
"202 712 OFFCURVE",
"175 709 CURVE",
"149 709 OFFCURVE",
"85 705 OFFCURVE",
"64 705 CURVE SMOOTH",
"45 705 OFFCURVE",
"22 715 OFFCURVE",
"22 700 CURVE SMOOTH",
"22 697 OFFCURVE",
"23 694 OFFCURVE",
"24 690 CURVE SMOOTH",
"32 661 OFFCURVE",
"96 373 OFFCURVE",
"112 314 CURVE SMOOTH",
"128 254 OFFCURVE",
"178 64 OFFCURVE",
"184 39 CURVE",
"187 15 OFFCURVE",
"189 1 OFFCURVE",
"212 1 CURVE SMOOTH"
);
}
);
width = 546;
}
);
leftKerningGroup = V;
rightKerningGroup = V;
unicode = 0056;
},
{
glyphname = W;
layers = (
{
anchors = (
{
name = bottom;
position = "{337, 0}";
},
{
name = top;
position = "{351, 710}";
}
);
color = -1;
layerId = "FC508690-ADF2-4DBF-B34D-60B2640A846D";
paths = (
{
closed = 1;
nodes = (
"230 -1 OFFCURVE",
"240 19 OFFCURVE",
"244 34 CURVE SMOOTH",
"247 44 OFFCURVE",
"275 165 OFFCURVE",
"289 206 CURVE",
"306 249 OFFCURVE",
"320 285 OFFCURVE",
"327 300 CURVE SMOOTH",
"341 328 LINE",
"355 291 LINE SMOOTH",
"363 271 OFFCURVE",
"371 249 OFFCURVE",
"375 234 CURVE",
"383 211 OFFCURVE",
"409 136 OFFCURVE",
"417 117 CURVE SMOOTH",
"425 96 OFFCURVE",
"450 30 OFFCURVE",
"458 20 CURVE",
"465 5 OFFCURVE",
"468 -1 OFFCURVE",
"479 -1 CURVE SMOOTH",
"486 -1 OFFCURVE",
"486 15 OFFCURVE",
"489 30 CURVE",
"494 40 OFFCURVE",
"519 206 OFFCURVE",
"531 238 CURVE SMOOTH",
"542 265 OFFCURVE",
"545 285 OFFCURVE",
"545 296 CURVE SMOOTH",
"545 306 OFFCURVE",
"557 387 OFFCURVE",
"565 421 CURVE",
"576 456 OFFCURVE",
"607 580 OFFCURVE",
"617 611 CURVE SMOOTH",
"628 642 OFFCURVE",
"631 663 OFFCURVE",
"638 680 CURVE",
"639 685 OFFCURVE",
"640 689 OFFCURVE",
"640 692 CURVE SMOOTH",
"640 698 OFFCURVE",
"637 701 OFFCURVE",
"628 701 CURVE",
"625 702 OFFCURVE",
"620 702 OFFCURVE",
"615 702 CURVE SMOOTH",
"603 702 OFFCURVE",
"587 700 OFFCURVE",
"579 698 CURVE",
"568 698 OFFCURVE",
"558 691 OFFCURVE",
"555 663 CURVE SMOOTH",
"552 639 OFFCURVE",
"528 583 OFFCURVE",
"520 549 CURVE",
"509 510 OFFCURVE",
"507 466 OFFCURVE",
"500 445 CURVE",
"490 420 LINE",
"488 417 OFFCURVE",
"487 414 OFFCURVE",
"486 411 CURVE",
"468 451 LINE",
"437 518 LINE",
"424 549 OFFCURVE",
"397 621 OFFCURVE",
"389 642 CURVE",
"386 663 OFFCURVE",
"382 669 OFFCURVE",
"379 684 CURVE SMOOTH",
"375 699 OFFCURVE",
"376 701 OFFCURVE",
"365 701 CURVE SMOOTH",
"354 701 OFFCURVE",
"335 655 OFFCURVE",
"327 635 CURVE",
"319 611 OFFCURVE",
"283 511 OFFCURVE",
"275 480 CURVE SMOOTH",
"267 451 OFFCURVE",
"252 390 OFFCURVE",
"244 372 CURVE",
"234 344 LINE",
"230 331 LINE",
"213 375 LINE SMOOTH",
"202 402 OFFCURVE",
"190 436 OFFCURVE",
"178 473 CURVE",
"149 545 OFFCURVE",
"124 639 OFFCURVE",
"116 666 CURVE",
"112 687 OFFCURVE",
"110 698 OFFCURVE",
"95 694 CURVE SMOOTH",
"84 692 LINE SMOOTH",
"77 691 OFFCURVE",
"69 691 OFFCURVE",
"60 691 CURVE SMOOTH",
"29 691 LINE SMOOTH",
"25 691 OFFCURVE",
"22 691 OFFCURVE",
"22 686 CURVE SMOOTH",
"22 682 OFFCURVE",
"23 676 OFFCURVE",
"26 666 CURVE SMOOTH",
"34 642 OFFCURVE",
"56 552 OFFCURVE",
"67 514 CURVE SMOOTH",
"78 477 OFFCURVE",
"123 307 OFFCURVE",
"133 283 CURVE",
"141 255 OFFCURVE",
"157 195 OFFCURVE",
"168 168 CURVE SMOOTH",
"179 141 OFFCURVE",
"201 28 OFFCURVE",
"206 20 CURVE",
"209 9 OFFCURVE",
"212 -1 OFFCURVE",
"223 -1 CURVE SMOOTH"
);
}
);
width = 658;
}
);
leftKerningGroup = W;
rightKerningGroup = W;
unicode = 0057;
},
{
glyphname = X;
layers = (
{
color = -1;
layerId = "FC508690-ADF2-4DBF-B34D-60B2640A846D";
paths = (
{
closed = 1;
nodes = (
"534 -6 OFFCURVE",
"541 -5 OFFCURVE",
"541 1 CURVE SMOOTH",
"541 4 OFFCURVE",
"540 7 OFFCURVE",
"537 12 CURVE SMOOTH",
"529 27 OFFCURVE",
"485 101 OFFCURVE",
"464 133 CURVE",
"440 165 OFFCURVE",
"411 216 OFFCURVE",
"395 245 CURVE SMOOTH",
"379 272 OFFCURVE",
"352 312 OFFCURVE",
"345 327 CURVE SMOOTH",
"341 336 OFFCURVE",
"338 342 OFFCURVE",
"338 348 CURVE SMOOTH",
"338 353 OFFCURVE",
"340 358 OFFCURVE",
"345 365 CURVE",
"353 381 OFFCURVE",
"424 521 OFFCURVE",
"443 548 CURVE SMOOTH",
"462 575 OFFCURVE",
"494 628 OFFCURVE",
"515 654 CURVE",
"535 681 OFFCURVE",
"542 692 OFFCURVE",
"546 704 CURVE SMOOTH",
"552 719 OFFCURVE",
"538 727 OFFCURVE",
"516 727 CURVE SMOOTH",
"504 727 OFFCURVE",
"491 724 OFFCURVE",
"480 719 CURVE SMOOTH",
"466 711 OFFCURVE",
"454 675 OFFCURVE",
"438 654 CURVE SMOOTH",
"423 633 OFFCURVE",
"379 564 OFFCURVE",
"366 543 CURVE",
"311 453 LINE SMOOTH",
"303 440 OFFCURVE",
"300 423 OFFCURVE",
"289 423 CURVE",
"278 439 OFFCURVE",
"268 455 OFFCURVE",
"258 472 CURVE SMOOTH",
"241 500 OFFCURVE",
"220 535 OFFCURVE",
"205 562 CURVE SMOOTH",
"174 615 OFFCURVE",
"156 642 OFFCURVE",
"139 669 CURVE",
"120 696 OFFCURVE",
"112 719 OFFCURVE",
"95 720 CURVE SMOOTH",
"79 720 OFFCURVE",
"59 717 OFFCURVE",
"44 718 CURVE SMOOTH",
"35 719 OFFCURVE",
"30 716 OFFCURVE",
"30 709 CURVE SMOOTH",
"30 704 OFFCURVE",
"32 699 OFFCURVE",
"37 691 CURVE SMOOTH",
"47 673 OFFCURVE",
"134 541 OFFCURVE",
"150 510 CURVE SMOOTH",
"166 478 OFFCURVE",
"223 383 OFFCURVE",
"231 366 CURVE SMOOTH",
"235 358 OFFCURVE",
"238 351 OFFCURVE",
"238 342 CURVE SMOOTH",
"238 334 OFFCURVE",
"235 324 OFFCURVE",
"226 311 CURVE SMOOTH",
"207 287 OFFCURVE",
"167 219 OFFCURVE",
"140 184 CURVE",
"115 149 OFFCURVE",
"49 60 OFFCURVE",
"37 40 CURVE SMOOTH",
"29 27 OFFCURVE",
"22 18 OFFCURVE",
"22 11 CURVE SMOOTH",
"22 7 OFFCURVE",
"25 4 OFFCURVE",
"31 2 CURVE SMOOTH",
"42 -1 OFFCURVE",
"55 -3 OFFCURVE",
"67 -3 CURVE SMOOTH",
"74 -3 OFFCURVE",
"80 -2 OFFCURVE",
"84 -1 CURVE SMOOTH",
"96 4 OFFCURVE",
"121 33 OFFCURVE",
"133 60 CURVE SMOOTH",
"144 87 OFFCURVE",
"184 153 OFFCURVE",
"202 176 CURVE SMOOTH",
"221 200 OFFCURVE",
"258 251 OFFCURVE",
"268 263 CURVE SMOOTH",
"273 270 OFFCURVE",
"277 275 OFFCURVE",
"281 275 CURVE SMOOTH",
"284 275 OFFCURVE",
"288 272 OFFCURVE",
"293 265 CURVE SMOOTH",
"304 248 OFFCURVE",
"359 156 OFFCURVE",
"373 129 CURVE",
"386 100 OFFCURVE",
"419 62 OFFCURVE",
"433 35 CURVE SMOOTH",
"448 8 OFFCURVE",
"448 -4 OFFCURVE",
"460 -5 CURVE",
"523 -6 LINE SMOOTH"
);
}
);
width = 572;
}
);
unicode = 0058;
},
{
glyphname = Y;
layers = (
{
anchors = (
{
name = bottom;
position = "{416, 156}";
},
{
name = top;
position = "{265, 710}";
}
);
color = -1;
layerId = "FC508690-ADF2-4DBF-B34D-60B2640A846D";
paths = (
{
closed = 1;
nodes = (
"131 -3 OFFCURVE",
"143 -3 OFFCURVE",
"163 -2 CURVE",
"184 -2 OFFCURVE",
"197 -2 OFFCURVE",
"203 -1 CURVE",
"230 -1 LINE",
"238 -2 OFFCURVE",
"243 5 OFFCURVE",
"246 19 CURVE SMOOTH",
"249 33 OFFCURVE",
"255 75 OFFCURVE",
"261 92 CURVE",
"265 109 OFFCURVE",
"339 284 OFFCURVE",
"354 330 CURVE",
"370 374 OFFCURVE",
"425 517 OFFCURVE",
"441 554 CURVE SMOOTH",
"457 592 OFFCURVE",
"477 658 OFFCURVE",
"482 670 CURVE SMOOTH",
"483 674 OFFCURVE",
"484 676 OFFCURVE",
"484 679 CURVE SMOOTH",
"484 684 OFFCURVE",
"479 687 OFFCURVE",
"463 689 CURVE SMOOTH",
"444 691 OFFCURVE",
"408 690 OFFCURVE",
"400 690 CURVE SMOOTH",
"386 690 OFFCURVE",
"370 695 OFFCURVE",
"362 661 CURVE SMOOTH",
"354 627 OFFCURVE",
"336 568 OFFCURVE",
"325 546 CURVE SMOOTH",
"322 541 OFFCURVE",
"318 531 OFFCURVE",
"313 517 CURVE SMOOTH",
"308 504 OFFCURVE",
"304 495 OFFCURVE",
"303 491 CURVE SMOOTH",
"293 465 LINE",
"282 435 LINE SMOOTH",
"277 422 OFFCURVE",
"272 407 OFFCURVE",
"268 392 CURVE SMOOTH",
"260 367 LINE",
"255 384 OFFCURVE",
"249 400 OFFCURVE",
"244 415 CURVE SMOOTH",
"235 442 OFFCURVE",
"224 472 OFFCURVE",
"216 491 CURVE SMOOTH",
"205 517 OFFCURVE",
"193 560 OFFCURVE",
"185 585 CURVE SMOOTH",
"173 620 OFFCURVE",
"162 657 OFFCURVE",
"159 668 CURVE SMOOTH",
"156 679 OFFCURVE",
"162 686 OFFCURVE",
"145 689 CURVE SMOOTH",
"137 690 OFFCURVE",
"123 690 OFFCURVE",
"104 690 CURVE",
"95 691 OFFCURVE",
"86 691 OFFCURVE",
"80 691 CURVE SMOOTH",
"73 691 OFFCURVE",
"68 691 OFFCURVE",
"64 690 CURVE",
"49 689 OFFCURVE",
"34 688 OFFCURVE",
"34 677 CURVE SMOOTH",
"34 666 OFFCURVE",
"46 651 OFFCURVE",
"54 624 CURVE SMOOTH",
"62 598 OFFCURVE",
"120 430 OFFCURVE",
"131 400 CURVE SMOOTH",
"142 369 OFFCURVE",
"149 337 OFFCURVE",
"160 310 CURVE SMOOTH",
"171 286 OFFCURVE",
"184 234 OFFCURVE",
"189 223 CURVE SMOOTH",
"194 212 OFFCURVE",
"187 202 OFFCURVE",
"180 185 CURVE SMOOTH",
"173 166 OFFCURVE",
"157 128 OFFCURVE",
"153 111 CURVE",
"148 95 OFFCURVE",
"121 23 OFFCURVE",
"118 14 CURVE SMOOTH",
"117 10 OFFCURVE",
"114 6 OFFCURVE",
"114 3 CURVE SMOOTH",
"114 -1 OFFCURVE",
"117 -3 OFFCURVE",
"126 -3 CURVE SMOOTH"
);
}
);
width = 496;
}
);
leftKerningGroup = Y;
rightKerningGroup = Y;
unicode = 0059;
},
{
glyphname = Z;
layers = (
{
anchors = (
{
name = bottom;
position = "{314, 0}";
},
{
name = top;
position = "{306, 710}";
}
);
color = -1;
layerId = "FC508690-ADF2-4DBF-B34D-60B2640A846D";
paths = (
{
closed = 1;
nodes = (
"465 -3 OFFCURVE",
"486 -3 OFFCURVE",
"500 -1 CURVE SMOOTH",
"543 6 OFFCURVE",
"562 3 OFFCURVE",
"575 6 CURVE",
"588 7 OFFCURVE",
"589 8 OFFCURVE",
"589 21 CURVE SMOOTH",
"589 23 OFFCURVE",
"589 25 OFFCURVE",
"589 27 CURVE SMOOTH",
"589 44 OFFCURVE",
"591 85 OFFCURVE",
"591 100 CURVE SMOOTH",
"590 115 OFFCURVE",
"593 131 OFFCURVE",
"572 131 CURVE SMOOTH",
"550 131 OFFCURVE",
"445 125 OFFCURVE",
"406 125 CURVE SMOOTH",
"367 125 OFFCURVE",
"340 123 OFFCURVE",
"297 123 CURVE SMOOTH",
"276 123 OFFCURVE",
"248 124 OFFCURVE",
"225 127 CURVE SMOOTH",
"212 128 OFFCURVE",
"198 130 OFFCURVE",
"184 132 CURVE",
"279 262 LINE",
"330 329 OFFCURVE",
"382 403 OFFCURVE",
"401 430 CURVE SMOOTH",
"438 480 OFFCURVE",
"528 612 OFFCURVE",
"539 628 CURVE SMOOTH",
"550 644 OFFCURVE",
"548 672 OFFCURVE",
"548 680 CURVE SMOOTH",
"548 687 OFFCURVE",
"550 696 OFFCURVE",
"535 696 CURVE SMOOTH",
"533 696 OFFCURVE",
"531 695 OFFCURVE",
"528 695 CURVE SMOOTH",
"514 693 OFFCURVE",
"468 693 OFFCURVE",
"428 693 CURVE SMOOTH",
"402 693 OFFCURVE",
"379 693 OFFCURVE",
"369 693 CURVE SMOOTH",
"347 693 OFFCURVE",
"241 697 OFFCURVE",
"201 697 CURVE SMOOTH",
"160 697 OFFCURVE",
"107 693 OFFCURVE",
"75 693 CURVE SMOOTH",
"60 693 OFFCURVE",
"44 698 OFFCURVE",
"45 679 CURVE SMOOTH",
"47 660 OFFCURVE",
"48 647 OFFCURVE",
"48 640 CURVE SMOOTH",
"48 633 OFFCURVE",
"44 628 OFFCURVE",
"59 627 CURVE SMOOTH",
"65 627 OFFCURVE",
"82 627 OFFCURVE",
"101 627 CURVE SMOOTH",
"130 627 OFFCURVE",
"163 627 OFFCURVE",
"172 625 CURVE SMOOTH",
"176 624 OFFCURVE",
"183 624 OFFCURVE",
"190 624 CURVE SMOOTH",
"209 624 OFFCURVE",
"235 626 OFFCURVE",
"251 626 CURVE SMOOTH",
"357 625 LINE",
"377 623 LINE",
"380 622 OFFCURVE",
"383 622 OFFCURVE",
"386 622 CURVE",
"368 583 LINE SMOOTH",
"357 560 OFFCURVE",
"344 535 OFFCURVE",
"332 518 CURVE SMOOTH",
"308 486 OFFCURVE",
"243 401 OFFCURVE",
"225 370 CURVE SMOOTH",
"206 338 OFFCURVE",
"106 205 OFFCURVE",
"87 180 CURVE",
"66 155 OFFCURVE",
"44 136 OFFCURVE",
"44 120 CURVE SMOOTH",
"44 103 OFFCURVE",
"39 45 OFFCURVE",
"39 32 CURVE SMOOTH",
"39 16 OFFCURVE",
"32 -1 OFFCURVE",
"70 -1 CURVE SMOOTH",
"315 -1 LINE SMOOTH",
"342 -1 OFFCURVE",
"397 -3 OFFCURVE",
"442 -3 CURVE SMOOTH"
);
}
);
width = 641;
}
);
leftKerningGroup = Z;
unicode = 005A;
},
{
glyphname = A.alt;
layers = (
{
anchors = (
{
name = bottom;
position = "{275, 0}";
},
{
name = ogonek;
position = "{568, -1}";
},
{
name = top;
position = "{247, 710}";
}
);
color = -1;
layerId = "FC508690-ADF2-4DBF-B34D-60B2640A846D";
paths = (
{
closed = 1;
nodes = (
"557 -1 LINE SMOOTH",
"566 -1 OFFCURVE",
"575 0 OFFCURVE",
"575 7 CURVE SMOOTH",
"575 10 OFFCURVE",
"573 14 OFFCURVE",
"570 20 CURVE",
"556 36 OFFCURVE",
"536 84 OFFCURVE",
"523 110 CURVE SMOOTH",
"509 137 OFFCURVE",
"458 234 OFFCURVE",
"437 280 CURVE SMOOTH",
"416 328 OFFCURVE",
"365 431 OFFCURVE",
"352 470 CURVE SMOOTH",
"338 510 OFFCURVE",
"324 546 OFFCURVE",
"309 577 CURVE SMOOTH",
"295 607 OFFCURVE",
"259 683 OFFCURVE",
"256 697 CURVE",
"252 709 OFFCURVE",
"250 720 OFFCURVE",
"243 725 CURVE SMOOTH",
"238 730 OFFCURVE",
"233 728 OFFCURVE",
"229 718 CURVE SMOOTH",
"225 707 OFFCURVE",
"217 685 OFFCURVE",
"209 654 CURVE",
"184 574 LINE SMOOTH",
"173 538 OFFCURVE",
"159 490 OFFCURVE",
"146 443 CURVE SMOOTH",
"133 396 OFFCURVE",
"128 380 OFFCURVE",
"120 347 CURVE",
"109 316 OFFCURVE",
"91 263 OFFCURVE",
"83 218 CURVE SMOOTH",
"75 176 OFFCURVE",
"47 83 OFFCURVE",
"39 56 CURVE SMOOTH",
"31 29 OFFCURVE",
"29 27 OFFCURVE",
"25 18 CURVE SMOOTH",
"23 12 OFFCURVE",
"21 7 OFFCURVE",
"21 4 CURVE SMOOTH",
"21 1 OFFCURVE",
"22 0 OFFCURVE",
"26 0 CURVE SMOOTH",
"85 0 LINE SMOOTH",
"92 0 OFFCURVE",
"94 4 OFFCURVE",
"98 19 CURVE SMOOTH",
"106 48 LINE",
"117 91 LINE",
"120 110 OFFCURVE",
"136 173 OFFCURVE",
"138 183 CURVE SMOOTH",
"141 194 OFFCURVE",
"142 205 OFFCURVE",
"151 205 CURVE SMOOTH",
"156 205 OFFCURVE",
"180 204 OFFCURVE",
"204 204 CURVE SMOOTH",
"215 204 OFFCURVE",
"227 204 OFFCURVE",
"236 205 CURVE SMOOTH",
"264 208 OFFCURVE",
"327 206 OFFCURVE",
"343 209 CURVE",
"360 210 OFFCURVE",
"376 212 OFFCURVE",
"383 212 CURVE SMOOTH",
"391 212 OFFCURVE",
"396 209 OFFCURVE",
"401 192 CURVE",
"408 176 OFFCURVE",
"421 150 OFFCURVE",
"426 135 CURVE SMOOTH",
"431 119 OFFCURVE",
"457 47 OFFCURVE",
"465 32 CURVE SMOOTH",
"472 17 OFFCURVE",
"477 -1 OFFCURVE",
"485 -1 CURVE SMOOTH"
);
},
{
closed = 1;
nodes = (
"182 345 OFFCURVE",
"180 347 OFFCURVE",
"180 351 CURVE SMOOTH",
"180 355 OFFCURVE",
"181 360 OFFCURVE",
"183 367 CURVE SMOOTH",
"188 382 OFFCURVE",
"200 412 OFFCURVE",
"205 433 CURVE SMOOTH",
"210 452 OFFCURVE",
"226 505 OFFCURVE",
"231 521 CURVE SMOOTH",
"236 540 OFFCURVE",
"239 559 OFFCURVE",
"243 559 CURVE SMOOTH",
"248 559 OFFCURVE",
"249 553 OFFCURVE",
"256 538 CURVE SMOOTH",
"259 533 OFFCURVE",
"267 507 OFFCURVE",
"280 476 CURVE",
"290 447 OFFCURVE",
"321 375 OFFCURVE",
"328 363 CURVE SMOOTH",
"330 359 OFFCURVE",
"331 357 OFFCURVE",
"331 355 CURVE SMOOTH",
"331 350 OFFCURVE",
"322 352 OFFCURVE",
"308 350 CURVE SMOOTH",
"291 347 OFFCURVE",
"201 345 OFFCURVE",
"189 345 CURVE SMOOTH"
);
}
);
width = 566;
}
);
leftKerningGroup = A.alt;
rightKerningGroup = A.alt;
},
{
glyphname = AE.alt;
layers = (
{
anchors = (
{
name = bottom;
position = "{487, 0}";
},
{
name = top;
position = "{617, 710}";
}
);
color = -1;
layerId = "FC508690-ADF2-4DBF-B34D-60B2640A846D";
paths = (
{
closed = 1;
nodes = (
"546 -1 LINE SMOOTH",
"553 -1 OFFCURVE",
"570 -1 OFFCURVE",
"599 0 CURVE SMOOTH",
"721 5 LINE SMOOTH",
"743 6 OFFCURVE",
"768 6 OFFCURVE",
"793 6 CURVE SMOOTH",
"839 6 OFFCURVE",
"884 5 OFFCURVE",
"902 3 CURVE SMOOTH",
"909 2 OFFCURVE",
"915 2 OFFCURVE",
"920 2 CURVE SMOOTH",
"935 2 OFFCURVE",
"941 5 OFFCURVE",
"941 14 CURVE SMOOTH",
"941 25 OFFCURVE",
"943 36 OFFCURVE",
"943 45 CURVE SMOOTH",
"943 56 OFFCURVE",
"943 61 OFFCURVE",
"932 61 CURVE SMOOTH",
"921 61 OFFCURVE",
"895 63 OFFCURVE",
"868 63 CURVE SMOOTH",
"841 63 OFFCURVE",
"807 60 OFFCURVE",
"771 60 CURVE SMOOTH",
"735 60 OFFCURVE",
"702 62 OFFCURVE",
"665 62 CURVE SMOOTH",
"633 62 LINE SMOOTH",
"622 62 OFFCURVE",
"611 62 OFFCURVE",
"600 63 CURVE",
"588 63 OFFCURVE",
"575 63 OFFCURVE",
"562 64 CURVE",
"562 72 OFFCURVE",
"562 80 OFFCURVE",
"563 89 CURVE",
"563 104 OFFCURVE",
"564 122 OFFCURVE",
"564 139 CURVE SMOOTH",
"564 168 LINE SMOOTH",
"564 191 OFFCURVE",
"563 215 OFFCURVE",
"563 235 CURVE SMOOTH",
"563 258 LINE SMOOTH",
"563 281 OFFCURVE",
"559 291 OFFCURVE",
"559 314 CURVE SMOOTH",
"559 325 OFFCURVE",
"560 337 OFFCURVE",
"561 346 CURVE SMOOTH",
"564 362 LINE",
"573 361 OFFCURVE",
"582 361 OFFCURVE",
"592 361 CURVE SMOOTH",
"620 361 LINE SMOOTH",
"631 361 OFFCURVE",
"641 362 OFFCURVE",
"651 363 CURVE SMOOTH",
"691 366 OFFCURVE",
"739 366 OFFCURVE",
"776 366 CURVE SMOOTH",
"814 366 OFFCURVE",
"900 355 OFFCURVE",
"914 355 CURVE SMOOTH",
"929 355 OFFCURVE",
"928 357 OFFCURVE",
"929 366 CURVE SMOOTH",
"930 374 OFFCURVE",
"930 397 OFFCURVE",
"931 402 CURVE SMOOTH",
"932 406 OFFCURVE",
"930 415 OFFCURVE",
"919 415 CURVE SMOOTH",
"917 415 OFFCURVE",
"915 414 OFFCURVE",
"913 414 CURVE SMOOTH",
"909 413 OFFCURVE",
"904 413 OFFCURVE",
"898 413 CURVE SMOOTH",
"878 413 OFFCURVE",
"847 416 OFFCURVE",
"829 416 CURVE SMOOTH",
"805 416 OFFCURVE",
"789 413 OFFCURVE",
"777 413 CURVE SMOOTH",
"765 413 OFFCURVE",
"731 417 OFFCURVE",
"699 417 CURVE SMOOTH",
"668 417 OFFCURVE",
"647 413 OFFCURVE",
"630 413 CURVE SMOOTH",
"590 413 LINE SMOOTH",
"581 413 OFFCURVE",
"572 413 OFFCURVE",
"563 414 CURVE",
"562 423 OFFCURVE",
"562 431 OFFCURVE",
"562 439 CURVE SMOOTH",
"562 479 LINE SMOOTH",
"562 502 OFFCURVE",
"558 528 OFFCURVE",
"558 556 CURVE SMOOTH",
"558 579 LINE SMOOTH",
"558 588 OFFCURVE",
"558 596 OFFCURVE",
"559 603 CURVE SMOOTH",
"561 630 LINE",
"584 632 LINE SMOOTH",
"597 633 OFFCURVE",
"614 635 OFFCURVE",
"629 635 CURVE SMOOTH",
"655 635 LINE SMOOTH",
"676 635 OFFCURVE",
"700 634 OFFCURVE",
"723 634 CURVE SMOOTH",
"913 634 LINE SMOOTH",
"932 634 OFFCURVE",
"934 631 OFFCURVE",
"945 631 CURVE SMOOTH",
"948 631 OFFCURVE",
"949 635 OFFCURVE",
"949 644 CURVE",
"949 665 LINE SMOOTH",
"949 676 OFFCURVE",
"953 692 OFFCURVE",
"932 692 CURVE SMOOTH",
"911 692 OFFCURVE",
"810 695 OFFCURVE",
"758 695 CURVE SMOOTH",
"704 695 OFFCURVE",
"621 689 OFFCURVE",
"590 689 CURVE SMOOTH",
"574 689 OFFCURVE",
"554 693 OFFCURVE",
"538 693 CURVE SMOOTH",
"527 693 OFFCURVE",
"519 690 OFFCURVE",
"510 690 CURVE SMOOTH",
"506 690 OFFCURVE",
"502 691 OFFCURVE",
"497 692 CURVE",
"497 713 LINE SMOOTH",
"497 718 OFFCURVE",
"496 722 OFFCURVE",
"494 725 CURVE SMOOTH",
"491 730 OFFCURVE",
"485 728 OFFCURVE",
"477 718 CURVE SMOOTH",
"469 707 OFFCURVE",
"453 685 OFFCURVE",
"434 654 CURVE",
"380 574 LINE",
"295 443 LINE",
"266 395 OFFCURVE",
"254 380 OFFCURVE",
"235 347 CURVE",
"212 316 OFFCURVE",
"175 263 OFFCURVE",
"151 218 CURVE",
"127 176 OFFCURVE",
"67 84 OFFCURVE",
"50 56 CURVE SMOOTH",
"33 29 OFFCURVE",
"30 27 OFFCURVE",
"22 18 CURVE SMOOTH",
"17 11 OFFCURVE",
"13 6 OFFCURVE",
"13 3 CURVE SMOOTH",
"13 1 OFFCURVE",
"14 0 OFFCURVE",
"17 0 CURVE SMOOTH",
"76 0 LINE SMOOTH",
"83 0 OFFCURVE",
"87 4 OFFCURVE",
"96 19 CURVE SMOOTH",
"114 48 LINE SMOOTH",
"123 64 OFFCURVE",
"134 80 OFFCURVE",
"139 91 CURVE",
"150 110 OFFCURVE",
"187 174 OFFCURVE",
"194 183 CURVE SMOOTH",
"201 194 OFFCURVE",
"206 205 OFFCURVE",
"215 205 CURVE SMOOTH",
"219 205 OFFCURVE",
"233 204 OFFCURVE",
"249 204 CURVE SMOOTH",
"275 204 LINE SMOOTH",
"284 204 OFFCURVE",
"293 204 OFFCURVE",
"300 205 CURVE SMOOTH",
"328 208 OFFCURVE",
"393 206 OFFCURVE",
"408 209 CURVE",
"425 210 OFFCURVE",
"442 212 OFFCURVE",
"449 212 CURVE SMOOTH",
"456 212 OFFCURVE",
"460 210 OFFCURVE",
"460 197 CURVE SMOOTH",
"460 195 OFFCURVE",
"460 194 OFFCURVE",
"460 192 CURVE SMOOTH",
"461 176 OFFCURVE",
"464 150 OFFCURVE",
"464 135 CURVE SMOOTH",
"464 127 OFFCURVE",
"465 106 OFFCURVE",
"465 83 CURVE SMOOTH",
"465 52 LINE SMOOTH",
"465 43 OFFCURVE",
"465 36 OFFCURVE",
"466 32 CURVE",
"467 17 OFFCURVE",
"466 -1 OFFCURVE",
"474 -1 CURVE SMOOTH"
);
},
{
closed = 1;
nodes = (
"298 345 OFFCURVE",
"295 346 OFFCURVE",
"295 349 CURVE SMOOTH",
"295 352 OFFCURVE",
"300 358 OFFCURVE",
"305 367 CURVE",
"316 382 OFFCURVE",
"338 412 OFFCURVE",
"351 433 CURVE SMOOTH",
"362 452 OFFCURVE",
"398 505 OFFCURVE",
"408 521 CURVE SMOOTH",
"420 540 OFFCURVE",
"430 559 OFFCURVE",
"434 559 CURVE SMOOTH",
"439 559 OFFCURVE",
"438 553 OFFCURVE",
"439 538 CURVE SMOOTH",
"440 533 OFFCURVE",
"438 507 OFFCURVE",
"441 476 CURVE",
"441 448 OFFCURVE",
"446 375 OFFCURVE",
"448 363 CURVE",
"449 348 OFFCURVE",
"443 353 OFFCURVE",
"424 350 CURVE SMOOTH",
"405 347 OFFCURVE",
"315 345 OFFCURVE",
"303 345 CURVE SMOOTH"
);
}
);
width = 974;
}
);
leftKerningGroup = A.alt;
rightKerningGroup = E.alt;
},
{
glyphname = B.alt;
layers = (
{
color = -1;
layerId = "FC508690-ADF2-4DBF-B34D-60B2640A846D";
paths = (
{
closed = 1;
nodes = (
"116 -13 OFFCURVE",
"251 -6 OFFCURVE",
"307 -6 CURVE SMOOTH",
"363 -6 OFFCURVE",
"516 4 OFFCURVE",
"516 140 CURVE SMOOTH",
"516 260 OFFCURVE",
"467 319 OFFCURVE",
"416 351 CURVE SMOOTH",
"387 369 OFFCURVE",
"354 380 OFFCURVE",
"317 384 CURVE",
"346 390 OFFCURVE",
"372 399 OFFCURVE",
"395 412 CURVE SMOOTH",
"434 433 OFFCURVE",
"473 471 OFFCURVE",
"473 536 CURVE SMOOTH",
"473 667 OFFCURVE",
"395 711 OFFCURVE",
"291 711 CURVE SMOOTH",
"187 711 OFFCURVE",
"178 714 OFFCURVE",
"153 714 CURVE SMOOTH",
"134 714 OFFCURVE",
"116 710 OFFCURVE",
"105 710 CURVE SMOOTH",
"101 710 OFFCURVE",
"95 711 OFFCURVE",
"90 711 CURVE SMOOTH",
"81 711 OFFCURVE",
"72 709 OFFCURVE",
"72 698 CURVE SMOOTH",
"72 681 OFFCURVE",
"76 633 OFFCURVE",
"76 607 CURVE SMOOTH",
"76 582 OFFCURVE",
"66 503 OFFCURVE",
"66 460 CURVE SMOOTH",
"66 418 OFFCURVE",
"69 262 OFFCURVE",
"69 217 CURVE SMOOTH",
"69 172 OFFCURVE",
"63 71 OFFCURVE",
"63 52 CURVE",
"63 8 LINE",
"63 -3 OFFCURVE",
"66 -13 OFFCURVE",
"89 -13 CURVE SMOOTH"
);
},
{
closed = 1;
nodes = (
"237 59 OFFCURVE",
"189 66 OFFCURVE",
"154 67 CURVE",
"102 69 LINE",
"95 69 OFFCURVE",
"91 70 OFFCURVE",
"91 85 CURVE SMOOTH",
"91 98 OFFCURVE",
"92 128 OFFCURVE",
"92 155 CURVE SMOOTH",
"92 182 OFFCURVE",
"95 212 OFFCURVE",
"95 245 CURVE SMOOTH",
"95 279 OFFCURVE",
"94 293 OFFCURVE",
"94 304 CURVE SMOOTH",
"94 313 OFFCURVE",
"95 316 OFFCURVE",
"118 316 CURVE SMOOTH",
"129 316 OFFCURVE",
"272 307 OFFCURVE",
"295 304 CURVE SMOOTH",
"316 301 OFFCURVE",
"407 272 OFFCURVE",
"407 157 CURVE SMOOTH",
"407 64 OFFCURVE",
"319 59 OFFCURVE",
"278 59 CURVE SMOOTH"
);
},
{
closed = 1;
nodes = (
"166 452 OFFCURVE",
"135 455 OFFCURVE",
"119 455 CURVE SMOOTH",
"103 455 OFFCURVE",
"99 455 OFFCURVE",
"99 470 CURVE SMOOTH",
"99 482 OFFCURVE",
"103 550 OFFCURVE",
"103 570 CURVE SMOOTH",
"103 581 OFFCURVE",
"103 597 OFFCURVE",
"104 612 CURVE",
"106 637 LINE",
"124 638 OFFCURVE",
"141 639 OFFCURVE",
"157 639 CURVE SMOOTH",
"187 639 OFFCURVE",
"214 637 OFFCURVE",
"239 633 CURVE SMOOTH",
"305 623 OFFCURVE",
"372 597 OFFCURVE",
"372 531 CURVE SMOOTH",
"372 461 OFFCURVE",
"312 455 OFFCURVE",
"277 455 CURVE SMOOTH",
"242 455 OFFCURVE",
"210 452 OFFCURVE",
"189 452 CURVE SMOOTH"
);
}
);
width = 552;
}
);
},
{
glyphname = C.alt;
layers = (
{
anchors = (
{
name = bottom;
position = "{290, 0}";
},
{
name = top;
position = "{300, 730}";
}
);
color = -1;
layerId = "FC508690-ADF2-4DBF-B34D-60B2640A846D";
paths = (
{
closed = 1;
nodes = (
"466 -15 OFFCURVE",
"517 97 OFFCURVE",
"535 152 CURVE SMOOTH",
"539 165 OFFCURVE",
"542 176 OFFCURVE",
"543 187 CURVE SMOOTH",
"544 192 OFFCURVE",
"544 197 OFFCURVE",
"544 202 CURVE SMOOTH",
"544 214 OFFCURVE",
"541 224 OFFCURVE",
"530 226 CURVE SMOOTH",
"502 231 OFFCURVE",
"428 247 OFFCURVE",
"414 252 CURVE",
"407 253 OFFCURVE",
"398 257 OFFCURVE",
"389 257 CURVE SMOOTH",
"379 257 OFFCURVE",
"369 252 OFFCURVE",
"363 233 CURVE SMOOTH",
"352 198 OFFCURVE",
"339 190 OFFCURVE",
"314 190 CURVE SMOOTH",
"289 190 OFFCURVE",
"247 234 OFFCURVE",
"247 377 CURVE SMOOTH",
"247 521 OFFCURVE",
"276 555 OFFCURVE",
"311 555 CURVE SMOOTH",
"346 555 OFFCURVE",
"363 527 OFFCURVE",
"372 518 CURVE SMOOTH",
"378 511 OFFCURVE",
"383 499 OFFCURVE",
"393 499 CURVE SMOOTH",
"395 499 OFFCURVE",
"398 500 OFFCURVE",
"401 502 CURVE SMOOTH",
"416 510 OFFCURVE",
"468 554 OFFCURVE",
"483 564 CURVE SMOOTH",
"494 571 OFFCURVE",
"505 576 OFFCURVE",
"505 586 CURVE SMOOTH",
"505 591 OFFCURVE",
"502 597 OFFCURVE",
"495 606 CURVE SMOOTH",
"474 633 OFFCURVE",
"436 720 OFFCURVE",
"292 720 CURVE SMOOTH",
"201 720 OFFCURVE",
"42 676 OFFCURVE",
"42 373 CURVE SMOOTH",
"42 70 OFFCURVE",
"208 -15 OFFCURVE",
"313 -15 CURVE SMOOTH"
);
}
);
width = 564;
}
);
leftKerningGroup = O.alt;
},
{
glyphname = Ccedilla.alt;
layers = (
{
color = -1;
layerId = "FC508690-ADF2-4DBF-B34D-60B2640A846D";
paths = (
{
closed = 1;
nodes = (
"322 -160 OFFCURVE",
"329 -155 OFFCURVE",
"340 -150 CURVE SMOOTH",
"345 -147 OFFCURVE",
"350 -144 OFFCURVE",
"355 -139 CURVE SMOOTH",
"366 -130 OFFCURVE",
"385 -117 OFFCURVE",
"386 -85 CURVE",
"386 -30 OFFCURVE",
"357 -15 OFFCURVE",
"324 -15 CURVE SMOOTH",
"293 -15 OFFCURVE",
"289 -17 OFFCURVE",
"276 -24 CURVE",
"280 -9 OFFCURVE",
"288 3 OFFCURVE",
"302 22 CURVE",
"313 22 LINE SMOOTH",
"466 22 OFFCURVE",
"517 134 OFFCURVE",
"535 189 CURVE SMOOTH",
"539 202 OFFCURVE",
"542 213 OFFCURVE",
"543 224 CURVE SMOOTH",
"544 229 OFFCURVE",
"544 234 OFFCURVE",
"544 239 CURVE SMOOTH",
"544 251 OFFCURVE",
"541 261 OFFCURVE",
"530 263 CURVE SMOOTH",
"502 268 OFFCURVE",
"428 284 OFFCURVE",
"414 289 CURVE",
"407 290 OFFCURVE",
"398 294 OFFCURVE",
"389 294 CURVE SMOOTH",
"379 294 OFFCURVE",
"369 289 OFFCURVE",
"363 270 CURVE SMOOTH",
"352 235 OFFCURVE",
"339 227 OFFCURVE",
"314 227 CURVE SMOOTH",
"302 227 OFFCURVE",
"284 238 OFFCURVE",
"271 267 CURVE SMOOTH",
"258 296 OFFCURVE",
"247 325 OFFCURVE",
"247 397 CURVE SMOOTH",
"247 442 OFFCURVE",
"254 493 OFFCURVE",
"266 520 CURVE SMOOTH",
"278 547 OFFCURVE",
"294 555 OFFCURVE",
"311 555 CURVE SMOOTH",
"346 555 OFFCURVE",
"363 527 OFFCURVE",
"372 518 CURVE SMOOTH",
"378 511 OFFCURVE",
"383 499 OFFCURVE",
"393 499 CURVE SMOOTH",
"395 499 OFFCURVE",
"398 500 OFFCURVE",
"401 502 CURVE SMOOTH",
"416 510 OFFCURVE",
"468 554 OFFCURVE",
"483 564 CURVE SMOOTH",
"494 571 OFFCURVE",
"505 576 OFFCURVE",
"505 586 CURVE SMOOTH",
"505 591 OFFCURVE",
"502 597 OFFCURVE",
"495 606 CURVE SMOOTH",
"474 633 OFFCURVE",
"436 720 OFFCURVE",
"292 720 CURVE SMOOTH",
"245 720 OFFCURVE",
"186 709 OFFCURVE",
"133 660 CURVE",
"82 617 OFFCURVE",
"42 508 OFFCURVE",
"42 393 CURVE SMOOTH",
"42 264 OFFCURVE",
"83 162 OFFCURVE",
"138 102 CURVE SMOOTH",
"175 62 OFFCURVE",
"218 40 OFFCURVE",
"257 29 CURVE",
"250 10 OFFCURVE",
"245 -5 OFFCURVE",
"243 -18 CURVE",
"239 -34 OFFCURVE",
"236 -37 OFFCURVE",
"236 -54 CURVE",
"237 -61 OFFCURVE",
"243 -62 OFFCURVE",
"267 -62 CURVE SMOOTH",
"274 -62 OFFCURVE",
"285 -48 OFFCURVE",
"300 -48 CURVE SMOOTH",
"319 -48 OFFCURVE",
"324 -62 OFFCURVE",
"324 -81 CURVE",
"318 -106 OFFCURVE",
"309 -105 OFFCURVE",
"283 -107 CURVE",
"266 -107 OFFCURVE",
"258 -105 OFFCURVE",
"245 -101 CURVE",
"232 -94 OFFCURVE",
"225 -88 OFFCURVE",
"221 -88 CURVE SMOOTH",
"219 -88 OFFCURVE",
"218 -89 OFFCURVE",
"218 -92 CURVE SMOOTH",
"213 -115 OFFCURVE",
"210 -130 OFFCURVE",
"210 -141 CURVE SMOOTH",
"210 -152 OFFCURVE",
"246 -160 OFFCURVE",
"277 -160 CURVE SMOOTH"
);
}
);
width = 576;
}
);
leftKerningGroup = O.alt;
},
{
glyphname = Cdotaccent.alt;
layers = (
{
background = {
paths = (
{
closed = 1;
nodes = (
"466 -15 OFFCURVE",
"517 97 OFFCURVE",
"535 152 CURVE SMOOTH",
"539 165 OFFCURVE",
"542 176 OFFCURVE",
"543 187 CURVE SMOOTH",
"544 192 OFFCURVE",
"544 197 OFFCURVE",
"544 202 CURVE SMOOTH",
"544 214 OFFCURVE",
"541 224 OFFCURVE",
"530 226 CURVE SMOOTH",
"502 231 OFFCURVE",
"428 247 OFFCURVE",
"414 252 CURVE",
"407 253 OFFCURVE",
"398 257 OFFCURVE",
"389 257 CURVE SMOOTH",
"379 257 OFFCURVE",
"369 252 OFFCURVE",
"363 233 CURVE SMOOTH",
"352 198 OFFCURVE",
"339 190 OFFCURVE",
"314 190 CURVE SMOOTH",
"289 190 OFFCURVE",
"247 234 OFFCURVE",
"247 377 CURVE SMOOTH",
"247 491 OFFCURVE",
"276 525 OFFCURVE",
"311 525 CURVE SMOOTH",
"346 525 OFFCURVE",
"363 497 OFFCURVE",
"372 488 CURVE SMOOTH",
"379 481 OFFCURVE",
"383 469 OFFCURVE",
"393 469 CURVE SMOOTH",
"395 469 OFFCURVE",
"398 470 OFFCURVE",
"401 472 CURVE SMOOTH",
"415 481 OFFCURVE",
"468 524 OFFCURVE",
"483 534 CURVE SMOOTH",
"494 541 OFFCURVE",
"505 546 OFFCURVE",
"505 556 CURVE SMOOTH",
"505 561 OFFCURVE",
"502 567 OFFCURVE",
"495 576 CURVE SMOOTH",
"474 603 OFFCURVE",
"436 690 OFFCURVE",
"292 690 CURVE SMOOTH",
"181 690 OFFCURVE",
"42 617 OFFCURVE",
"42 373 CURVE SMOOTH",
"42 70 OFFCURVE",
"208 -15 OFFCURVE",
"313 -15 CURVE SMOOTH"
);
}
);
};
color = -1;
components = (
{
name = C.alt;
},
{
alignment = 1;
name = dotaccentcomb.case;
transform = "{1, 0, 0, 1, 239, 148}";
}
);
layerId = "FC508690-ADF2-4DBF-B34D-60B2640A846D";
width = 564;
}
);
leftKerningGroup = O.alt;
},
{
glyphname = D.alt;
layers = (
{
anchors = (
{
name = bottom;
position = "{274, 0}";
},
{
name = top;
position = "{283, 710}";
}
);
color = -1;
layerId = "FC508690-ADF2-4DBF-B34D-60B2640A846D";
paths = (
{
closed = 1;
nodes = (
"186 1 LINE SMOOTH",
"213 1 OFFCURVE",
"343 9 OFFCURVE",
"417 57 CURVE SMOOTH",
"490 105 OFFCURVE",
"535 247 OFFCURVE",
"535 333 CURVE SMOOTH",
"535 421 OFFCURVE",
"526 536 OFFCURVE",
"438 614 CURVE SMOOTH",
"349 692 OFFCURVE",
"303 688 OFFCURVE",
"278 691 CURVE SMOOTH",
"251 694 OFFCURVE",
"221 696 OFFCURVE",
"177 696 CURVE SMOOTH",
"165 696 OFFCURVE",
"151 697 OFFCURVE",
"138 697 CURVE SMOOTH",
"125 697 OFFCURVE",
"104 695 OFFCURVE",
"95 695 CURVE SMOOTH",
"87 695 OFFCURVE",
"83 698 OFFCURVE",
"77 698 CURVE SMOOTH",
"76 698 OFFCURVE",
"75 698 OFFCURVE",
"74 698 CURVE SMOOTH",
"65 698 OFFCURVE",
"64 684 OFFCURVE",
"63 657 CURVE",
"63 629 OFFCURVE",
"68 544 OFFCURVE",
"68 501 CURVE SMOOTH",
"68 458 OFFCURVE",
"67 367 OFFCURVE",
"67 300 CURVE SMOOTH",
"67 231 OFFCURVE",
"70 76 OFFCURVE",
"70 54 CURVE SMOOTH",
"70 39 OFFCURVE",
"71 31 OFFCURVE",
"71 25 CURVE SMOOTH",
"71 22 OFFCURVE",
"71 20 OFFCURVE",
"70 17 CURVE SMOOTH",
"67 10 OFFCURVE",
"68 1 OFFCURVE",
"84 1 CURVE"
);
},
{
closed = 1;
nodes = (
"235 73 OFFCURVE",
"235 105 OFFCURVE",
"236 135 CURVE",
"236 186 OFFCURVE",
"237 243 OFFCURVE",
"237 264 CURVE SMOOTH",
"237 307 OFFCURVE",
"231 357 OFFCURVE",
"231 417 CURVE SMOOTH",
"231 446 OFFCURVE",
"231 503 OFFCURVE",
"234 552 CURVE",
"238 643 LINE",
"285 642 OFFCURVE",
"326 631 OFFCURVE",
"363 609 CURVE SMOOTH",
"424 572 OFFCURVE",
"488 494 OFFCURVE",
"488 333 CURVE SMOOTH",
"488 172 OFFCURVE",
"424 96 OFFCURVE",
"361 64 CURVE SMOOTH",
"324 45 OFFCURVE",
"282 36 OFFCURVE",
"235 39 CURVE"
);
}
);
width = 571;
}
);
rightKerningGroup = O.alt;
},
{
glyphname = E.alt;
layers = (
{
anchors = (
{
name = bottom;
position = "{265, 0}";
},
{
name = ogonek;
position = "{457, 2}";
},
{
name = top;
position = "{282, 710}";
}
);
color = -1;
layerId = "FC508690-ADF2-4DBF-B34D-60B2640A846D";
paths = (
{
closed = 1;
nodes = (
"468 2 OFFCURVE",
"474 5 OFFCURVE",
"474 14 CURVE SMOOTH",
"474 25 OFFCURVE",
"476 36 OFFCURVE",
"476 45 CURVE SMOOTH",
"476 56 OFFCURVE",
"476 61 OFFCURVE",
"465 61 CURVE SMOOTH",
"454 61 OFFCURVE",
"428 63 OFFCURVE",
"401 63 CURVE SMOOTH",
"374 63 OFFCURVE",
"340 60 OFFCURVE",
"304 60 CURVE SMOOTH",
"268 60 OFFCURVE",
"235 62 OFFCURVE",
"198 62 CURVE SMOOTH",
"179 62 OFFCURVE",
"154 62 OFFCURVE",
"133 63 CURVE SMOOTH",
"121 63 OFFCURVE",
"108 63 OFFCURVE",
"95 64 CURVE",
"95 72 OFFCURVE",
"95 80 OFFCURVE",
"96 89 CURVE",
"96 104 OFFCURVE",
"97 122 OFFCURVE",
"97 139 CURVE SMOOTH",
"96 258 LINE SMOOTH",
"96 281 OFFCURVE",
"92 291 OFFCURVE",
"92 314 CURVE SMOOTH",
"92 325 OFFCURVE",
"93 337 OFFCURVE",
"94 346 CURVE",
"97 362 LINE",
"106 361 OFFCURVE",
"115 361 OFFCURVE",
"125 361 CURVE SMOOTH",
"142 361 OFFCURVE",
"164 360 OFFCURVE",
"184 363 CURVE",
"224 366 OFFCURVE",
"272 366 OFFCURVE",
"309 366 CURVE SMOOTH",
"347 366 OFFCURVE",
"433 355 OFFCURVE",
"447 355 CURVE SMOOTH",
"462 355 OFFCURVE",
"461 357 OFFCURVE",
"462 366 CURVE SMOOTH",
"463 374 OFFCURVE",
"463 397 OFFCURVE",
"464 402 CURVE SMOOTH",
"465 406 OFFCURVE",
"463 415 OFFCURVE",
"452 415 CURVE SMOOTH",
"450 415 OFFCURVE",
"448 414 OFFCURVE",
"446 414 CURVE SMOOTH",
"442 413 OFFCURVE",
"437 413 OFFCURVE",
"431 413 CURVE SMOOTH",
"411 413 OFFCURVE",
"380 416 OFFCURVE",
"362 416 CURVE SMOOTH",
"338 416 OFFCURVE",
"322 413 OFFCURVE",
"310 413 CURVE SMOOTH",
"298 413 OFFCURVE",
"264 417 OFFCURVE",
"232 417 CURVE SMOOTH",
"201 417 OFFCURVE",
"180 413 OFFCURVE",
"163 413 CURVE SMOOTH",
"123 413 LINE SMOOTH",
"114 413 OFFCURVE",
"105 413 OFFCURVE",
"96 414 CURVE",
"95 423 OFFCURVE",
"95 431 OFFCURVE",
"95 439 CURVE SMOOTH",
"95 479 LINE SMOOTH",
"95 502 OFFCURVE",
"91 528 OFFCURVE",
"91 556 CURVE SMOOTH",
"91 571 OFFCURVE",
"91 588 OFFCURVE",
"92 603 CURVE SMOOTH",
"94 630 LINE",
"117 632 LINE SMOOTH",
"130 633 OFFCURVE",
"147 635 OFFCURVE",
"162 635 CURVE SMOOTH",
"286 634 LINE",
"446 634 LINE SMOOTH",
"465 634 OFFCURVE",
"467 631 OFFCURVE",
"478 631 CURVE SMOOTH",
"482 631 OFFCURVE",
"482 644 OFFCURVE",
"482 654 CURVE SMOOTH",
"482 659 OFFCURVE",
"482 662 OFFCURVE",
"482 665 CURVE SMOOTH",
"482 676 OFFCURVE",
"486 692 OFFCURVE",
"465 692 CURVE SMOOTH",
"444 692 OFFCURVE",
"343 695 OFFCURVE",
"291 695 CURVE SMOOTH",
"237 695 OFFCURVE",
"154 689 OFFCURVE",
"123 689 CURVE SMOOTH",
"92 689 OFFCURVE",
"41 706 OFFCURVE",
"44 669 CURVE SMOOTH",
"47 632 OFFCURVE",
"47 556 OFFCURVE",
"47 516 CURVE SMOOTH",
"47 475 OFFCURVE",
"39 376 OFFCURVE",
"39 309 CURVE SMOOTH",
"39 242 OFFCURVE",
"44 164 OFFCURVE",
"44 103 CURVE SMOOTH",
"44 59 OFFCURVE",
"46 53 OFFCURVE",
"46 46 CURVE SMOOTH",
"46 44 OFFCURVE",
"46 41 OFFCURVE",
"45 37 CURVE",
"45 31 OFFCURVE",
"44 26 OFFCURVE",
"44 21 CURVE SMOOTH",
"44 12 OFFCURVE",
"47 6 OFFCURVE",
"67 6 CURVE SMOOTH",
"88 6 OFFCURVE",
"145 4 OFFCURVE",
"198 4 CURVE SMOOTH",
"218 4 OFFCURVE",
"237 4 OFFCURVE",
"254 5 CURVE SMOOTH",
"276 6 OFFCURVE",
"301 6 OFFCURVE",
"326 6 CURVE SMOOTH",
"372 6 OFFCURVE",
"417 5 OFFCURVE",
"435 3 CURVE SMOOTH",
"442 2 OFFCURVE",
"448 2 OFFCURVE",
"453 2 CURVE SMOOTH"
);
}
);
width = 511;
}
);
},
{
glyphname = F.alt;
layers = (
{
color = -1;
layerId = "FC508690-ADF2-4DBF-B34D-60B2640A846D";
paths = (
{
closed = 1;
nodes = (
"147 1 LINE SMOOTH",
"160 1 OFFCURVE",
"170 0 OFFCURVE",
"170 16 CURVE SMOOTH",
"170 25 OFFCURVE",
"169 49 OFFCURVE",
"169 75 CURVE SMOOTH",
"169 94 OFFCURVE",
"170 113 OFFCURVE",
"171 126 CURVE SMOOTH",
"172 141 OFFCURVE",
"174 192 OFFCURVE",
"174 243 CURVE SMOOTH",
"174 340 LINE",
"188 341 OFFCURVE",
"201 341 OFFCURVE",
"213 341 CURVE SMOOTH",
"266 341 LINE SMOOTH",
"285 341 OFFCURVE",
"345 339 OFFCURVE",
"359 339 CURVE SMOOTH",
"374 339 OFFCURVE",
"390 338 OFFCURVE",
"399 338 CURVE SMOOTH",
"407 338 OFFCURVE",
"412 338 OFFCURVE",
"413 349 CURVE",
"417 362 OFFCURVE",
"418 368 OFFCURVE",
"418 378 CURVE SMOOTH",
"418 384 OFFCURVE",
"416 390 OFFCURVE",
"398 390 CURVE SMOOTH",
"375 390 OFFCURVE",
"345 386 OFFCURVE",
"305 386 CURVE SMOOTH",
"233 386 LINE SMOOTH",
"221 386 OFFCURVE",
"206 385 OFFCURVE",
"193 385 CURVE SMOOTH",
"171 385 LINE",
"173 398 LINE SMOOTH",
"174 406 OFFCURVE",
"175 415 OFFCURVE",
"175 426 CURVE SMOOTH",
"175 459 LINE SMOOTH",
"175 465 OFFCURVE",
"175 471 OFFCURVE",
"176 477 CURVE",
"197 479 LINE SMOOTH",
"209 480 OFFCURVE",
"224 481 OFFCURVE",
"239 481 CURVE SMOOTH",
"345 481 LINE SMOOTH",
"364 481 OFFCURVE",
"431 475 OFFCURVE",
"446 475 CURVE SMOOTH",
"460 475 OFFCURVE",
"461 478 OFFCURVE",
"461 488 CURVE SMOOTH",
"461 490 OFFCURVE",
"461 493 OFFCURVE",
"461 496 CURVE SMOOTH",
"461 546 LINE",
"460 663 LINE SMOOTH",
"460 670 OFFCURVE",
"461 676 OFFCURVE",
"461 680 CURVE SMOOTH",
"461 689 OFFCURVE",
"458 693 OFFCURVE",
"443 693 CURVE SMOOTH",
"420 693 OFFCURVE",
"380 695 OFFCURVE",
"352 695 CURVE SMOOTH",
"243 696 LINE SMOOTH",
"216 696 OFFCURVE",
"155 692 OFFCURVE",
"119 692 CURVE SMOOTH",
"108 692 OFFCURVE",
"93 694 OFFCURVE",
"85 694 CURVE SMOOTH",
"77 694 OFFCURVE",
"71 693 OFFCURVE",
"71 678 CURVE SMOOTH",
"71 677 OFFCURVE",
"71 675 OFFCURVE",
"71 674 CURVE SMOOTH",
"71 655 OFFCURVE",
"67 621 OFFCURVE",
"67 602 CURVE",
"67 512 LINE SMOOTH",
"67 484 OFFCURVE",
"64 465 OFFCURVE",
"64 424 CURVE SMOOTH",
"64 381 OFFCURVE",
"68 357 OFFCURVE",
"68 336 CURVE SMOOTH",
"68 314 OFFCURVE",
"64 206 OFFCURVE",
"64 167 CURVE SMOOTH",
"64 145 OFFCURVE",
"63 111 OFFCURVE",
"63 83 CURVE SMOOTH",
"63 62 OFFCURVE",
"64 44 OFFCURVE",
"65 36 CURVE SMOOTH",
"66 15 OFFCURVE",
"62 2 OFFCURVE",
"78 1 CURVE"
);
}
);
width = 465;
}
);
rightKerningGroup = F.alt;
},
{
glyphname = G.alt;
layers = (
{
anchors = (
{
name = bottom;
position = "{277, 0}";
},
{
name = top;
position = "{284, 710}";
}
);
color = -1;
layerId = "FC508690-ADF2-4DBF-B34D-60B2640A846D";
paths = (
{
closed = 1;
nodes = (
"500 -13 OFFCURVE",
"503 219 OFFCURVE",
"503 238 CURVE SMOOTH",
"504 257 OFFCURVE",
"498 271 OFFCURVE",
"486 271 CURVE SMOOTH",
"475 271 OFFCURVE",
"297 266 OFFCURVE",
"281 266 CURVE",
"235 266 LINE SMOOTH",
"231 266 OFFCURVE",
"224 267 OFFCURVE",
"224 251 CURVE SMOOTH",
"224 212 LINE SMOOTH",
"224 205 OFFCURVE",
"226 196 OFFCURVE",
"241 196 CURVE SMOOTH",
"342 195 LINE SMOOTH",
"353 195 OFFCURVE",
"371 194 OFFCURVE",
"387 194 CURVE SMOOTH",
"416 194 LINE",
"413 173 OFFCURVE",
"406 154 OFFCURVE",
"395 137 CURVE SMOOTH",
"376 109 OFFCURVE",
"345 81 OFFCURVE",
"285 81 CURVE SMOOTH",
"168 81 OFFCURVE",
"128 253 OFFCURVE",
"128 348 CURVE SMOOTH",
"128 444 OFFCURVE",
"171 611 OFFCURVE",
"260 611 CURVE SMOOTH",
"321 611 OFFCURVE",
"362 554 OFFCURVE",
"370 546 CURVE SMOOTH",
"375 541 OFFCURVE",
"381 537 OFFCURVE",
"388 537 CURVE SMOOTH",
"391 537 OFFCURVE",
"394 538 OFFCURVE",
"397 540 CURVE SMOOTH",
"407 547 OFFCURVE",
"436 571 OFFCURVE",
"444 579 CURVE SMOOTH",
"449 584 OFFCURVE",
"453 591 OFFCURVE",
"453 600 CURVE SMOOTH",
"453 606 OFFCURVE",
"451 612 OFFCURVE",
"445 619 CURVE SMOOTH",
"430 634 OFFCURVE",
"397 708 OFFCURVE",
"274 708 CURVE SMOOTH",
"150 708 OFFCURVE",
"39 554 OFFCURVE",
"39 374 CURVE SMOOTH",
"39 195 OFFCURVE",
"115 -13 OFFCURVE",
"274 -13 CURVE SMOOTH"
);
}
);
width = 533;
}
);
leftKerningGroup = O.alt;
},
{
glyphname = H.alt;
layers = (
{
anchors = (
{
name = bottom;
position = "{317, 0}";
},
{
name = top;
position = "{332, 710}";
}
);
color = -1;
layerId = "FC508690-ADF2-4DBF-B34D-60B2640A846D";
paths = (
{
closed = 1;
nodes = (
"108 -1 OFFCURVE",
"149 3 OFFCURVE",
"166 4 CURVE SMOOTH",
"183 4 OFFCURVE",
"209 1 OFFCURVE",
"224 0 CURVE SMOOTH",
"239 0 OFFCURVE",
"254 -3 OFFCURVE",
"251 17 CURVE SMOOTH",
"249 28 OFFCURVE",
"249 55 OFFCURVE",
"249 82 CURVE SMOOTH",
"249 100 OFFCURVE",
"249 118 OFFCURVE",
"249 133 CURVE SMOOTH",
"249 152 OFFCURVE",
"249 189 OFFCURVE",
"252 224 CURVE",
"255 287 LINE",
"264 286 OFFCURVE",
"272 286 OFFCURVE",
"279 286 CURVE SMOOTH",
"286 286 OFFCURVE",
"293 285 OFFCURVE",
"299 285 CURVE SMOOTH",
"306 285 OFFCURVE",
"312 286 OFFCURVE",
"317 286 CURVE SMOOTH",
"326 286 OFFCURVE",
"344 287 OFFCURVE",
"360 287 CURVE SMOOTH",
"389 287 LINE",
"389 271 OFFCURVE",
"389 256 OFFCURVE",
"390 241 CURVE",
"390 216 OFFCURVE",
"391 186 OFFCURVE",
"392 167 CURVE SMOOTH",
"395 131 OFFCURVE",
"396 39 OFFCURVE",
"396 25 CURVE SMOOTH",
"396 11 OFFCURVE",
"393 1 OFFCURVE",
"410 1 CURVE SMOOTH",
"410 1 OFFCURVE",
"411 1 OFFCURVE",
"412 1 CURVE SMOOTH",
"431 1 OFFCURVE",
"474 1 OFFCURVE",
"502 4 CURVE SMOOTH",
"513 5 OFFCURVE",
"521 6 OFFCURVE",
"528 6 CURVE SMOOTH",
"538 6 OFFCURVE",
"544 5 OFFCURVE",
"548 4 CURVE",
"556 4 OFFCURVE",
"568 0 OFFCURVE",
"568 19 CURVE SMOOTH",
"568 19 OFFCURVE",
"568 20 OFFCURVE",
"568 21 CURVE SMOOTH",
"565 40 OFFCURVE",
"564 118 OFFCURVE",
"564 158 CURVE SMOOTH",
"564 199 OFFCURVE",
"562 316 OFFCURVE",
"562 356 CURVE SMOOTH",
"562 395 OFFCURVE",
"574 506 OFFCURVE",
"574 538 CURVE SMOOTH",
"574 571 OFFCURVE",
"581 671 OFFCURVE",
"581 688 CURVE",
"578 705 OFFCURVE",
"583 709 OFFCURVE",
"563 712 CURVE SMOOTH",
"549 714 OFFCURVE",
"529 715 OFFCURVE",
"510 715 CURVE SMOOTH",
"499 715 OFFCURVE",
"489 715 OFFCURVE",
"481 714 CURVE SMOOTH",
"458 711 OFFCURVE",
"440 708 OFFCURVE",
"425 708 CURVE SMOOTH",
"410 707 OFFCURVE",
"408 701 OFFCURVE",
"407 682 CURVE SMOOTH",
"407 664 OFFCURVE",
"403 531 OFFCURVE",
"403 507 CURVE",
"400 459 LINE",
"397 429 LINE",
"374 431 LINE SMOOTH",
"367 432 OFFCURVE",
"360 432 OFFCURVE",
"353 432 CURVE SMOOTH",
"346 432 OFFCURVE",
"340 432 OFFCURVE",
"334 431 CURVE SMOOTH",
"325 430 OFFCURVE",
"309 429 OFFCURVE",
"295 429 CURVE SMOOTH",
"275 429 OFFCURVE",
"256 430 OFFCURVE",
"252 430 CURVE",
"254 476 LINE SMOOTH",
"255 503 OFFCURVE",
"256 535 OFFCURVE",
"256 562 CURVE SMOOTH",
"256 615 OFFCURVE",
"254 675 OFFCURVE",
"254 683 CURVE SMOOTH",
"254 691 OFFCURVE",
"256 701 OFFCURVE",
"246 701 CURVE SMOOTH",
"246 701 OFFCURVE",
"245 701 OFFCURVE",
"245 701 CURVE",
"233 701 OFFCURVE",
"197 699 OFFCURVE",
"174 699 CURVE SMOOTH",
"152 699 OFFCURVE",
"109 701 OFFCURVE",
"99 703 CURVE",
"95 703 OFFCURVE",
"90 704 OFFCURVE",
"86 704 CURVE SMOOTH",
"79 704 OFFCURVE",
"74 702 OFFCURVE",
"74 690 CURVE SMOOTH",
"74 671 OFFCURVE",
"65 540 OFFCURVE",
"65 505 CURVE SMOOTH",
"65 482 OFFCURVE",
"63 442 OFFCURVE",
"63 405 CURVE SMOOTH",
"63 382 OFFCURVE",
"64 360 OFFCURVE",
"66 345 CURVE SMOOTH",
"67 334 OFFCURVE",
"67 316 OFFCURVE",
"67 294 CURVE SMOOTH",
"67 236 OFFCURVE",
"65 156 OFFCURVE",
"65 137 CURVE SMOOTH",
"65 111 OFFCURVE",
"62 39 OFFCURVE",
"62 26 CURVE SMOOTH",
"62 13 OFFCURVE",
"64 -5 OFFCURVE",
"85 -2 CURVE"
);
}
);
width = 638;
}
);
},
{
glyphname = Hbar.alt;
layers = (
{
color = -1;
components = (
{
name = H.alt;
}
);
layerId = "FC508690-ADF2-4DBF-B34D-60B2640A846D";
paths = (
{
closed = 1;
nodes = (
"105 523 OFFCURVE",
"117 523 OFFCURVE",
"126 525 CURVE",
"137 525 OFFCURVE",
"153 526 OFFCURVE",
"210 526 CURVE",
"239 527 OFFCURVE",
"285 527 OFFCURVE",
"346 527 CURVE SMOOTH",
"486 528 OFFCURVE",
"520 528 OFFCURVE",
"527 528 CURVE SMOOTH",
"552 528 OFFCURVE",
"587 531 OFFCURVE",
"595 531 CURVE SMOOTH",
"600 531 OFFCURVE",
"606 530 OFFCURVE",
"610 530 CURVE SMOOTH",
"617 530 OFFCURVE",
"621 532 OFFCURVE",
"621 538 CURVE SMOOTH",
"621 590 LINE SMOOTH",
"621 597 OFFCURVE",
"625 607 OFFCURVE",
"612 607 CURVE",
"241 607 LINE SMOOTH",
"190 607 OFFCURVE",
"158 606 OFFCURVE",
"143 605 CURVE SMOOTH",
"129 604 OFFCURVE",
"118 604 OFFCURVE",
"109 604 CURVE SMOOTH",
"37 604 LINE",
"31 605 OFFCURVE",
"26 606 OFFCURVE",
"22 606 CURVE SMOOTH",
"15 606 OFFCURVE",
"11 604 OFFCURVE",
"11 600 CURVE",
"8 593 OFFCURVE",
"15 553 OFFCURVE",
"15 541 CURVE SMOOTH",
"15 530 OFFCURVE",
"10 525 OFFCURVE",
"33 525 CURVE SMOOTH",
"44 525 OFFCURVE",
"69 523 OFFCURVE",
"93 523 CURVE SMOOTH"
);
}
);
width = 638;
}
);
},
{
glyphname = I.alt;
layers = (
{
anchors = (
{
name = bottom;
position = "{151, 0}";
},
{
name = top;
position = "{127, 710}";
}
);
color = -1;
layerId = "FC508690-ADF2-4DBF-B34D-60B2640A846D";
paths = (
{
closed = 1;
nodes = (
"153 -8 LINE",
"168 -9 OFFCURVE",
"184 -8 OFFCURVE",
"183 11 CURVE SMOOTH",
"183 26 OFFCURVE",
"181 68 OFFCURVE",
"181 96 CURVE SMOOTH",
"181 106 OFFCURVE",
"181 115 OFFCURVE",
"182 119 CURVE SMOOTH",
"183 123 OFFCURVE",
"183 131 OFFCURVE",
"183 142 CURVE SMOOTH",
"183 178 OFFCURVE",
"180 241 OFFCURVE",
"180 259 CURVE SMOOTH",
"180 276 OFFCURVE",
"178 340 OFFCURVE",
"178 411 CURVE SMOOTH",
"178 437 OFFCURVE",
"178 465 OFFCURVE",
"179 491 CURVE",
"180 586 OFFCURVE",
"188 643 OFFCURVE",
"191 666 CURVE SMOOTH",
"192 675 OFFCURVE",
"194 682 OFFCURVE",
"194 688 CURVE SMOOTH",
"194 697 OFFCURVE",
"189 702 OFFCURVE",
"172 704 CURVE SMOOTH",
"143 707 OFFCURVE",
"110 704 OFFCURVE",
"93 705 CURVE",
"90 706 OFFCURVE",
"87 706 OFFCURVE",
"85 706 CURVE SMOOTH",
"74 706 OFFCURVE",
"65 699 OFFCURVE",
"65 667 CURVE SMOOTH",
"65 625 LINE",
"63 589 LINE SMOOTH",
"62 570 OFFCURVE",
"61 547 OFFCURVE",
"61 535 CURVE SMOOTH",
"61 511 OFFCURVE",
"57 372 OFFCURVE",
"57 346 CURVE SMOOTH",
"57 319 OFFCURVE",
"44 145 OFFCURVE",
"44 108 CURVE SMOOTH",
"44 73 OFFCURVE",
"35 39 OFFCURVE",
"38 23 CURVE",
"39 6 OFFCURVE",
"39 -9 OFFCURVE",
"62 -8 CURVE"
);
}
);
width = 243;
}
);
},
{
glyphname = IJ.alt;
layers = (
{
color = -1;
layerId = "FC508690-ADF2-4DBF-B34D-60B2640A846D";
paths = (
{
closed = 1;
nodes = (
"624 -15 OFFCURVE",
"583 238 OFFCURVE",
"587 316 CURVE SMOOTH",
"592 394 OFFCURVE",
"593 511 OFFCURVE",
"593 553 CURVE SMOOTH",
"593 596 OFFCURVE",
"598 649 OFFCURVE",
"598 671 CURVE SMOOTH",
"598 694 OFFCURVE",
"590 699 OFFCURVE",
"567 699 CURVE",
"508 699 LINE SMOOTH",
"501 699 OFFCURVE",
"493 700 OFFCURVE",
"486 700 CURVE SMOOTH",
"472 700 OFFCURVE",
"460 696 OFFCURVE",
"460 672 CURVE SMOOTH",
"461 445 LINE SMOOTH",
"461 407 OFFCURVE",
"465 336 OFFCURVE",
"465 272 CURVE SMOOTH",
"465 200 OFFCURVE",
"460 137 OFFCURVE",
"440 137 CURVE SMOOTH",
"409 137 OFFCURVE",
"402 177 OFFCURVE",
"402 212 CURVE SMOOTH",
"402 221 OFFCURVE",
"402 230 OFFCURVE",
"403 238 CURVE SMOOTH",
"404 248 OFFCURVE",
"404 258 OFFCURVE",
"404 267 CURVE SMOOTH",
"404 293 OFFCURVE",
"402 317 OFFCURVE",
"402 331 CURVE SMOOTH",
"402 351 OFFCURVE",
"408 368 OFFCURVE",
"377 368 CURVE SMOOTH",
"346 368 OFFCURVE",
"333 365 OFFCURVE",
"313 366 CURVE SMOOTH",
"293 366 OFFCURVE",
"265 381 OFFCURVE",
"268 330 CURVE SMOOTH",
"271 278 OFFCURVE",
"272 221 OFFCURVE",
"272 193 CURVE SMOOTH",
"272 165 OFFCURVE",
"280 -15 OFFCURVE",
"440 -15 CURVE SMOOTH"
);
},
{
closed = 1;
nodes = (
"153 -8 LINE",
"168 -9 OFFCURVE",
"184 -8 OFFCURVE",
"183 11 CURVE SMOOTH",
"183 26 OFFCURVE",
"181 68 OFFCURVE",
"181 96 CURVE SMOOTH",
"181 106 OFFCURVE",
"181 115 OFFCURVE",
"182 119 CURVE SMOOTH",
"183 123 OFFCURVE",
"183 131 OFFCURVE",
"183 142 CURVE SMOOTH",
"183 178 OFFCURVE",
"180 241 OFFCURVE",
"180 259 CURVE SMOOTH",
"180 276 OFFCURVE",
"178 340 OFFCURVE",
"178 411 CURVE SMOOTH",
"178 437 OFFCURVE",
"178 465 OFFCURVE",
"179 491 CURVE",
"180 586 OFFCURVE",
"188 643 OFFCURVE",
"191 666 CURVE SMOOTH",
"192 675 OFFCURVE",
"194 682 OFFCURVE",
"194 688 CURVE SMOOTH",
"194 697 OFFCURVE",
"189 702 OFFCURVE",
"172 704 CURVE SMOOTH",
"143 707 OFFCURVE",
"110 704 OFFCURVE",
"93 705 CURVE",
"90 706 OFFCURVE",
"87 706 OFFCURVE",
"85 706 CURVE SMOOTH",
"74 706 OFFCURVE",
"65 699 OFFCURVE",
"65 667 CURVE SMOOTH",
"65 625 LINE",
"63 589 LINE SMOOTH",
"62 570 OFFCURVE",
"61 547 OFFCURVE",
"61 535 CURVE SMOOTH",
"61 511 OFFCURVE",
"57 372 OFFCURVE",
"57 346 CURVE SMOOTH",
"57 319 OFFCURVE",
"44 145 OFFCURVE",
"44 108 CURVE SMOOTH",
"44 73 OFFCURVE",
"35 39 OFFCURVE",
"38 23 CURVE",
"39 6 OFFCURVE",
"39 -9 OFFCURVE",
"62 -8 CURVE"
);
}
);
width = 663;
}
);
},
{
glyphname = J.alt;
layers = (
{
anchors = (
{
name = bottom;
position = "{262, 0}";
},
{
name = top;
position = "{269, 710}";
}
);
color = -1;
layerId = "FC508690-ADF2-4DBF-B34D-60B2640A846D";
paths = (
{
closed = 1;
nodes = (
"367 -15 OFFCURVE",
"326 238 OFFCURVE",
"330 316 CURVE SMOOTH",
"335 394 OFFCURVE",
"336 511 OFFCURVE",
"336 553 CURVE SMOOTH",
"336 596 OFFCURVE",
"341 649 OFFCURVE",
"341 671 CURVE SMOOTH",
"341 694 OFFCURVE",
"333 699 OFFCURVE",
"310 699 CURVE",
"251 699 LINE SMOOTH",
"244 699 OFFCURVE",
"236 700 OFFCURVE",
"229 700 CURVE SMOOTH",
"215 700 OFFCURVE",
"203 696 OFFCURVE",
"203 672 CURVE SMOOTH",
"204 445 LINE SMOOTH",
"204 407 OFFCURVE",
"208 336 OFFCURVE",
"208 272 CURVE SMOOTH",
"208 200 OFFCURVE",
"203 137 OFFCURVE",
"183 137 CURVE SMOOTH",
"152 137 OFFCURVE",
"145 177 OFFCURVE",
"145 212 CURVE SMOOTH",
"145 221 OFFCURVE",
"145 230 OFFCURVE",
"146 238 CURVE SMOOTH",
"147 248 OFFCURVE",
"147 258 OFFCURVE",
"147 267 CURVE SMOOTH",
"147 293 OFFCURVE",
"145 317 OFFCURVE",
"145 331 CURVE SMOOTH",
"145 351 OFFCURVE",
"151 368 OFFCURVE",
"120 368 CURVE SMOOTH",
"89 368 OFFCURVE",
"76 365 OFFCURVE",
"56 366 CURVE SMOOTH",
"36 366 OFFCURVE",
"8 381 OFFCURVE",
"11 330 CURVE SMOOTH",
"14 278 OFFCURVE",
"15 221 OFFCURVE",
"15 193 CURVE SMOOTH",
"15 165 OFFCURVE",
"23 -15 OFFCURVE",
"183 -15 CURVE SMOOTH"
);
}
);
width = 393;
}
);
leftKerningGroup = J.alt;
},
{
glyphname = K.alt;
layers = (
{
anchors = (
{
name = bottom;
position = "{299, 0}";
},
{
name = top;
position = "{286, 710}";
}
);
color = -1;
layerId = "FC508690-ADF2-4DBF-B34D-60B2640A846D";
paths = (
{
closed = 1;
nodes = (
"467 -8 OFFCURVE",
"520 -5 OFFCURVE",
"531 -5 CURVE",
"540 -7 OFFCURVE",
"551 -4 OFFCURVE",
"551 2 CURVE SMOOTH",
"551 3 OFFCURVE",
"550 5 OFFCURVE",
"549 6 CURVE SMOOTH",
"541 14 OFFCURVE",
"491 69 OFFCURVE",
"457 100 CURVE SMOOTH",
"422 132 OFFCURVE",
"363 201 OFFCURVE",
"352 212 CURVE SMOOTH",
"341 223 OFFCURVE",
"289 277 OFFCURVE",
"276 293 CURVE",
"261 309 OFFCURVE",
"250 316 OFFCURVE",
"250 323 CURVE SMOOTH",
"250 328 OFFCURVE",
"288 391 OFFCURVE",
"301 407 CURVE SMOOTH",
"315 423 OFFCURVE",
"401 540 OFFCURVE",
"417 564 CURVE",
"436 588 OFFCURVE",
"509 677 OFFCURVE",
"514 682 CURVE SMOOTH",
"519 687 OFFCURVE",
"524 691 OFFCURVE",
"524 696 CURVE SMOOTH",
"524 700 OFFCURVE",
"518 703 OFFCURVE",
"506 703 CURVE SMOOTH",
"505 703 OFFCURVE",
"504 703 OFFCURVE",
"502 703 CURVE SMOOTH",
"487 702 OFFCURVE",
"469 700 OFFCURVE",
"460 700 CURVE SMOOTH",
"451 699 OFFCURVE",
"436 702 OFFCURVE",
"431 686 CURVE SMOOTH",
"425 669 OFFCURVE",
"384 624 OFFCURVE",
"374 609 CURVE SMOOTH",
"364 594 OFFCURVE",
"285 484 OFFCURVE",
"266 460 CURVE SMOOTH",
"229 412 LINE SMOOTH",
"222 402 OFFCURVE",
"214 392 OFFCURVE",
"205 382 CURVE",
"204 397 OFFCURVE",
"204 411 OFFCURVE",
"204 424 CURVE SMOOTH",
"204 490 LINE SMOOTH",
"204 522 OFFCURVE",
"215 600 OFFCURVE",
"215 628 CURVE SMOOTH",
"215 657 OFFCURVE",
"214 670 OFFCURVE",
"214 677 CURVE SMOOTH",
"214 684 OFFCURVE",
"213 691 OFFCURVE",
"198 691 CURVE SMOOTH",
"84 692 LINE SMOOTH",
"78 692 OFFCURVE",
"69 695 OFFCURVE",
"62 695 CURVE SMOOTH",
"56 695 OFFCURVE",
"52 693 OFFCURVE",
"52 686 CURVE SMOOTH",
"51 607 LINE SMOOTH",
"51 594 OFFCURVE",
"50 568 OFFCURVE",
"50 541 CURVE SMOOTH",
"50 528 OFFCURVE",
"50 515 OFFCURVE",
"51 503 CURVE SMOOTH",
"53 481 OFFCURVE",
"53 419 OFFCURVE",
"53 362 CURVE SMOOTH",
"53 324 OFFCURVE",
"53 288 OFFCURVE",
"53 268 CURVE SMOOTH",
"54 23 LINE SMOOTH",
"54 7 OFFCURVE",
"53 0 OFFCURVE",
"64 0 CURVE SMOOTH",
"74 0 OFFCURVE",
"127 3 OFFCURVE",
"141 3 CURVE SMOOTH",
"156 3 OFFCURVE",
"185 0 OFFCURVE",
"194 0 CURVE SMOOTH",
"202 0 OFFCURVE",
"213 -3 OFFCURVE",
"213 14 CURVE SMOOTH",
"213 32 OFFCURVE",
"208 89 OFFCURVE",
"208 110 CURVE",
"208 194 LINE",
"246 162 LINE",
"266 143 OFFCURVE",
"290 124 OFFCURVE",
"303 111 CURVE SMOOTH",
"330 84 OFFCURVE",
"357 56 OFFCURVE",
"372 40 CURVE SMOOTH",
"387 23 OFFCURVE",
"402 10 OFFCURVE",
"409 3 CURVE SMOOTH",
"417 -4 OFFCURVE",
"428 -9 OFFCURVE",
"448 -8 CURVE SMOOTH"
);
}
);
width = 553;
}
);
},
{
glyphname = L.alt;
layers = (
{
anchors = (
{
name = bottom;
position = "{324, 0}";
},
{
name = top;
position = "{112, 710}";
}
);
color = -1;
layerId = "FC508690-ADF2-4DBF-B34D-60B2640A846D";
paths = (
{
closed = 1;
nodes = (
"96 -5 OFFCURVE",
"130 -3 OFFCURVE",
"155 -3 CURVE SMOOTH",
"164 -3 OFFCURVE",
"172 -3 OFFCURVE",
"178 -4 CURVE SMOOTH",
"181 -4 OFFCURVE",
"187 -5 OFFCURVE",
"195 -5 CURVE SMOOTH",
"235 -5 OFFCURVE",
"329 1 OFFCURVE",
"358 1 CURVE SMOOTH",
"393 1 OFFCURVE",
"536 -2 OFFCURVE",
"555 -2 CURVE SMOOTH",
"571 -2 OFFCURVE",
"578 -1 OFFCURVE",
"578 6 CURVE SMOOTH",
"578 7 OFFCURVE",
"577 9 OFFCURVE",
"577 11 CURVE SMOOTH",
"577 22 OFFCURVE",
"567 107 OFFCURVE",
"567 129 CURVE",
"567 175 LINE SMOOTH",
"567 179 OFFCURVE",
"569 183 OFFCURVE",
"569 186 CURVE SMOOTH",
"569 189 OFFCURVE",
"567 191 OFFCURVE",
"558 192 CURVE",
"543 192 OFFCURVE",
"444 196 OFFCURVE",
"406 196 CURVE SMOOTH",
"369 196 OFFCURVE",
"257 194 OFFCURVE",
"221 194 CURVE",
"202 193 OFFCURVE",
"183 194 OFFCURVE",
"168 195 CURVE SMOOTH",
"144 197 LINE",
"143 198 OFFCURVE",
"143 199 OFFCURVE",
"143 202 CURVE SMOOTH",
"143 206 OFFCURVE",
"142 211 OFFCURVE",
"143 220 CURVE SMOOTH",
"144 225 OFFCURVE",
"144 234 OFFCURVE",
"144 246 CURVE SMOOTH",
"144 276 OFFCURVE",
"142 323 OFFCURVE",
"142 339 CURVE SMOOTH",
"143 482 LINE SMOOTH",
"143 511 OFFCURVE",
"150 683 OFFCURVE",
"150 692 CURVE SMOOTH",
"150 699 OFFCURVE",
"148 700 OFFCURVE",
"144 700 CURVE SMOOTH",
"142 700 OFFCURVE",
"139 700 OFFCURVE",
"135 700 CURVE SMOOTH",
"112 700 OFFCURVE",
"106 701 OFFCURVE",
"97 701 CURVE SMOOTH",
"88 701 OFFCURVE",
"72 706 OFFCURVE",
"72 694 CURVE SMOOTH",
"72 694 OFFCURVE",
"72 693 OFFCURVE",
"72 693 CURVE",
"72 679 OFFCURVE",
"74 638 OFFCURVE",
"74 629 CURVE SMOOTH",
"75 516 LINE SMOOTH",
"75 487 OFFCURVE",
"63 273 OFFCURVE",
"63 321 CURVE SMOOTH",
"63 288 OFFCURVE",
"68 220 OFFCURVE",
"68 200 CURVE SMOOTH",
"68 177 OFFCURVE",
"62 37 OFFCURVE",
"62 21 CURVE SMOOTH",
"62 2 OFFCURVE",
"57 -5 OFFCURVE",
"79 -5 CURVE SMOOTH"
);
}
);
width = 579;
}
);
rightKerningGroup = L.alt;
},
{
glyphname = LJ.alt;
layers = (
{
color = -1;
layerId = "FC508690-ADF2-4DBF-B34D-60B2640A846D";
paths = (
{
closed = 1;
nodes = (
"96 -5 OFFCURVE",
"130 -3 OFFCURVE",
"155 -3 CURVE SMOOTH",
"164 -3 OFFCURVE",
"172 -3 OFFCURVE",
"178 -4 CURVE SMOOTH",
"181 -4 OFFCURVE",
"187 -5 OFFCURVE",
"195 -5 CURVE SMOOTH",
"235 -5 OFFCURVE",
"329 1 OFFCURVE",
"358 1 CURVE SMOOTH",
"393 1 OFFCURVE",
"536 -2 OFFCURVE",
"555 -2 CURVE SMOOTH",
"571 -2 OFFCURVE",
"578 -1 OFFCURVE",
"578 6 CURVE SMOOTH",
"578 7 OFFCURVE",
"577 9 OFFCURVE",
"577 11 CURVE SMOOTH",
"577 22 OFFCURVE",
"567 107 OFFCURVE",
"567 129 CURVE",
"567 175 LINE SMOOTH",
"567 179 OFFCURVE",
"569 183 OFFCURVE",
"569 186 CURVE SMOOTH",
"569 189 OFFCURVE",
"567 191 OFFCURVE",
"558 192 CURVE",
"543 192 OFFCURVE",
"444 196 OFFCURVE",
"406 196 CURVE SMOOTH",
"369 196 OFFCURVE",
"257 194 OFFCURVE",
"221 194 CURVE",
"202 193 OFFCURVE",
"183 194 OFFCURVE",
"168 195 CURVE SMOOTH",
"144 197 LINE",
"143 198 OFFCURVE",
"143 199 OFFCURVE",
"143 202 CURVE SMOOTH",
"143 206 OFFCURVE",
"142 211 OFFCURVE",
"143 220 CURVE SMOOTH",
"144 225 OFFCURVE",
"144 234 OFFCURVE",
"144 246 CURVE SMOOTH",
"144 276 OFFCURVE",
"142 323 OFFCURVE",
"142 339 CURVE SMOOTH",
"143 482 LINE SMOOTH",
"143 511 OFFCURVE",
"150 683 OFFCURVE",
"150 692 CURVE SMOOTH",
"150 699 OFFCURVE",
"148 700 OFFCURVE",
"144 700 CURVE SMOOTH",
"142 700 OFFCURVE",
"139 700 OFFCURVE",
"135 700 CURVE SMOOTH",
"112 700 OFFCURVE",
"106 701 OFFCURVE",
"97 701 CURVE SMOOTH",
"88 701 OFFCURVE",
"72 706 OFFCURVE",
"72 694 CURVE SMOOTH",
"72 694 OFFCURVE",
"72 693 OFFCURVE",
"72 693 CURVE",
"72 679 OFFCURVE",
"74 638 OFFCURVE",
"74 629 CURVE SMOOTH",
"75 516 LINE SMOOTH",
"75 487 OFFCURVE",
"63 273 OFFCURVE",
"63 321 CURVE SMOOTH",
"63 288 OFFCURVE",
"68 220 OFFCURVE",
"68 200 CURVE SMOOTH",
"68 177 OFFCURVE",
"62 37 OFFCURVE",
"62 21 CURVE SMOOTH",
"62 2 OFFCURVE",
"57 -5 OFFCURVE",
"79 -5 CURVE SMOOTH"
);
},
{
closed = 1;
nodes = (
"946 -15 OFFCURVE",
"905 238 OFFCURVE",
"909 316 CURVE SMOOTH",
"914 394 OFFCURVE",
"915 511 OFFCURVE",
"915 553 CURVE SMOOTH",
"915 596 OFFCURVE",
"920 649 OFFCURVE",
"920 671 CURVE SMOOTH",
"920 694 OFFCURVE",
"912 699 OFFCURVE",
"889 699 CURVE",
"830 699 LINE SMOOTH",
"823 699 OFFCURVE",
"815 700 OFFCURVE",
"808 700 CURVE SMOOTH",
"794 700 OFFCURVE",
"782 696 OFFCURVE",
"782 672 CURVE SMOOTH",
"783 445 LINE SMOOTH",
"783 407 OFFCURVE",
"787 336 OFFCURVE",
"787 272 CURVE SMOOTH",
"787 200 OFFCURVE",
"782 137 OFFCURVE",
"762 137 CURVE SMOOTH",
"731 137 OFFCURVE",
"724 177 OFFCURVE",
"724 212 CURVE SMOOTH",
"724 221 OFFCURVE",
"724 230 OFFCURVE",
"725 238 CURVE SMOOTH",
"726 248 OFFCURVE",
"726 258 OFFCURVE",
"726 267 CURVE SMOOTH",
"726 293 OFFCURVE",
"724 317 OFFCURVE",
"724 331 CURVE SMOOTH",
"724 351 OFFCURVE",
"730 368 OFFCURVE",
"699 368 CURVE SMOOTH",
"668 368 OFFCURVE",
"655 365 OFFCURVE",
"635 366 CURVE SMOOTH",
"615 366 OFFCURVE",
"587 381 OFFCURVE",
"590 330 CURVE SMOOTH",
"593 278 OFFCURVE",
"594 221 OFFCURVE",
"594 193 CURVE SMOOTH",
"594 165 OFFCURVE",
"602 -15 OFFCURVE",
"762 -15 CURVE SMOOTH"
);
}
);
width = 972;
}
);
},
{
glyphname = Ldot.alt;
layers = (
{
background = {
paths = (
{
closed = 1;
nodes = (
"567 129 CURVE",
"567 175 LINE SMOOTH",
"567 179 OFFCURVE",
"569 183 OFFCURVE",
"569 186 CURVE SMOOTH",
"569 189 OFFCURVE",
"567 191 OFFCURVE",
"558 192 CURVE",
"543 192 OFFCURVE",
"444 196 OFFCURVE",
"406 196 CURVE SMOOTH",
"369 196 OFFCURVE",
"257 194 OFFCURVE",
"221 194 CURVE",
"202 193 OFFCURVE",
"183 194 OFFCURVE",
"168 195 CURVE SMOOTH",
"144 197 LINE",
"143 198 OFFCURVE",
"143 199 OFFCURVE",
"143 202 CURVE SMOOTH",
"143 206 OFFCURVE",
"142 211 OFFCURVE",
"143 220 CURVE SMOOTH",
"144 225 OFFCURVE",
"144 234 OFFCURVE",
"144 246 CURVE SMOOTH",
"144 276 OFFCURVE",
"142 323 OFFCURVE",
"142 339 CURVE SMOOTH",
"143 482 LINE SMOOTH",
"143 511 OFFCURVE",
"150 683 OFFCURVE",
"150 692 CURVE SMOOTH",
"150 699 OFFCURVE",
"148 700 OFFCURVE",
"144 700 CURVE SMOOTH",
"142 700 OFFCURVE",
"139 700 OFFCURVE",
"135 700 CURVE SMOOTH",
"112 700 OFFCURVE",
"106 701 OFFCURVE",
"97 701 CURVE SMOOTH",
"88 701 OFFCURVE",
"72 706 OFFCURVE",
"72 694 CURVE SMOOTH",
"72 694 OFFCURVE",
"72 693 OFFCURVE",
"72 693 CURVE",
"72 679 OFFCURVE",
"74 638 OFFCURVE",
"74 629 CURVE SMOOTH",
"75 516 LINE SMOOTH",
"75 487 OFFCURVE",
"63 273 OFFCURVE",
"63 321 CURVE SMOOTH",
"63 288 OFFCURVE",
"68 220 OFFCURVE",
"68 200 CURVE SMOOTH",
"68 177 OFFCURVE",
"62 37 OFFCURVE",
"62 21 CURVE SMOOTH",
"62 2 OFFCURVE",
"57 -5 OFFCURVE",
"79 -5 CURVE SMOOTH",
"96 -5 OFFCURVE",
"130 -3 OFFCURVE",
"155 -3 CURVE SMOOTH",
"164 -3 OFFCURVE",
"172 -3 OFFCURVE",
"178 -4 CURVE SMOOTH",
"181 -4 OFFCURVE",
"187 -5 OFFCURVE",
"195 -5 CURVE SMOOTH",
"235 -5 OFFCURVE",
"329 1 OFFCURVE",
"358 1 CURVE SMOOTH",
"393 1 OFFCURVE",
"536 -2 OFFCURVE",
"555 -2 CURVE SMOOTH",
"571 -2 OFFCURVE",
"578 -1 OFFCURVE",
"578 6 CURVE SMOOTH",
"578 7 OFFCURVE",
"577 9 OFFCURVE",
"577 11 CURVE SMOOTH",
"577 22 OFFCURVE",
"567 107 OFFCURVE"
);
},
{
closed = 1;
nodes = (
"372 514 CURVE SMOOTH",
"339 514 OFFCURVE",
"300 505 OFFCURVE",
"300 446 CURVE SMOOTH",
"300 391 OFFCURVE",
"336 366 OFFCURVE",
"372 366 CURVE SMOOTH",
"409 366 OFFCURVE",
"448 392 OFFCURVE",
"448 425 CURVE SMOOTH",
"448 457 OFFCURVE",
"442 514 OFFCURVE"
);
}
);
};
color = -1;
components = (
{
name = L.alt;
}
);
layerId = "FC508690-ADF2-4DBF-B34D-60B2640A846D";
paths = (
{
closed = 1;
nodes = (
"409 366 OFFCURVE",
"448 392 OFFCURVE",
"448 425 CURVE SMOOTH",
"448 457 OFFCURVE",
"442 514 OFFCURVE",
"372 514 CURVE SMOOTH",
"339 514 OFFCURVE",
"300 505 OFFCURVE",
"300 446 CURVE SMOOTH",
"300 391 OFFCURVE",
"336 366 OFFCURVE",
"372 366 CURVE SMOOTH"
);
}
);
width = 579;
}
);
},
{
glyphname = Lslash.alt;
layers = (
{
color = -1;
layerId = "FC508690-ADF2-4DBF-B34D-60B2640A846D";
paths = (
{
closed = 1;
nodes = (
"136 -5 OFFCURVE",
"170 -3 OFFCURVE",
"195 -3 CURVE SMOOTH",
"204 -3 OFFCURVE",
"212 -3 OFFCURVE",
"218 -4 CURVE SMOOTH",
"221 -4 OFFCURVE",
"227 -5 OFFCURVE",
"235 -5 CURVE SMOOTH",
"275 -5 OFFCURVE",
"369 1 OFFCURVE",
"398 1 CURVE SMOOTH",
"433 1 OFFCURVE",
"576 -2 OFFCURVE",
"595 -2 CURVE SMOOTH",
"611 -2 OFFCURVE",
"618 -1 OFFCURVE",
"618 6 CURVE SMOOTH",
"618 7 OFFCURVE",
"617 9 OFFCURVE",
"617 11 CURVE SMOOTH",
"617 22 OFFCURVE",
"607 107 OFFCURVE",
"607 129 CURVE",
"607 175 LINE SMOOTH",
"607 179 OFFCURVE",
"609 183 OFFCURVE",
"609 186 CURVE SMOOTH",
"609 189 OFFCURVE",
"607 191 OFFCURVE",
"598 192 CURVE",
"583 192 OFFCURVE",
"484 196 OFFCURVE",
"446 196 CURVE SMOOTH",
"409 196 OFFCURVE",
"297 194 OFFCURVE",
"261 194 CURVE",
"242 193 OFFCURVE",
"223 194 OFFCURVE",
"208 195 CURVE SMOOTH",
"184 197 LINE",
"183 198 OFFCURVE",
"183 199 OFFCURVE",
"183 202 CURVE SMOOTH",
"183 206 OFFCURVE",
"182 211 OFFCURVE",
"183 220 CURVE SMOOTH",
"184 225 OFFCURVE",
"184 234 OFFCURVE",
"184 246 CURVE SMOOTH",
"184 276 OFFCURVE",
"182 323 OFFCURVE",
"182 339 CURVE SMOOTH",
"182 382 LINE",
"200 390 OFFCURVE",
"213 395 OFFCURVE",
"221 398 CURVE SMOOTH",
"233 403 OFFCURVE",
"245 407 OFFCURVE",
"256 412 CURVE SMOOTH",
"285 425 LINE SMOOTH",
"316 438 OFFCURVE",
"320 447 OFFCURVE",
"317 456 CURVE",
"292 504 LINE SMOOTH",
"287 512 OFFCURVE",
"282 516 OFFCURVE",
"277 516 CURVE SMOOTH",
"271 516 OFFCURVE",
"265 513 OFFCURVE",
"258 509 CURVE SMOOTH",
"183 473 LINE",
"183 482 LINE SMOOTH",
"183 511 OFFCURVE",
"190 683 OFFCURVE",
"190 692 CURVE SMOOTH",
"190 699 OFFCURVE",
"188 700 OFFCURVE",
"184 700 CURVE SMOOTH",
"182 700 OFFCURVE",
"179 700 OFFCURVE",
"175 700 CURVE SMOOTH",
"152 700 OFFCURVE",
"146 701 OFFCURVE",
"137 701 CURVE SMOOTH",
"128 701 OFFCURVE",
"112 706 OFFCURVE",
"112 694 CURVE SMOOTH",
"112 694 OFFCURVE",
"112 693 OFFCURVE",
"112 693 CURVE",
"112 679 OFFCURVE",
"114 638 OFFCURVE",
"114 629 CURVE SMOOTH",
"115 516 LINE SMOOTH",
"115 506 OFFCURVE",
"113 474 OFFCURVE",
"112 439 CURVE",
"48 410 LINE",
"-2 388 LINE",
"-12 382 OFFCURVE",
"-16 377 OFFCURVE",
"-16 369 CURVE SMOOTH",
"-16 366 OFFCURVE",
"-15 362 OFFCURVE",
"-14 357 CURVE SMOOTH",
"-2 310 LINE",
"2 303 OFFCURVE",
"6 300 OFFCURVE",
"12 300 CURVE SMOOTH",
"12 300 OFFCURVE",
"13 300 OFFCURVE",
"14 300 CURVE SMOOTH",
"23 301 OFFCURVE",
"36 314 OFFCURVE",
"53 322 CURVE SMOOTH",
"70 330 OFFCURVE",
"88 338 OFFCURVE",
"95 342 CURVE SMOOTH",
"105 347 LINE",
"104 336 LINE",
"103 333 OFFCURVE",
"103 328 OFFCURVE",
"103 321 CURVE SMOOTH",
"103 288 OFFCURVE",
"108 220 OFFCURVE",
"108 200 CURVE SMOOTH",
"108 177 OFFCURVE",
"102 37 OFFCURVE",
"102 21 CURVE SMOOTH",
"102 2 OFFCURVE",
"97 -5 OFFCURVE",
"119 -5 CURVE SMOOTH"
);
}
);
width = 619;
}
);
rightKerningGroup = L.alt;
},
{
glyphname = M.alt;
layers = (
{
color = -1;
layerId = "FC508690-ADF2-4DBF-B34D-60B2640A846D";
paths = (
{
closed = 1;
nodes = (
"320 -27 OFFCURVE",
"333 -9 OFFCURVE",
"340 6 CURVE SMOOTH",
"348 21 OFFCURVE",
"401 129 OFFCURVE",
"420 161 CURVE",
"436 193 OFFCURVE",
"491 307 OFFCURVE",
"510 344 CURVE",
"521 363 OFFCURVE",
"534 393 OFFCURVE",
"549 418 CURVE",
"556 433 OFFCURVE",
"565 448 OFFCURVE",
"574 464 CURVE",
"575 442 OFFCURVE",
"575 421 OFFCURVE",
"575 400 CURVE SMOOTH",
"575 365 OFFCURVE",
"575 323 OFFCURVE",
"574 299 CURVE",
"570 249 OFFCURVE",
"567 47 OFFCURVE",
"567 29 CURVE SMOOTH",
"567 22 OFFCURVE",
"566 16 OFFCURVE",
"566 12 CURVE SMOOTH",
"566 7 OFFCURVE",
"567 5 OFFCURVE",
"571 4 CURVE SMOOTH",
"579 3 OFFCURVE",
"598 3 OFFCURVE",
"606 3 CURVE SMOOTH",
"613 3 OFFCURVE",
"617 6 OFFCURVE",
"617 13 CURVE SMOOTH",
"617 14 OFFCURVE",
"617 15 OFFCURVE",
"617 16 CURVE",
"618 179 LINE",
"621 218 OFFCURVE",
"623 359 OFFCURVE",
"623 405 CURVE SMOOTH",
"623 452 OFFCURVE",
"623 545 OFFCURVE",
"626 597 CURVE SMOOTH",
"628 628 OFFCURVE",
"632 660 OFFCURVE",
"632 681 CURVE SMOOTH",
"632 695 OFFCURVE",
"630 704 OFFCURVE",
"624 704 CURVE SMOOTH",
"609 704 OFFCURVE",
"584 623 OFFCURVE",
"573 591 CURVE",
"560 559 OFFCURVE",
"522 482 OFFCURVE",
"498 426 CURVE SMOOTH",
"474 370 OFFCURVE",
"397 228 OFFCURVE",
"376 185 CURVE SMOOTH",
"348 130 LINE",
"335 107 LINE",
"313 175 LINE SMOOTH",
"301 212 OFFCURVE",
"287 253 OFFCURVE",
"278 276 CURVE",
"259 319 OFFCURVE",
"184 515 OFFCURVE",
"171 554 CURVE SMOOTH",
"158 594 OFFCURVE",
"143 639 OFFCURVE",
"140 674 CURVE SMOOTH",
"138 693 OFFCURVE",
"131 703 OFFCURVE",
"120 703 CURVE",
"111 702 OFFCURVE",
"102 702 OFFCURVE",
"95 702 CURVE SMOOTH",
"92 702 OFFCURVE",
"89 702 OFFCURVE",
"87 702 CURVE SMOOTH",
"80 703 OFFCURVE",
"74 706 OFFCURVE",
"74 687 CURVE SMOOTH",
"74 686 OFFCURVE",
"74 684 OFFCURVE",
"74 683 CURVE SMOOTH",
"74 662 OFFCURVE",
"71 581 OFFCURVE",
"68 546 CURVE SMOOTH",
"65 511 OFFCURVE",
"62 379 OFFCURVE",
"62 327 CURVE SMOOTH",
"62 274 OFFCURVE",
"67 43 OFFCURVE",
"67 22 CURVE SMOOTH",
"67 14 OFFCURVE",
"66 8 OFFCURVE",
"66 4 CURVE SMOOTH",
"66 -1 OFFCURVE",
"67 -3 OFFCURVE",
"71 -3 CURVE SMOOTH",
"78 -4 OFFCURVE",
"95 -2 OFFCURVE",
"103 -5 CURVE",
"112 -6 OFFCURVE",
"117 -1 OFFCURVE",
"117 11 CURVE SMOOTH",
"117 12 OFFCURVE",
"117 13 OFFCURVE",
"117 14 CURVE SMOOTH",
"117 23 OFFCURVE",
"116 72 OFFCURVE",
"116 115 CURVE SMOOTH",
"116 137 OFFCURVE",
"116 158 OFFCURVE",
"117 172 CURVE SMOOTH",
"120 214 OFFCURVE",
"121 336 OFFCURVE",
"121 370 CURVE SMOOTH",
"121 387 OFFCURVE",
"121 413 OFFCURVE",
"122 434 CURVE",
"124 471 LINE",
"131 448 OFFCURVE",
"139 425 OFFCURVE",
"146 404 CURVE SMOOTH",
"158 368 OFFCURVE",
"170 328 OFFCURVE",
"177 309 CURVE",
"187 272 OFFCURVE",
"229 171 OFFCURVE",
"242 141 CURVE SMOOTH",
"255 111 OFFCURVE",
"290 9 OFFCURVE",
"295 -5 CURVE SMOOTH",
"300 -20 OFFCURVE",
"300 -27 OFFCURVE",
"311 -27 CURVE SMOOTH"
);
}
);
width = 690;
}
);
},
{
glyphname = N.alt;
layers = (
{
anchors = (
{
name = bottom;
position = "{299, 0}";
},
{
name = top;
position = "{306, 710}";
}
);
color = -1;
layerId = "FC508690-ADF2-4DBF-B34D-60B2640A846D";
paths = (
{
closed = 1;
nodes = (
"435 -3 OFFCURVE",
"468 1 OFFCURVE",
"490 1 CURVE SMOOTH",
"496 1 OFFCURVE",
"502 1 OFFCURVE",
"506 0 CURVE SMOOTH",
"511 -1 OFFCURVE",
"515 -1 OFFCURVE",
"518 -1 CURVE SMOOTH",
"528 -1 OFFCURVE",
"534 3 OFFCURVE",
"534 15 CURVE SMOOTH",
"534 -30 OFFCURVE",
"527 180 OFFCURVE",
"527 265 CURVE SMOOTH",
"527 299 OFFCURVE",
"527 398 OFFCURVE",
"527 491 CURVE SMOOTH",
"527 585 OFFCURVE",
"527 675 OFFCURVE",
"529 690 CURVE SMOOTH",
"533 721 OFFCURVE",
"533 738 OFFCURVE",
"505 735 CURVE",
"477 730 OFFCURVE",
"416 727 OFFCURVE",
"395 727 CURVE SMOOTH",
"374 727 OFFCURVE",
"344 729 OFFCURVE",
"344 700 CURVE",
"343 685 OFFCURVE",
"343 652 OFFCURVE",
"343 623 CURVE",
"343 568 LINE",
"328 591 LINE SMOOTH",
"319 604 OFFCURVE",
"308 621 OFFCURVE",
"299 638 CURVE SMOOTH",
"280 670 OFFCURVE",
"259 725 OFFCURVE",
"217 725 CURVE SMOOTH",
"188 725 OFFCURVE",
"182 727 OFFCURVE",
"171 727 CURVE SMOOTH",
"166 727 OFFCURVE",
"160 727 OFFCURVE",
"149 725 CURVE SMOOTH",
"117 718 OFFCURVE",
"106 718 OFFCURVE",
"90 719 CURVE SMOOTH",
"76 720 OFFCURVE",
"64 716 OFFCURVE",
"64 688 CURVE SMOOTH",
"64 681 OFFCURVE",
"65 674 OFFCURVE",
"66 665 CURVE SMOOTH",
"68 651 OFFCURVE",
"69 627 OFFCURVE",
"69 598 CURVE SMOOTH",
"69 524 OFFCURVE",
"64 413 OFFCURVE",
"64 328 CURVE",
"67 207 OFFCURVE",
"72 67 OFFCURVE",
"72 36 CURVE SMOOTH",
"71 4 OFFCURVE",
"74 -3 OFFCURVE",
"95 0 CURVE SMOOTH",
"117 3 OFFCURVE",
"157 6 OFFCURVE",
"173 6 CURVE",
"185 5 OFFCURVE",
"192 5 OFFCURVE",
"192 20 CURVE SMOOTH",
"192 23 OFFCURVE",
"192 27 OFFCURVE",
"191 32 CURVE SMOOTH",
"186 59 OFFCURVE",
"185 224 OFFCURVE",
"185 269 CURVE",
"184 292 OFFCURVE",
"185 316 OFFCURVE",
"185 339 CURVE SMOOTH",
"185 377 LINE",
"229 294 LINE SMOOTH",
"253 249 OFFCURVE",
"280 198 OFFCURVE",
"295 173 CURVE SMOOTH",
"325 122 OFFCURVE",
"351 61 OFFCURVE",
"365 34 CURVE",
"377 8 OFFCURVE",
"386 -3 OFFCURVE",
"413 -3 CURVE SMOOTH"
);
}
);
width = 597;
}
);
},
{
glyphname = NJ.alt;
layers = (
{
color = -1;
layerId = "FC508690-ADF2-4DBF-B34D-60B2640A846D";
paths = (
{
closed = 1;
nodes = (
"435 -3 OFFCURVE",
"468 1 OFFCURVE",
"490 1 CURVE SMOOTH",
"496 1 OFFCURVE",
"502 1 OFFCURVE",
"506 0 CURVE SMOOTH",
"511 -1 OFFCURVE",
"515 -1 OFFCURVE",
"518 -1 CURVE SMOOTH",
"528 -1 OFFCURVE",
"534 3 OFFCURVE",
"534 15 CURVE SMOOTH",
"534 -30 OFFCURVE",
"527 180 OFFCURVE",
"527 265 CURVE SMOOTH",
"527 299 OFFCURVE",
"527 398 OFFCURVE",
"527 491 CURVE SMOOTH",
"527 585 OFFCURVE",
"527 675 OFFCURVE",
"529 690 CURVE SMOOTH",
"533 721 OFFCURVE",
"533 738 OFFCURVE",
"505 735 CURVE",
"477 730 OFFCURVE",
"416 727 OFFCURVE",
"395 727 CURVE SMOOTH",
"374 727 OFFCURVE",
"344 729 OFFCURVE",
"344 700 CURVE",
"343 685 OFFCURVE",
"343 652 OFFCURVE",
"343 623 CURVE",
"343 568 LINE",
"328 591 LINE SMOOTH",
"319 604 OFFCURVE",
"308 621 OFFCURVE",
"299 638 CURVE SMOOTH",
"280 670 OFFCURVE",
"259 725 OFFCURVE",
"217 725 CURVE SMOOTH",
"188 725 OFFCURVE",
"182 727 OFFCURVE",
"171 727 CURVE SMOOTH",
"166 727 OFFCURVE",
"160 727 OFFCURVE",
"149 725 CURVE SMOOTH",
"117 718 OFFCURVE",
"106 718 OFFCURVE",
"90 719 CURVE SMOOTH",
"76 720 OFFCURVE",
"64 716 OFFCURVE",
"64 688 CURVE SMOOTH",
"64 681 OFFCURVE",
"65 674 OFFCURVE",
"66 665 CURVE SMOOTH",
"68 651 OFFCURVE",
"69 627 OFFCURVE",
"69 598 CURVE SMOOTH",
"69 524 OFFCURVE",
"64 413 OFFCURVE",
"64 328 CURVE",
"67 207 OFFCURVE",
"72 67 OFFCURVE",
"72 36 CURVE SMOOTH",
"71 4 OFFCURVE",
"74 -3 OFFCURVE",
"95 0 CURVE SMOOTH",
"117 3 OFFCURVE",
"157 6 OFFCURVE",
"173 6 CURVE",
"185 5 OFFCURVE",
"192 5 OFFCURVE",
"192 20 CURVE SMOOTH",
"192 23 OFFCURVE",
"192 27 OFFCURVE",
"191 32 CURVE SMOOTH",
"186 59 OFFCURVE",
"185 224 OFFCURVE",
"185 269 CURVE",
"184 292 OFFCURVE",
"185 316 OFFCURVE",
"185 339 CURVE SMOOTH",
"185 377 LINE",
"229 294 LINE SMOOTH",
"253 249 OFFCURVE",
"280 198 OFFCURVE",
"295 173 CURVE SMOOTH",
"325 122 OFFCURVE",
"351 61 OFFCURVE",
"365 34 CURVE",
"377 8 OFFCURVE",
"386 -3 OFFCURVE",
"413 -3 CURVE SMOOTH"
);
},
{
closed = 1;
nodes = (
"964 -15 OFFCURVE",
"923 238 OFFCURVE",
"927 316 CURVE SMOOTH",
"932 394 OFFCURVE",
"933 511 OFFCURVE",
"933 553 CURVE SMOOTH",
"933 596 OFFCURVE",
"938 649 OFFCURVE",
"938 671 CURVE SMOOTH",
"938 694 OFFCURVE",
"930 699 OFFCURVE",
"907 699 CURVE",
"848 699 LINE SMOOTH",
"841 699 OFFCURVE",
"833 700 OFFCURVE",
"826 700 CURVE SMOOTH",
"812 700 OFFCURVE",
"800 696 OFFCURVE",
"800 672 CURVE SMOOTH",
"801 445 LINE SMOOTH",
"801 407 OFFCURVE",
"805 336 OFFCURVE",
"805 272 CURVE SMOOTH",
"805 200 OFFCURVE",
"800 137 OFFCURVE",
"780 137 CURVE SMOOTH",
"749 137 OFFCURVE",
"742 177 OFFCURVE",
"742 212 CURVE SMOOTH",
"742 221 OFFCURVE",
"742 230 OFFCURVE",
"743 238 CURVE SMOOTH",
"744 248 OFFCURVE",
"744 258 OFFCURVE",
"744 267 CURVE SMOOTH",
"744 293 OFFCURVE",
"742 317 OFFCURVE",
"742 331 CURVE SMOOTH",
"742 351 OFFCURVE",
"748 368 OFFCURVE",
"717 368 CURVE SMOOTH",
"686 368 OFFCURVE",
"673 365 OFFCURVE",
"653 366 CURVE SMOOTH",
"633 366 OFFCURVE",
"605 381 OFFCURVE",
"608 330 CURVE SMOOTH",
"611 278 OFFCURVE",
"612 221 OFFCURVE",
"612 193 CURVE SMOOTH",
"612 165 OFFCURVE",
"620 -15 OFFCURVE",
"780 -15 CURVE SMOOTH"
);
}
);
width = 990;
}
);
},
{
glyphname = Eng.alt;
layers = (
{
color = -1;
layerId = "FC508690-ADF2-4DBF-B34D-60B2640A846D";
paths = (
{
closed = 1;
nodes = (
"438 -185 OFFCURVE",
"491 -168 OFFCURVE",
"507 -147 CURVE SMOOTH",
"520 -128 OFFCURVE",
"527 -102 OFFCURVE",
"527 -75 CURVE SMOOTH",
"527 -70 OFFCURVE",
"526 -66 OFFCURVE",
"526 -61 CURVE SMOOTH",
"526 -57 OFFCURVE",
"525 -52 OFFCURVE",
"525 -46 CURVE SMOOTH",
"525 -13 OFFCURVE",
"532 43 OFFCURVE",
"532 59 CURVE SMOOTH",
"530 116 OFFCURVE",
"527 213 OFFCURVE",
"527 265 CURVE SMOOTH",
"527 299 OFFCURVE",
"527 398 OFFCURVE",
"527 491 CURVE SMOOTH",
"527 585 OFFCURVE",
"527 675 OFFCURVE",
"529 690 CURVE SMOOTH",
"533 721 OFFCURVE",
"533 738 OFFCURVE",
"505 735 CURVE",
"477 730 OFFCURVE",
"416 727 OFFCURVE",
"395 727 CURVE SMOOTH",
"374 727 OFFCURVE",
"344 729 OFFCURVE",
"344 700 CURVE",
"343 685 OFFCURVE",
"343 652 OFFCURVE",
"343 623 CURVE",
"343 568 LINE",
"328 591 LINE SMOOTH",
"319 604 OFFCURVE",
"308 621 OFFCURVE",
"299 638 CURVE SMOOTH",
"280 670 OFFCURVE",
"259 725 OFFCURVE",
"217 725 CURVE SMOOTH",
"188 725 OFFCURVE",
"182 727 OFFCURVE",
"171 727 CURVE SMOOTH",
"166 727 OFFCURVE",
"160 727 OFFCURVE",
"149 725 CURVE SMOOTH",
"117 718 OFFCURVE",
"106 718 OFFCURVE",
"90 719 CURVE SMOOTH",
"76 720 OFFCURVE",
"64 716 OFFCURVE",
"64 688 CURVE SMOOTH",
"64 681 OFFCURVE",
"65 674 OFFCURVE",
"66 665 CURVE SMOOTH",
"68 651 OFFCURVE",
"69 627 OFFCURVE",
"69 598 CURVE SMOOTH",
"69 524 OFFCURVE",
"64 413 OFFCURVE",
"64 328 CURVE",
"67 207 OFFCURVE",
"72 67 OFFCURVE",
"72 36 CURVE SMOOTH",
"71 4 OFFCURVE",
"74 -3 OFFCURVE",
"95 0 CURVE SMOOTH",
"117 3 OFFCURVE",
"157 6 OFFCURVE",
"173 6 CURVE",
"185 5 OFFCURVE",
"192 5 OFFCURVE",
"192 20 CURVE SMOOTH",
"192 23 OFFCURVE",
"192 27 OFFCURVE",
"191 32 CURVE SMOOTH",
"186 59 OFFCURVE",
"185 224 OFFCURVE",
"185 269 CURVE",
"184 292 OFFCURVE",
"185 316 OFFCURVE",
"185 339 CURVE SMOOTH",
"185 377 LINE",
"229 294 LINE SMOOTH",
"253 249 OFFCURVE",
"275 217 OFFCURVE",
"302 176 CURVE SMOOTH",
"319 151 OFFCURVE",
"336 131 OFFCURVE",
"349 106 CURVE",
"368 73 LINE SMOOTH",
"374 63 OFFCURVE",
"384 44 OFFCURVE",
"397 17 CURVE",
"397 -10 OFFCURVE",
"402 -56 OFFCURVE",
"402 -66 CURVE SMOOTH",
"402 -77 OFFCURVE",
"391 -118 OFFCURVE",
"378 -118 CURVE SMOOTH",
"365 -118 OFFCURVE",
"338 -110 OFFCURVE",
"338 -89 CURVE SMOOTH",
"338 -66 OFFCURVE",
"340 -51 OFFCURVE",
"340 -44 CURVE SMOOTH",
"340 -37 OFFCURVE",
"326 -36 OFFCURVE",
"321 -36 CURVE SMOOTH",
"317 -36 OFFCURVE",
"278 -38 OFFCURVE",
"253 -38 CURVE SMOOTH",
"244 -38 OFFCURVE",
"236 -38 OFFCURVE",
"234 -37 CURVE SMOOTH",
"226 -34 OFFCURVE",
"204 -39 OFFCURVE",
"204 -48 CURVE SMOOTH",
"204 -57 OFFCURVE",
"207 -88 OFFCURVE",
"207 -94 CURVE SMOOTH",
"207 -101 OFFCURVE",
"217 -142 OFFCURVE",
"249 -158 CURVE SMOOTH",
"281 -173 OFFCURVE",
"337 -185 OFFCURVE",
"388 -185 CURVE SMOOTH"
);
}
);
width = 597;
}
);
},
{
glyphname = Nhookleft.alt;
layers = (
{
color = -1;
layerId = "FC508690-ADF2-4DBF-B34D-60B2640A846D";
paths = (
{
closed = 1;
nodes = (
"118 -165 OFFCURVE",
"148 -148 OFFCURVE",
"164 -127 CURVE SMOOTH",
"178 -109 OFFCURVE",
"189 -82 OFFCURVE",
"189 -55 CURVE SMOOTH",
"189 -50 OFFCURVE",
"188 -11 OFFCURVE",
"188 -6 CURVE SMOOTH",
"188 20 OFFCURVE",
"188 58 OFFCURVE",
"189 92 CURVE",
"188 125 OFFCURVE",
"185 207 OFFCURVE",
"185 269 CURVE",
"184 292 OFFCURVE",
"185 316 OFFCURVE",
"185 339 CURVE SMOOTH",
"185 377 LINE",
"229 294 LINE SMOOTH",
"253 249 OFFCURVE",
"280 198 OFFCURVE",
"295 173 CURVE SMOOTH",
"325 122 OFFCURVE",
"351 61 OFFCURVE",
"365 34 CURVE",
"377 8 OFFCURVE",
"386 -3 OFFCURVE",
"413 -3 CURVE SMOOTH",
"435 -3 OFFCURVE",
"468 1 OFFCURVE",
"490 1 CURVE SMOOTH",
"496 1 OFFCURVE",
"502 1 OFFCURVE",
"506 0 CURVE",
"511 -1 OFFCURVE",
"515 -1 OFFCURVE",
"518 -1 CURVE SMOOTH",
"526.524 -1 OFFCURVE",
"532.142 1.907 OFFCURVE",
"533.614 10.198 CURVE",
"534 15 LINE",
"531.535 47.194 OFFCURVE",
"527 196.586 OFFCURVE",
"527 265 CURVE SMOOTH",
"527 491 LINE SMOOTH",
"527 585 OFFCURVE",
"527 675 OFFCURVE",
"529 690 CURVE SMOOTH",
"533 721 OFFCURVE",
"533 738 OFFCURVE",
"505 735 CURVE",
"477 730 OFFCURVE",
"416 727 OFFCURVE",
"395 727 CURVE SMOOTH",
"374 727 OFFCURVE",
"344 729 OFFCURVE",
"344 700 CURVE",
"343 685 OFFCURVE",
"343 652 OFFCURVE",
"343 623 CURVE SMOOTH",
"343 568 LINE",
"328 591 LINE SMOOTH",
"319 604 OFFCURVE",
"308 621 OFFCURVE",
"299 638 CURVE",
"280 670 OFFCURVE",
"259 725 OFFCURVE",
"217 725 CURVE SMOOTH",
"188 725 OFFCURVE",
"182 727 OFFCURVE",
"171 727 CURVE SMOOTH",
"166 727 OFFCURVE",
"160 727 OFFCURVE",
"149 725 CURVE",
"117 718 OFFCURVE",
"106 718 OFFCURVE",
"90 719 CURVE SMOOTH",
"76 720 OFFCURVE",
"64 716 OFFCURVE",
"64 688 CURVE SMOOTH",
"64 681 OFFCURVE",
"65 674 OFFCURVE",
"66 665 CURVE SMOOTH",
"68 651 OFFCURVE",
"69 627 OFFCURVE",
"69 598 CURVE SMOOTH",
"69 524 OFFCURVE",
"64 413 OFFCURVE",
"64 328 CURVE SMOOTH",
"67 207 OFFCURVE",
"72 87 OFFCURVE",
"72 56 CURVE SMOOTH",
"72 34 OFFCURVE",
"75 -29 OFFCURVE",
"75 -41 CURVE SMOOTH",
"75 -52 OFFCURVE",
"75 -77 OFFCURVE",
"62 -77 CURVE SMOOTH",
"43 -77 OFFCURVE",
"36 -65 OFFCURVE",
"19 -45 CURVE SMOOTH",
"13 -38 OFFCURVE",
"7 -33 OFFCURVE",
"0 -37 CURVE SMOOTH",
"-9 -42 OFFCURVE",
"-29 -60 OFFCURVE",
"-47 -99 CURVE SMOOTH",
"-61 -129 OFFCURVE",
"-41 -141 OFFCURVE",
"-25 -147 CURVE SMOOTH",
"8 -159 OFFCURVE",
"50 -165 OFFCURVE",
"68 -165 CURVE SMOOTH"
);
}
);
width = 597;
}
);
},
{
glyphname = O.alt;
layers = (
{
anchors = (
{
name = bottom;
position = "{319, 0}";
},
{
name = center;
position = "{320, 355}";
},
{
name = ogonek;
position = "{384, 0}";
},
{
name = top;
position = "{337, 710}";
},
{
name = topleft;
position = "{20, 710}";
},
{
name = topright;
position = "{409, 710}";
}
);
color = -1;
layerId = "FC508690-ADF2-4DBF-B34D-60B2640A846D";
paths = (
{
closed = 1;
nodes = (
"580 -11 OFFCURVE",
"599 288 OFFCURVE",
"599 356 CURVE SMOOTH",
"599 409 OFFCURVE",
"570 609 OFFCURVE",
"437 698 CURVE SMOOTH",
"402 721 OFFCURVE",
"354 719 OFFCURVE",
"299 719 CURVE SMOOTH",
"168 719 OFFCURVE",
"40 556 OFFCURVE",
"40 376 CURVE",
"43 303 OFFCURVE",
"55 239 OFFCURVE",
"75 182 CURVE SMOOTH",
"110 85 OFFCURVE",
"176 -11 OFFCURVE",
"311 -11 CURVE SMOOTH"
);
},
{
closed = 1;
nodes = (
"157 45 OFFCURVE",
"104 208 OFFCURVE",
"104 365 CURVE SMOOTH",
"104 522 OFFCURVE",
"198 603 OFFCURVE",
"227 632 CURVE",
"255 663 OFFCURVE",
"283 660 OFFCURVE",
"320 660 CURVE SMOOTH",
"439 660 OFFCURVE",
"516 519 OFFCURVE",
"516 356 CURVE SMOOTH",
"516 192 OFFCURVE",
"456 45 OFFCURVE",
"306 45 CURVE SMOOTH"
);
}
);
width = 639;
}
);
leftKerningGroup = O.alt;
},
{
glyphname = Oslash.alt;
layers = (
{
anchors = (
{
name = bottom;
position = "{328, 0}";
},
{
name = top;
position = "{328, 710}";
}
);
color = -1;
layerId = "FC508690-ADF2-4DBF-B34D-60B2640A846D";
paths = (
{
closed = 1;
nodes = (
"91 -39 OFFCURVE",
"101 -37 OFFCURVE",
"108 -31 CURVE",
"121 -24 OFFCURVE",
"129 -22 OFFCURVE",
"140 1 CURVE SMOOTH",
"143 7 OFFCURVE",
"154 25 OFFCURVE",
"170 49 CURVE",
"207 13 OFFCURVE",
"258 -11 OFFCURVE",
"325 -11 CURVE SMOOTH",
"594 -11 OFFCURVE",
"613 288 OFFCURVE",
"613 356 CURVE SMOOTH",
"613 395 OFFCURVE",
"598 512 OFFCURVE",
"538 607 CURVE",
"564 645 LINE",
"583 670 OFFCURVE",
"599 706 OFFCURVE",
"591 709 CURVE SMOOTH",
"583 712 OFFCURVE",
"555 713 OFFCURVE",
"546 713 CURVE",
"534 709 OFFCURVE",
"512 685 OFFCURVE",
"497 660 CURVE",
"483 674 OFFCURVE",
"468 687 OFFCURVE",
"451 698 CURVE SMOOTH",
"416 721 OFFCURVE",
"368 719 OFFCURVE",
"313 719 CURVE SMOOTH",
"182 719 OFFCURVE",
"54 556 OFFCURVE",
"54 376 CURVE",
"57 303 OFFCURVE",
"69 239 OFFCURVE",
"89 182 CURVE SMOOTH",
"99 153 OFFCURVE",
"112 125 OFFCURVE",
"129 99 CURVE",
"72 15 LINE",
"50 -15 OFFCURVE",
"61 -5 OFFCURVE",
"49 -14 CURVE",
"46 -19 OFFCURVE",
"44 -23 OFFCURVE",
"44 -26 CURVE SMOOTH",
"44 -30 OFFCURVE",
"47 -33 OFFCURVE",
"57 -35 CURVE SMOOTH",
"64 -37 OFFCURVE",
"73 -39 OFFCURVE",
"82 -39 CURVE SMOOTH"
);
},
{
closed = 1;
nodes = (
"269 45 OFFCURVE",
"230 64 OFFCURVE",
"200 95 CURVE",
"234 148 OFFCURVE",
"274 206 OFFCURVE",
"288 226 CURVE",
"315 261 OFFCURVE",
"411 419 OFFCURVE",
"446 470 CURVE",
"457 489 OFFCURVE",
"474 514 OFFCURVE",
"492 541 CURVE",
"516 489 OFFCURVE",
"530 424 OFFCURVE",
"530 356 CURVE SMOOTH",
"530 192 OFFCURVE",
"470 45 OFFCURVE",
"320 45 CURVE SMOOTH"
);
},
{
closed = 1;
nodes = (
"131 208 OFFCURVE",
"118 287 OFFCURVE",
"118 365 CURVE SMOOTH",
"118 522 OFFCURVE",
"212 603 OFFCURVE",
"241 632 CURVE",
"269 663 OFFCURVE",
"297 660 OFFCURVE",
"334 660 CURVE SMOOTH",
"384 660 OFFCURVE",
"426 635 OFFCURVE",
"458 595 CURVE",
"442 568 OFFCURVE",
"423 540 OFFCURVE",
"407 520 CURVE",
"383 483 OFFCURVE",
"263 309 OFFCURVE",
"222 244 CURVE",
"207 218 OFFCURVE",
"185 183 OFFCURVE",
"162 148 CURVE"
);
}
);
width = 655;
}
);
leftKerningGroup = O.alt;
rightKerningGroup = O.alt;
},
{
glyphname = OE.alt;
layers = (
{
color = -1;
layerId = "FC508690-ADF2-4DBF-B34D-60B2640A846D";
paths = (
{
closed = 1;
nodes = (
"412 -11 OFFCURVE",
"474 22 OFFCURVE",
"517 69 CURVE SMOOTH",
"535 88 OFFCURVE",
"550 110 OFFCURVE",
"562 134 CURVE",
"562 103 LINE SMOOTH",
"562 59 OFFCURVE",
"564 53 OFFCURVE",
"564 46 CURVE SMOOTH",
"564 44 OFFCURVE",
"564 41 OFFCURVE",
"563 37 CURVE",
"563 31 OFFCURVE",
"562 26 OFFCURVE",
"562 21 CURVE SMOOTH",
"562 12 OFFCURVE",
"565 6 OFFCURVE",
"585 6 CURVE SMOOTH",
"618 6 LINE SMOOTH",
"650 6 OFFCURVE",
"695 4 OFFCURVE",
"734 4 CURVE SMOOTH",
"748 4 OFFCURVE",
"761 5 OFFCURVE",
"772 5 CURVE SMOOTH",
"794 6 OFFCURVE",
"819 6 OFFCURVE",
"844 6 CURVE SMOOTH",
"890 6 OFFCURVE",
"935 5 OFFCURVE",
"953 3 CURVE SMOOTH",
"960 2 OFFCURVE",
"966 2 OFFCURVE",
"971 2 CURVE SMOOTH",
"986 2 OFFCURVE",
"992 5 OFFCURVE",
"992 14 CURVE SMOOTH",
"992 25 OFFCURVE",
"994 36 OFFCURVE",
"994 45 CURVE SMOOTH",
"994 56 OFFCURVE",
"994 61 OFFCURVE",
"983 61 CURVE SMOOTH",
"972 61 OFFCURVE",
"946 63 OFFCURVE",
"919 63 CURVE SMOOTH",
"892 63 OFFCURVE",
"858 60 OFFCURVE",
"822 60 CURVE SMOOTH",
"786 60 OFFCURVE",
"753 62 OFFCURVE",
"716 62 CURVE SMOOTH",
"684 62 LINE SMOOTH",
"673 62 OFFCURVE",
"662 62 OFFCURVE",
"651 63 CURVE",
"639 63 OFFCURVE",
"626 63 OFFCURVE",
"613 64 CURVE",
"613 72 OFFCURVE",
"613 80 OFFCURVE",
"614 89 CURVE",
"614 104 OFFCURVE",
"615 122 OFFCURVE",
"615 139 CURVE SMOOTH",
"615 168 LINE SMOOTH",
"615 191 OFFCURVE",
"614 215 OFFCURVE",
"614 235 CURVE SMOOTH",
"614 258 LINE SMOOTH",
"614 281 OFFCURVE",
"610 290 OFFCURVE",
"610 318 CURVE",
"611 332 OFFCURVE",
"611 341 OFFCURVE",
"612 346 CURVE SMOOTH",
"615 362 LINE",
"624 361 OFFCURVE",
"633 361 OFFCURVE",
"643 361 CURVE SMOOTH",
"671 361 LINE SMOOTH",
"682 361 OFFCURVE",
"692 362 OFFCURVE",
"702 363 CURVE SMOOTH",
"742 366 OFFCURVE",
"790 366 OFFCURVE",
"827 366 CURVE SMOOTH",
"865 366 OFFCURVE",
"951 355 OFFCURVE",
"965 355 CURVE SMOOTH",
"980 355 OFFCURVE",
"979 357 OFFCURVE",
"980 366 CURVE SMOOTH",
"981 374 OFFCURVE",
"981 397 OFFCURVE",
"982 402 CURVE SMOOTH",
"983 406 OFFCURVE",
"981 415 OFFCURVE",
"970 415 CURVE SMOOTH",
"968 415 OFFCURVE",
"966 414 OFFCURVE",
"964 414 CURVE SMOOTH",
"960 413 OFFCURVE",
"955 413 OFFCURVE",
"949 413 CURVE SMOOTH",
"929 413 OFFCURVE",
"898 416 OFFCURVE",
"880 416 CURVE SMOOTH",
"856 416 OFFCURVE",
"840 413 OFFCURVE",
"828 413 CURVE SMOOTH",
"816 413 OFFCURVE",
"782 417 OFFCURVE",
"750 417 CURVE SMOOTH",
"719 417 OFFCURVE",
"698 413 OFFCURVE",
"681 413 CURVE SMOOTH",
"641 413 LINE SMOOTH",
"632 413 OFFCURVE",
"623 413 OFFCURVE",
"614 414 CURVE",
"613 423 OFFCURVE",
"613 431 OFFCURVE",
"613 439 CURVE SMOOTH",
"613 479 LINE SMOOTH",
"613 502 OFFCURVE",
"609 528 OFFCURVE",
"609 556 CURVE SMOOTH",
"610 596 OFFCURVE",
"611 621 OFFCURVE",
"612 630 CURVE",
"635 632 LINE SMOOTH",
"648 633 OFFCURVE",
"665 635 OFFCURVE",
"680 635 CURVE SMOOTH",
"706 635 LINE SMOOTH",
"727 635 OFFCURVE",
"751 634 OFFCURVE",
"774 634 CURVE SMOOTH",
"964 634 LINE SMOOTH",
"983 634 OFFCURVE",
"985 631 OFFCURVE",
"996 631 CURVE SMOOTH",
"999 631 OFFCURVE",
"1000 635 OFFCURVE",
"1000 644 CURVE",
"1000 665 LINE SMOOTH",
"1000 676 OFFCURVE",
"1004 692 OFFCURVE",
"983 692 CURVE SMOOTH",
"962 692 OFFCURVE",
"861 695 OFFCURVE",
"809 695 CURVE SMOOTH",
"755 695 OFFCURVE",
"672 689 OFFCURVE",
"641 689 CURVE SMOOTH",
"626 689 OFFCURVE",
"607 693 OFFCURVE",
"591 693 CURVE SMOOTH",
"575 693 OFFCURVE",
"562 689 OFFCURVE",
"562 672 CURVE SMOOTH",
"562 653 OFFCURVE",
"565 624 OFFCURVE",
"565 593 CURVE SMOOTH",
"565 551 LINE",
"550 581 LINE SMOOTH",
"526 626 OFFCURVE",
"493 669 OFFCURVE",
"449 698 CURVE SMOOTH",
"414 721 OFFCURVE",
"366 719 OFFCURVE",
"311 719 CURVE SMOOTH",
"180 719 OFFCURVE",
"52 556 OFFCURVE",
"52 376 CURVE",
"55 303 OFFCURVE",
"67 239 OFFCURVE",
"87 182 CURVE SMOOTH",
"122 85 OFFCURVE",
"188 -11 OFFCURVE",
"323 -11 CURVE SMOOTH"
);
},
{
closed = 1;
nodes = (
"169 45 OFFCURVE",
"116 208 OFFCURVE",
"116 365 CURVE SMOOTH",
"116 522 OFFCURVE",
"210 603 OFFCURVE",
"239 632 CURVE",
"267 663 OFFCURVE",
"295 660 OFFCURVE",
"332 660 CURVE SMOOTH",
"451 660 OFFCURVE",
"528 519 OFFCURVE",
"528 356 CURVE SMOOTH",
"528 192 OFFCURVE",
"468 45 OFFCURVE",
"318 45 CURVE SMOOTH"
);
}
);
width = 1025;
}
);
leftKerningGroup = O.alt;
rightKerningGroup = E.alt;
},
{
glyphname = P.alt;
layers = (
{
color = -1;
layerId = "FC508690-ADF2-4DBF-B34D-60B2640A846D";
paths = (
{
closed = 1;
nodes = (
"97 -2 OFFCURVE",
"142 2 OFFCURVE",
"158 2 CURVE SMOOTH",
"164 2 OFFCURVE",
"172 0 OFFCURVE",
"180 0 CURVE SMOOTH",
"192 0 OFFCURVE",
"204 5 OFFCURVE",
"204 30 CURVE SMOOTH",
"206 171 LINE",
"208 280 LINE",
"271 281 OFFCURVE",
"328 291 OFFCURVE",
"379 308 CURVE SMOOTH",
"463 337 OFFCURVE",
"550 396 OFFCURVE",
"550 517 CURVE SMOOTH",
"550 584 OFFCURVE",
"516 618 OFFCURVE",
"489 651 CURVE SMOOTH",
"444 704 OFFCURVE",
"358 704 OFFCURVE",
"224 704 CURVE SMOOTH",
"179 704 OFFCURVE",
"118 694 OFFCURVE",
"93 694 CURVE SMOOTH",
"80 694 OFFCURVE",
"74 696 OFFCURVE",
"74 673 CURVE",
"70 607 LINE",
"67 572 OFFCURVE",
"66 535 OFFCURVE",
"66 520 CURVE SMOOTH",
"66 246 LINE SMOOTH",
"66 193 OFFCURVE",
"62 48 OFFCURVE",
"62 30 CURVE SMOOTH",
"62 11 OFFCURVE",
"65 -2 OFFCURVE",
"81 -2 CURVE SMOOTH"
);
},
{
closed = 1;
nodes = (
"215 655 LINE",
"234 656 OFFCURVE",
"252 657 OFFCURVE",
"269 657 CURVE SMOOTH",
"292 657 OFFCURVE",
"313 656 OFFCURVE",
"333 653 CURVE SMOOTH",
"393 645 OFFCURVE",
"456 621 OFFCURVE",
"467 561 CURVE SMOOTH",
"473 530 OFFCURVE",
"475 504 OFFCURVE",
"475 482 CURVE SMOOTH",
"475 416 OFFCURVE",
"451 382 OFFCURVE",
"405 360 CURVE SMOOTH",
"374 345 OFFCURVE",
"325 338 OFFCURVE",
"284 335 CURVE",
"260 332 OFFCURVE",
"235 331 OFFCURVE",
"209 332 CURVE"
);
}
);
width = 555;
}
);
},
{
glyphname = Thorn.alt;
layers = (
{
color = -1;
layerId = "FC508690-ADF2-4DBF-B34D-60B2640A846D";
paths = (
{
closed = 1;
nodes = (
"97 0 OFFCURVE",
"142 4 OFFCURVE",
"158 4 CURVE SMOOTH",
"164 4 OFFCURVE",
"172 2 OFFCURVE",
"180 2 CURVE SMOOTH",
"192 2 OFFCURVE",
"204 7 OFFCURVE",
"204 32 CURVE SMOOTH",
"208 172 LINE",
"271 173 OFFCURVE",
"328 183 OFFCURVE",
"379 200 CURVE SMOOTH",
"463 228 OFFCURVE",
"550 278 OFFCURVE",
"550 399 CURVE SMOOTH",
"550 466 OFFCURVE",
"516 494 OFFCURVE",
"489 523 CURVE SMOOTH",
"442 574 OFFCURVE",
"358 576 OFFCURVE",
"224 576 CURVE SMOOTH",
"220.883 576 OFFCURVE",
"217.689 575.952 OFFCURVE",
"214.436 575.859 CURVE",
"214 601 LINE",
"214 620 OFFCURVE",
"215 638 OFFCURVE",
"215 656 CURVE",
"216 665 OFFCURVE",
"216 672 OFFCURVE",
"216 678 CURVE SMOOTH",
"216 693 OFFCURVE",
"214 700 OFFCURVE",
"209 701 CURVE",
"146 701 LINE SMOOTH",
"120 701 OFFCURVE",
"89 703 OFFCURVE",
"82 703 CURVE SMOOTH",
"75 703 OFFCURVE",
"71 697 OFFCURVE",
"71 678 CURVE SMOOTH",
"71 671 OFFCURVE",
"72 662 OFFCURVE",
"73 651 CURVE",
"74 644 OFFCURVE",
"74 566 OFFCURVE",
"74 545 CURVE",
"70 479 LINE SMOOTH",
"67 444 OFFCURVE",
"66 407 OFFCURVE",
"66 392 CURVE SMOOTH",
"66 65 OFFCURVE",
"62 50 OFFCURVE",
"62 32 CURVE SMOOTH",
"62 13 OFFCURVE",
"65 0 OFFCURVE",
"81 0 CURVE SMOOTH"
);
},
{
closed = 1;
nodes = (
"215 527 LINE",
"234 528 OFFCURVE",
"252 529 OFFCURVE",
"269 529 CURVE SMOOTH",
"292 529 OFFCURVE",
"313 528 OFFCURVE",
"333 525 CURVE SMOOTH",
"393 516 OFFCURVE",
"455 503 OFFCURVE",
"467 443 CURVE SMOOTH",
"473 412 OFFCURVE",
"475 386 OFFCURVE",
"475 364 CURVE SMOOTH",
"475 298 OFFCURVE",
"451 274 OFFCURVE",
"405 252 CURVE SMOOTH",
"374 237 OFFCURVE",
"325 230 OFFCURVE",
"284 227 CURVE",
"260 224 OFFCURVE",
"235 223 OFFCURVE",
"209 224 CURVE"
);
}
);
width = 552;
}
);
},
{
glyphname = Q.alt;
layers = (
{
color = -1;
layerId = "FC508690-ADF2-4DBF-B34D-60B2640A846D";
paths = (
{
closed = 1;
nodes = (
"333 -2 OFFCURVE",
"360 12 OFFCURVE",
"379 24 CURVE SMOOTH",
"390 31 OFFCURVE",
"398 40 OFFCURVE",
"404 49 CURVE",
"405 50 LINE",
"408 54 LINE",
"436 22 LINE",
"445 7 OFFCURVE",
"452 4 OFFCURVE",
"468 4 CURVE SMOOTH",
"542 3 LINE SMOOTH",
"549 3 OFFCURVE",
"555 4 OFFCURVE",
"555 9 CURVE SMOOTH",
"555 13 OFFCURVE",
"552 18 OFFCURVE",
"544 26 CURVE SMOOTH",
"536 34 OFFCURVE",
"496 81 OFFCURVE",
"458 127 CURVE",
"489 182 OFFCURVE",
"521 257 OFFCURVE",
"521 342 CURVE SMOOTH",
"521 505 OFFCURVE",
"461 712 OFFCURVE",
"289 712 CURVE SMOOTH",
"236 712 OFFCURVE",
"40 663 OFFCURVE",
"40 360 CURVE SMOOTH",
"40 55 OFFCURVE",
"236 5 OFFCURVE",
"292 1 CURVE SMOOTH"
);
},
{
closed = 1;
nodes = (
"226 153 OFFCURVE",
"157 223 OFFCURVE",
"157 364 CURVE SMOOTH",
"157 505 OFFCURVE",
"241 578 OFFCURVE",
"292 578 CURVE SMOOTH",
"394 578 OFFCURVE",
"405 472 OFFCURVE",
"405 371 CURVE SMOOTH",
"405 346 OFFCURVE",
"404 321 OFFCURVE",
"404 298 CURVE SMOOTH",
"404 263 OFFCURVE",
"396 236 OFFCURVE",
"384 216 CURVE",
"372 229 LINE SMOOTH",
"361 240 OFFCURVE",
"366 244 OFFCURVE",
"345 244 CURVE SMOOTH",
"329 244 OFFCURVE",
"296 240 OFFCURVE",
"280 240 CURVE SMOOTH",
"276 240 OFFCURVE",
"273 240 OFFCURVE",
"271 241 CURVE SMOOTH",
"266 242 OFFCURVE",
"259 241 OFFCURVE",
"259 234 CURVE SMOOTH",
"259 230 OFFCURVE",
"262 224 OFFCURVE",
"269 213 CURVE",
"276 205 OFFCURVE",
"292 184 OFFCURVE",
"315 160 CURVE",
"301 155 OFFCURVE",
"287 153 OFFCURVE",
"274 153 CURVE SMOOTH"
);
}
);
width = 590;
}
);
leftKerningGroup = O.alt;
},
{
glyphname = R.alt;
layers = (
{
anchors = (
{
name = bottom;
position = "{279, 0}";
},
{
name = top;
position = "{225, 710}";
}
);
color = -1;
layerId = "FC508690-ADF2-4DBF-B34D-60B2640A846D";
paths = (
{
closed = 1;
nodes = (
"92 -11 OFFCURVE",
"119 -11 OFFCURVE",
"119 14 CURVE SMOOTH",
"119 39 OFFCURVE",
"118 286 OFFCURVE",
"114 330 CURVE",
"113 351 OFFCURVE",
"113 379 OFFCURVE",
"116 402 CURVE",
"120 442 LINE",
"189 356 LINE SMOOTH",
"226 309 OFFCURVE",
"270 254 OFFCURVE",
"294 219 CURVE SMOOTH",
"342 150 OFFCURVE",
"435 34 OFFCURVE",
"443 18 CURVE SMOOTH",
"453 -3 OFFCURVE",
"450 -9 OFFCURVE",
"492 -9 CURVE SMOOTH",
"511 -9 OFFCURVE",
"531 -7 OFFCURVE",
"537 -3 CURVE SMOOTH",
"539 -1 OFFCURVE",
"542 1 OFFCURVE",
"542 4 CURVE SMOOTH",
"542 10 OFFCURVE",
"537 19 OFFCURVE",
"515 41 CURVE SMOOTH",
"479 77 OFFCURVE",
"202 456 OFFCURVE",
"193 465 CURVE SMOOTH",
"194 464 OFFCURVE",
"199 464 OFFCURVE",
"207 464 CURVE SMOOTH",
"257 464 OFFCURVE",
"423 482 OFFCURVE",
"423 600 CURVE SMOOTH",
"423 688 OFFCURVE",
"275 699 OFFCURVE",
"233 699 CURVE SMOOTH",
"192 699 OFFCURVE",
"98 702 OFFCURVE",
"85 702 CURVE SMOOTH",
"74 702 OFFCURVE",
"67 700 OFFCURVE",
"67 679 CURVE SMOOTH",
"67 673 OFFCURVE",
"67 666 OFFCURVE",
"68 658 CURVE SMOOTH",
"70 645 OFFCURVE",
"71 593 OFFCURVE",
"71 524 CURVE SMOOTH",
"71 364 OFFCURVE",
"67 116 OFFCURVE",
"66 94 CURVE SMOOTH",
"65 84 OFFCURVE",
"65 74 OFFCURVE",
"65 64 CURVE SMOOTH",
"65 43 OFFCURVE",
"66 25 OFFCURVE",
"67 17 CURVE SMOOTH",
"68 6 OFFCURVE",
"67 -11 OFFCURVE",
"79 -11 CURVE SMOOTH"
);
},
{
closed = 1;
nodes = (
"123 645 LINE",
"157 645 LINE SMOOTH",
"177 645 OFFCURVE",
"202 645 OFFCURVE",
"227 644 CURVE",
"267 644 OFFCURVE",
"350 623 OFFCURVE",
"350 580 CURVE SMOOTH",
"350 536 OFFCURVE",
"310 523 OFFCURVE",
"257 514 CURVE SMOOTH",
"230 509 OFFCURVE",
"195 507 OFFCURVE",
"167 506 CURVE SMOOTH",
"150 505 OFFCURVE",
"134 505 OFFCURVE",
"117 505 CURVE"
);
}
);
width = 561;
}
);
},
{
glyphname = S.alt;
layers = (
{
anchors = (
{
name = bottom;
position = "{254, 0}";
},
{
name = top;
position = "{275, 710}";
}
);
color = -1;
layerId = "FC508690-ADF2-4DBF-B34D-60B2640A846D";
paths = (
{
closed = 1;
nodes = (
"297 -9 OFFCURVE",
"459 15 OFFCURVE",
"459 187 CURVE SMOOTH",
"459 357 OFFCURVE",
"296 389 OFFCURVE",
"245 413 CURVE",
"195 440 OFFCURVE",
"138 477 OFFCURVE",
"138 538 CURVE SMOOTH",
"138 598 OFFCURVE",
"181 649 OFFCURVE",
"278 649 CURVE SMOOTH",
"334 649 OFFCURVE",
"397 602 OFFCURVE",
"408 594 CURVE",
"415 588 LINE SMOOTH",
"420 585 OFFCURVE",
"424 583 OFFCURVE",
"428 583 CURVE SMOOTH",
"436 583 OFFCURVE",
"449 608 OFFCURVE",
"454 613 CURVE SMOOTH",
"457 616 OFFCURVE",
"458 618 OFFCURVE",
"458 621 CURVE SMOOTH",
"458 626 OFFCURVE",
"455 630 OFFCURVE",
"448 635 CURVE SMOOTH",
"438 642 OFFCURVE",
"373 705 OFFCURVE",
"275 705 CURVE SMOOTH",
"175 705 OFFCURVE",
"44 635 OFFCURVE",
"44 503 CURVE SMOOTH",
"44 393 OFFCURVE",
"117 339 OFFCURVE",
"193 296 CURVE SMOOTH",
"270 251 OFFCURVE",
"349 221 OFFCURVE",
"349 164 CURVE SMOOTH",
"349 50 OFFCURVE",
"236 46 OFFCURVE",
"200 46 CURVE SMOOTH",
"164 46 OFFCURVE",
"102 76 OFFCURVE",
"86 92 CURVE SMOOTH",
"71 107 OFFCURVE",
"72 108 OFFCURVE",
"66 108 CURVE SMOOTH",
"66 108 OFFCURVE",
"65 108 OFFCURVE",
"64 108 CURVE SMOOTH",
"56 108 OFFCURVE",
"45 83 OFFCURVE",
"42 78 CURVE SMOOTH",
"39 73 OFFCURVE",
"39 67 OFFCURVE",
"47 60 CURVE SMOOTH",
"55 52 OFFCURVE",
"124 -9 OFFCURVE",
"210 -9 CURVE SMOOTH"
);
}
);
width = 503;
}
);
leftKerningGroup = S.alt;
rightKerningGroup = S.alt;
},
{
glyphname = Germandbls.alt;
layers = (
{
color = -1;
layerId = "FC508690-ADF2-4DBF-B34D-60B2640A846D";
paths = (
{
closed = 1;
nodes = (
"468 -5 LINE",
"519 21 LINE",
"567 78 LINE",
"605 147 OFFCURVE",
"601 186 OFFCURVE",
"599 237 CURVE",
"599 343 OFFCURVE",
"487 416 OFFCURVE",
"423 416 CURVE",
"438 433 LINE SMOOTH",
"448 445 OFFCURVE",
"464 451 OFFCURVE",
"487 489 CURVE SMOOTH",
"510 527 OFFCURVE",
"523 564 OFFCURVE",
"525 602 CURVE",
"525 684 OFFCURVE",
"474 697 OFFCURVE",
"444 697 CURVE SMOOTH",
"384 697 LINE SMOOTH",
"363.019 697 OFFCURVE",
"343.623 695.767 OFFCURVE",
"328.103 694.337 CURVE",
"292 695 LINE",
"223 696 LINE SMOOTH",
"196 696 OFFCURVE",
"155 692 OFFCURVE",
"119 692 CURVE SMOOTH",
"108 692 OFFCURVE",
"93 694 OFFCURVE",
"85 694 CURVE SMOOTH",
"77 694 OFFCURVE",
"71 693 OFFCURVE",
"71 678 CURVE SMOOTH",
"71 674 LINE SMOOTH",
"71 655 OFFCURVE",
"67 621 OFFCURVE",
"67 602 CURVE SMOOTH",
"67 512 LINE SMOOTH",
"67 484 OFFCURVE",
"64 465 OFFCURVE",
"64 424 CURVE SMOOTH",
"64 381 OFFCURVE",
"68 357 OFFCURVE",
"68 336 CURVE SMOOTH",
"68 314 OFFCURVE",
"64 206 OFFCURVE",
"64 167 CURVE SMOOTH",
"64 145 OFFCURVE",
"63 111 OFFCURVE",
"63 83 CURVE SMOOTH",
"63 62 OFFCURVE",
"64 44 OFFCURVE",
"65 36 CURVE",
"66 15 OFFCURVE",
"62 2 OFFCURVE",
"78 1 CURVE",
"147 1 LINE SMOOTH",
"160 1 OFFCURVE",
"170 0 OFFCURVE",
"170 16 CURVE SMOOTH",
"170 25 OFFCURVE",
"169 49 OFFCURVE",
"169 75 CURVE SMOOTH",
"169 94 OFFCURVE",
"170 113 OFFCURVE",
"171 126 CURVE",
"173 398 LINE",
"174 406 OFFCURVE",
"175 415 OFFCURVE",
"175 426 CURVE SMOOTH",
"175 479 LINE SMOOTH",
"175 485 OFFCURVE",
"175 551 OFFCURVE",
"176 557 CURVE",
"186 561 OFFCURVE",
"207 561 OFFCURVE",
"219 561 CURVE SMOOTH",
"264 560 OFFCURVE",
"283 560 OFFCURVE",
"309.98 560.191 CURVE SMOOTH",
"333.075 560.435 OFFCURVE",
"363.574 560.843 OFFCURVE",
"379.057 560.962 CURVE SMOOTH",
"443 562 LINE",
"455 562 OFFCURVE",
"464 561 OFFCURVE",
"466 558 CURVE",
"455 507 OFFCURVE",
"396 444 OFFCURVE",
"345 406 CURVE SMOOTH",
"341 403 OFFCURVE",
"342 399 OFFCURVE",
"342 395 CURVE SMOOTH",
"342 388 OFFCURVE",
"345 381 OFFCURVE",
"353 373 CURVE SMOOTH",
"358 368 OFFCURVE",
"362 367 OFFCURVE",
"368 367 CURVE SMOOTH",
"373 367 OFFCURVE",
"378 368 OFFCURVE",
"382 371 CURVE",
"418 371 OFFCURVE",
"501 365 OFFCURVE",
"501 256 CURVE SMOOTH",
"501 218 OFFCURVE",
"496 201 OFFCURVE",
"485 175 CURVE SMOOTH",
"474 149 OFFCURVE",
"443 139 OFFCURVE",
"415 139 CURVE SMOOTH",
"365 139 OFFCURVE",
"339 145 OFFCURVE",
"325 155 CURVE SMOOTH",
"311 165 OFFCURVE",
"303 179 OFFCURVE",
"302 192 CURVE SMOOTH",
"301 205 OFFCURVE",
"300 216 OFFCURVE",
"300 222 CURVE SMOOTH",
"300 229 OFFCURVE",
"294 249 OFFCURVE",
"282 280 CURVE",
"256 280 OFFCURVE",
"231 279 OFFCURVE",
"220 279 CURVE SMOOTH",
"211 279 OFFCURVE",
"207 269 OFFCURVE",
"207 252 CURVE SMOOTH",
"207 246 OFFCURVE",
"207 237 OFFCURVE",
"209 228 CURVE",
"213 197 OFFCURVE",
"180 -13 OFFCURVE",
"399 -13 CURVE"
);
}
);
width = 624;
}
);
},
{
glyphname = Schwa.alt;
layers = (
{
color = -1;
layerId = "FC508690-ADF2-4DBF-B34D-60B2640A846D";
paths = (
{
closed = 1;
nodes = (
"338 -22 OFFCURVE",
"377 10 OFFCURVE",
"410 55 CURVE SMOOTH",
"427 78 OFFCURVE",
"442 103 OFFCURVE",
"453 130 CURVE SMOOTH",
"487 213 OFFCURVE",
"498 303 OFFCURVE",
"498 344 CURVE SMOOTH",
"498 383 OFFCURVE",
"496 430 OFFCURVE",
"491 465 CURVE SMOOTH",
"486 501 OFFCURVE",
"477 536 OFFCURVE",
"456 588 CURVE",
"417 648 OFFCURVE",
"383 684 OFFCURVE",
"327 703 CURVE SMOOTH",
"299 712 OFFCURVE",
"272 717 OFFCURVE",
"245 717 CURVE SMOOTH",
"132 717 OFFCURVE",
"45 683 OFFCURVE",
"45 643 CURVE SMOOTH",
"45 637 OFFCURVE",
"48 630 OFFCURVE",
"52 624 CURVE SMOOTH",
"63 611 OFFCURVE",
"71 605 OFFCURVE",
"78 605 CURVE SMOOTH",
"81 605 OFFCURVE",
"84 606 OFFCURVE",
"86 608 CURVE SMOOTH",
"95 615 OFFCURVE",
"111 623 OFFCURVE",
"136 631 CURVE SMOOTH",
"161 640 OFFCURVE",
"191 644 OFFCURVE",
"228 644 CURVE",
"264 643 OFFCURVE",
"290 632 OFFCURVE",
"305 611 CURVE SMOOTH",
"321 590 OFFCURVE",
"332 570 OFFCURVE",
"339 551 CURVE SMOOTH",
"351 518 OFFCURVE",
"364 460 OFFCURVE",
"364 402 CURVE SMOOTH",
"364 395 OFFCURVE",
"363 387 OFFCURVE",
"363 380 CURVE",
"337 382 OFFCURVE",
"303 384 OFFCURVE",
"257 384 CURVE SMOOTH",
"248 384 OFFCURVE",
"238 384 OFFCURVE",
"227 384 CURVE SMOOTH",
"102 385 OFFCURVE",
"39 377 OFFCURVE",
"40 360 CURVE",
"40 239 OFFCURVE",
"49 152 OFFCURVE",
"66 100 CURVE SMOOTH",
"83 49 OFFCURVE",
"109 15 OFFCURVE",
"143 0 CURVE SMOOTH",
"177 -15 OFFCURVE",
"213 -22 OFFCURVE",
"251 -22 CURVE SMOOTH"
);
},
{
closed = 1;
nodes = (
"222 74 OFFCURVE",
"197 82 OFFCURVE",
"173 110 CURVE SMOOTH",
"150 138 OFFCURVE",
"138 195 OFFCURVE",
"138 244 CURVE",
"187 248 OFFCURVE",
"233 250 OFFCURVE",
"279 250 CURVE SMOOTH",
"307 250 OFFCURVE",
"335 250 OFFCURVE",
"362 248 CURVE",
"362 240 OFFCURVE",
"363 235 OFFCURVE",
"363 229 CURVE SMOOTH",
"363 217 OFFCURVE",
"360 201 OFFCURVE",
"346 152 CURVE",
"331 104 OFFCURVE",
"299 74 OFFCURVE",
"243 74 CURVE SMOOTH"
);
}
);
width = 541;
}
);
},
{
glyphname = T.alt;
layers = (
{
anchors = (
{
name = bottom;
position = "{291, 0}";
},
{
name = top;
position = "{275, 710}";
}
);
color = -1;
layerId = "FC508690-ADF2-4DBF-B34D-60B2640A846D";
paths = (
{
closed = 1;
nodes = (
"421 6 OFFCURVE",
"453 -2 OFFCURVE",
"450 37 CURVE",
"450 76 OFFCURVE",
"434 223 OFFCURVE",
"434 306 CURVE SMOOTH",
"434 375 OFFCURVE",
"437 592 OFFCURVE",
"437 663 CURVE",
"441 663 LINE SMOOTH",
"488 662 OFFCURVE",
"510 664 OFFCURVE",
"526 664 CURVE SMOOTH",
"542 664 OFFCURVE",
"551 668 OFFCURVE",
"550 687 CURVE SMOOTH",
"550 704 OFFCURVE",
"555 718 OFFCURVE",
"534 719 CURVE",
"510 719 OFFCURVE",
"332 716 OFFCURVE",
"276 716 CURVE SMOOTH",
"63 715 LINE SMOOTH",
"53 715 OFFCURVE",
"45 717 OFFCURVE",
"39 717 CURVE SMOOTH",
"32 717 OFFCURVE",
"28 715 OFFCURVE",
"28 704 CURVE SMOOTH",
"28 696 OFFCURVE",
"27 689 OFFCURVE",
"27 682 CURVE SMOOTH",
"27 673 OFFCURVE",
"28 666 OFFCURVE",
"35 666 CURVE SMOOTH",
"46 666 OFFCURVE",
"102 668 OFFCURVE",
"118 668 CURVE SMOOTH",
"121 668 OFFCURVE",
"125 668 OFFCURVE",
"136 667 CURVE",
"138 650 OFFCURVE",
"139 624 OFFCURVE",
"139 593 CURVE SMOOTH",
"139 572 OFFCURVE",
"139 549 OFFCURVE",
"137 523 CURVE SMOOTH",
"131 452 OFFCURVE",
"128 292 OFFCURVE",
"128 188 CURVE SMOOTH",
"128 144 OFFCURVE",
"129 110 OFFCURVE",
"130 97 CURVE",
"130 72 OFFCURVE",
"126 47 OFFCURVE",
"126 30 CURVE SMOOTH",
"126 18 OFFCURVE",
"128 10 OFFCURVE",
"136 10 CURVE SMOOTH",
"156 10 OFFCURVE",
"302 6 OFFCURVE",
"362 6 CURVE SMOOTH"
);
}
);
width = 578;
}
);
leftKerningGroup = T.alt;
rightKerningGroup = T.alt;
},
{
glyphname = U.alt;
layers = (
{
anchors = (
{
name = bottom;
position = "{313, 0}";
},
{
name = ogonek;
position = "{378, 15}";
},
{
name = top;
position = "{330, 710}";
},
{
name = topright;
position = "{510, 715}";
}
);
color = -1;
layerId = "FC508690-ADF2-4DBF-B34D-60B2640A846D";
paths = (
{
closed = 1;
nodes = (
"551 6 OFFCURVE",
"571 292 OFFCURVE",
"571 353 CURVE SMOOTH",
"571 390 OFFCURVE",
"572 487 OFFCURVE",
"572 568 CURVE SMOOTH",
"572 622 OFFCURVE",
"572 669 OFFCURVE",
"570 686 CURVE SMOOTH",
"567 712 OFFCURVE",
"556 716 OFFCURVE",
"545 716 CURVE SMOOTH",
"539 716 OFFCURVE",
"534 715 OFFCURVE",
"530 715 CURVE SMOOTH",
"403 715 LINE SMOOTH",
"384 715 OFFCURVE",
"379 707 OFFCURVE",
"379 683 CURVE SMOOTH",
"379 659 OFFCURVE",
"385 570 OFFCURVE",
"385 521 CURVE",
"386 511 OFFCURVE",
"386 498 OFFCURVE",
"386 483 CURVE SMOOTH",
"386 422 OFFCURVE",
"382 332 OFFCURVE",
"382 309 CURVE SMOOTH",
"382 278 OFFCURVE",
"375 215 OFFCURVE",
"315 215 CURVE SMOOTH",
"254 215 OFFCURVE",
"257 274 OFFCURVE",
"257 298 CURVE",
"257 698 LINE",
"256 713 OFFCURVE",
"255 719 OFFCURVE",
"242 719 CURVE SMOOTH",
"235 719 OFFCURVE",
"219 720 OFFCURVE",
"202 720 CURVE SMOOTH",
"190 720 OFFCURVE",
"177 719 OFFCURVE",
"166 718 CURVE SMOOTH",
"155 717 OFFCURVE",
"144 716 OFFCURVE",
"133 716 CURVE SMOOTH",
"116 716 OFFCURVE",
"98 717 OFFCURVE",
"81 718 CURVE SMOOTH",
"54 719 OFFCURVE",
"59 702 OFFCURVE",
"59 682 CURVE SMOOTH",
"59 663 OFFCURVE",
"62 584 OFFCURVE",
"62 517 CURVE",
"64 464 OFFCURVE",
"58 345 OFFCURVE",
"58 274 CURVE SMOOTH",
"58 258 OFFCURVE",
"58 244 OFFCURVE",
"59 234 CURVE SMOOTH",
"63 182 OFFCURVE",
"78 6 OFFCURVE",
"315 6 CURVE SMOOTH"
);
}
);
width = 624;
}
);
},
{
glyphname = V.alt;
layers = (
{
color = -1;
layerId = "FC508690-ADF2-4DBF-B34D-60B2640A846D";
paths = (
{
closed = 1;
nodes = (
"254 3 OFFCURVE",
"256 4 OFFCURVE",
"259 15 CURVE SMOOTH",
"262 23 OFFCURVE",
"283 82 OFFCURVE",
"297 117 CURVE SMOOTH",
"310 151 OFFCURVE",
"364 308 OFFCURVE",
"376 337 CURVE",
"385 367 OFFCURVE",
"457 581 OFFCURVE",
"473 609 CURVE SMOOTH",
"489 636 OFFCURVE",
"504 678 OFFCURVE",
"507 686 CURVE SMOOTH",
"509 690 OFFCURVE",
"511 693 OFFCURVE",
"511 696 CURVE SMOOTH",
"511 698 OFFCURVE",
"509 699 OFFCURVE",
"505 699 CURVE SMOOTH",
"497 699 OFFCURVE",
"487 698 OFFCURVE",
"480 701 CURVE SMOOTH",
"472 704 OFFCURVE",
"467 704 OFFCURVE",
"464 692 CURVE",
"459 680 OFFCURVE",
"444 629 OFFCURVE",
"435 609 CURVE",
"427 588 OFFCURVE",
"385 488 OFFCURVE",
"368 444 CURVE",
"355 402 OFFCURVE",
"315 279 OFFCURVE",
"300 251 CURVE",
"286 221 OFFCURVE",
"260 147 OFFCURVE",
"255 131 CURVE",
"252 136 OFFCURVE",
"250 142 OFFCURVE",
"247 149 CURVE SMOOTH",
"242 162 OFFCURVE",
"235 182 OFFCURVE",
"226 211 CURVE SMOOTH",
"207 268 OFFCURVE",
"192 308 OFFCURVE",
"179 364 CURVE SMOOTH",
"166 419 OFFCURVE",
"114 565 OFFCURVE",
"103 614 CURVE SMOOTH",
"92 663 OFFCURVE",
"87 679 OFFCURVE",
"84 686 CURVE SMOOTH",
"81 693 OFFCURVE",
"84 703 OFFCURVE",
"66 703 CURVE SMOOTH",
"65 703 OFFCURVE",
"64 703 OFFCURVE",
"63 703 CURVE",
"28 703 LINE",
"23 702 OFFCURVE",
"19 703 OFFCURVE",
"19 696 CURVE SMOOTH",
"19 692 OFFCURVE",
"20 686 OFFCURVE",
"23 678 CURVE SMOOTH",
"31 652 OFFCURVE",
"50 569 OFFCURVE",
"58 550 CURVE SMOOTH",
"66 529 OFFCURVE",
"105 396 OFFCURVE",
"116 363 CURVE SMOOTH",
"184 171 LINE SMOOTH",
"195 139 OFFCURVE",
"233 16 OFFCURVE",
"235 11 CURVE SMOOTH",
"238 6 OFFCURVE",
"237 3 OFFCURVE",
"246 3 CURVE SMOOTH"
);
}
);
width = 521;
}
);
leftKerningGroup = V.alt;
rightKerningGroup = V.alt;
},
{
glyphname = W.alt;
layers = (
{
anchors = (
{
name = bottom;
position = "{383, 0}";
},
{
name = top;
position = "{409, 710}";
}
);
color = -1;
layerId = "FC508690-ADF2-4DBF-B34D-60B2640A846D";
paths = (
{
closed = 1;
nodes = (
"223 1 OFFCURVE",
"238 25 OFFCURVE",
"249 53 CURVE",
"257 80 OFFCURVE",
"285 139 OFFCURVE",
"301 176 CURVE",
"370 311 LINE SMOOTH",
"377 326 OFFCURVE",
"383 336 OFFCURVE",
"387 347 CURVE",
"390 352 OFFCURVE",
"392 358 OFFCURVE",
"394 363 CURVE",
"415 303 LINE",
"426 268 OFFCURVE",
"439 229 OFFCURVE",
"446 201 CURVE",
"462 146 OFFCURVE",
"487 78 OFFCURVE",
"498 56 CURVE",
"505 32 OFFCURVE",
"515 4 OFFCURVE",
"532 4 CURVE SMOOTH",
"545 4 OFFCURVE",
"585 118 OFFCURVE",
"598 163 CURVE",
"609 211 OFFCURVE",
"641 339 OFFCURVE",
"649 374 CURVE",
"659 408 OFFCURVE",
"686 507 OFFCURVE",
"704 560 CURVE",
"723 612 OFFCURVE",
"732 648 OFFCURVE",
"739 667 CURVE",
"740 674 OFFCURVE",
"742 680 OFFCURVE",
"742 685 CURVE SMOOTH",
"742 693 OFFCURVE",
"737 697 OFFCURVE",
"722 697 CURVE SMOOTH",
"640 697 LINE SMOOTH",
"619 697 OFFCURVE",
"602 702 OFFCURVE",
"595 673 CURVE",
"584 646 OFFCURVE",
"550 536 OFFCURVE",
"539 491 CURVE SMOOTH",
"528 446 OFFCURVE",
"511 401 OFFCURVE",
"508 384 CURVE",
"496 353 LINE SMOOTH",
"493 347 OFFCURVE",
"491 341 OFFCURVE",
"490 335 CURVE",
"486 342 OFFCURVE",
"482 350 OFFCURVE",
"479 359 CURVE",
"472 374 OFFCURVE",
"465 394 OFFCURVE",
"460 414 CURVE",
"453 457 OFFCURVE",
"442 494 OFFCURVE",
"439 519 CURVE",
"432 539 OFFCURVE",
"436 553 OFFCURVE",
"421 553 CURVE SMOOTH",
"408 553 OFFCURVE",
"398 539 OFFCURVE",
"387 522 CURVE",
"379 500 OFFCURVE",
"332 432 OFFCURVE",
"322 414 CURVE",
"311 397 OFFCURVE",
"289 343 OFFCURVE",
"273 335 CURVE",
"270 335 LINE SMOOTH",
"259 335 OFFCURVE",
"257 387 OFFCURVE",
"249 411 CURVE",
"244 438 OFFCURVE",
"212 540 OFFCURVE",
"201 580 CURVE SMOOTH",
"190 623 OFFCURVE",
"188 646 OFFCURVE",
"183 667 CURVE SMOOTH",
"180 684 OFFCURVE",
"182 697 OFFCURVE",
"149 697 CURVE SMOOTH",
"114 697 OFFCURVE",
"75 691 OFFCURVE",
"56 691 CURVE",
"45 688 OFFCURVE",
"37 685 OFFCURVE",
"37 668 CURVE SMOOTH",
"37 660 OFFCURVE",
"39 650 OFFCURVE",
"42 636 CURVE",
"55 593 OFFCURVE",
"90 433 OFFCURVE",
"101 390 CURVE",
"109 347 OFFCURVE",
"159 151 OFFCURVE",
"167 101 CURVE",
"178 48 OFFCURVE",
"183 43 OFFCURVE",
"188 28 CURVE",
"191 10 OFFCURVE",
"198 1 OFFCURVE",
"208 1 CURVE SMOOTH"
);
}
);
width = 764;
}
);
leftKerningGroup = W.alt;
rightKerningGroup = W.alt;
},
